<svg xmlns="http://www.w3.org/2000/svg" xmlns:xlink="http://www.w3.org/1999/xlink" viewBox="0 0 310.9 278.74"><defs><style>.cls-1{fill:none;}.cls-2{fill:#fff;}.cls-3{fill:#e2dbff;}.cls-4{fill:#c79e73;}.cls-5{fill:#1a1a1a;}.cls-6{fill:#fcffff;}.cls-7{fill:#fec251;}.cls-8{fill:#bda8f2;}.cls-9{fill:#846741;}.cls-10{fill:#f1593a;}.cls-11{fill:#754c24;}.cls-12{fill:#90452d;}.cls-13{fill:#ff1d25;}.cls-14{fill:#603813;}.cls-15{fill:#a67c52;}.cls-16{fill:#c69c6d;}.cls-17{fill:#472c4d;}.cls-18{fill:#5bbdd9;}.cls-19{clip-path:url(#clip-path);}.cls-20{fill:#a6ebc8;}.cls-21{clip-path:url(#clip-path-2);}.cls-22{fill:#c5563b;}.cls-23{fill:#f4afd0;}.cls-24{fill:#90d294;}.cls-25{fill:#e6e6e6;}.cls-26{fill:#42210b;}.cls-27{fill:#c09ef2;}.cls-28{fill:#666;}.cls-29{fill:#ccc;}.cls-30{fill:#c1d1dd;}.cls-31{fill:#b8edd1;}.cls-32{fill:#f7db69;}.cls-33{fill:#74c698;}.cls-34{fill:#ffc151;}.cls-35{fill:#9b451f;}</style><clipPath id="clip-path"><path class="cls-1" d="M181.37,85.23c0,.5,1.49,1,2,3s2,3,3.49,2.49,3-1.5,4.48-2,1.49-2.48,2-3.48-3-1-3.49-2.49-.5-3-2.49-3.48-4-2-4.48-1-.49,1.49-1,2.49,0,2.49-.5,3S181.37,85.23,181.37,85.23Z"/></clipPath><clipPath id="clip-path-2"><path class="cls-1" d="M194.81,92.2c1.49-.5,3-.5,4-3s1-4,2.49-4.48,1.5.5,3,1,.5,2.49,2.49,4.48,1.49,3,1,4.48-3.48.5-5,2.49-2.49,0-6,1-6.47-.5-6.47-1,4-3,4-3Z"/></clipPath></defs><title>Ресурс 12</title><g id="Слой_2" data-name="Слой 2"><g id="Слой_2-2" data-name="Слой 2"><polygon class="cls-2" points="163.01 0.86 0.75 89.27 0.75 193.4 159.98 277.89 310.15 193.4 310.15 84.36 163.01 0.86"/><path d="M160,278.74l-.37-.19L0,193.85v-105l.39-.22L163,0l.36.21L310.9,83.92V193.84l-.38.22ZM1.5,193,160,277,309.4,193V84.8L163,1.72,1.5,89.72Z"/><polygon class="cls-3" points="305.61 191.93 156.96 271.99 8.81 190.46 162 106.95 162.5 107.25 162.5 107.45 186.01 121.16 305.61 191.93"/><path d="M157,272.85l-.36-.2L7.25,190.45l1.2-.65L162,106.09l1.24.73v.2l23.13,13.49L307.14,192ZM10.37,190.46,157,271.14,304.09,191.9,185.62,121.81l-23.81-13.9Z"/><polygon class="cls-4" points="162.5 9.21 8.31 91.73 8.31 190.95 162.5 107.45 162.5 9.21"/><path d="M7.56,192.21V91.28L163.25,8v99.93Zm1.5-100v97.51L161.75,107V10.46Z"/><polygon class="cls-4" points="305.61 89.76 305.61 190.95 186.01 121.16 162.5 107.45 162.5 9.21 305.61 89.76"/><path class="cls-5" d="M306.36,192.25,161.75,107.88V7.93l144.61,81.4ZM163.25,107l141.61,82.62V90.2L163.25,10.49Z"/><polygon class="cls-6" points="54.16 85.34 54.16 130.53 149.91 77.48 149.91 34.26 54.16 85.34"/><path d="M53.41,131.81V84.89L150.66,33V77.93Zm1.5-46v43.47L149.16,77V35.51Z"/><polygon class="cls-7" points="149.91 43.1 149.91 48.01 107.07 72.44 107.07 101.55 101.03 104.5 101.03 75.89 54.16 102.04 54.16 97.13 101.03 70.98 101.03 60.29 107.07 57.34 107.07 67.53 149.91 43.1"/><path d="M100.28,105.7V77.17L53.41,103.32V96.69l46.87-26.15V59.82l7.54-3.67V66.24l42.84-24.43v6.64L107.82,72.88V102Zm1.5-31.08V103.3l4.54-2.22V72l42.84-24.43V44.39L106.32,68.82V58.54l-4.54,2.22V71.42L54.91,97.57v3.2Z"/><ellipse class="cls-8" cx="243.07" cy="106.11" rx="26.15" ry="17.46" transform="translate(124.89 343.55) rotate(-87.12)"/><path d="M242.31,133a13.32,13.32,0,0,1-8.18-2.93c-5.22-4-8.67-11.63-9.22-20.4C224,95,231.34,81.49,241.29,79.48A13,13,0,0,1,252,82.15c5.23,4,8.68,11.63,9.23,20.4.92,14.64-6.43,28.18-16.38,30.19A13,13,0,0,1,242.31,133Zm1.5-52.27a11.21,11.21,0,0,0-2.22.22c-9.25,1.87-16.06,14.71-15.18,28.63.52,8.34,3.75,15.55,8.64,19.3a11.53,11.53,0,0,0,9.5,2.39c9.25-1.87,16.06-14.71,15.18-28.63-.52-8.34-3.75-15.55-8.64-19.3A11.84,11.84,0,0,0,243.81,80.73Z"/><ellipse class="cls-2" cx="243.5" cy="106.6" rx="20.36" ry="13.38" transform="translate(126.34 345.19) rotate(-87.49)"/><path d="M243,127.7a10.26,10.26,0,0,1-6.31-2.26c-4.1-3.15-6.81-9.16-7.25-16.1-.72-11.49,5-22.09,12.67-23.65a10,10,0,0,1,8.26,2.06c4.1,3.15,6.81,9.17,7.25,16.11h0c.72,11.48-5,22.09-12.67,23.65A9.91,9.91,0,0,1,243,127.7ZM244,87a8.3,8.3,0,0,0-1.64.17c-7,1.41-12.15,11.32-11.47,22.08.41,6.51,2.9,12.12,6.66,15a8.56,8.56,0,0,0,7.05,1.78c7-1.41,12.15-11.32,11.47-22.08h0c-.41-6.51-2.9-12.12-6.66-15A8.83,8.83,0,0,0,244,87Z"/><polygon class="cls-9" points="305.68 190.88 305.61 118.83 270.83 101.87 269.73 170.7 305.68 190.88"/><path d="M306.43,192.16l-37.45-21,1.12-70.46,36.26,17.68Zm-35.94-21.89,34.43,19.33-.06-70.31-33.3-16.23Z"/><circle cx="275.77" cy="145.9" r="2.12"/><path d="M275.77,148.77a2.87,2.87,0,1,1,2.87-2.87A2.87,2.87,0,0,1,275.77,148.77Zm0-4.24a1.37,1.37,0,1,0,1.37,1.37A1.38,1.38,0,0,0,275.77,144.53Z"/><polygon class="cls-10" points="259.69 172.98 259.69 180.63 250.13 188.28 222.73 176.81 222.73 169.16 233.56 161.51 259.69 172.98"/><path d="M250.25,189.14,222,177.31v-8.54l11.5-8.11,27,11.83V181Zm-26.77-12.83L250,187.41l8.93-7.14v-6.8l-25.29-11.1-10.17,7.18Z"/><polyline class="cls-10" points="222.73 169.16 250.13 181.27 250.13 188.28"/><polygon points="250.88 188.28 249.38 188.28 249.38 181.75 222.43 169.85 223.03 168.47 250.88 180.78 250.88 188.28"/><line class="cls-11" x1="259.37" y1="173.3" x2="250.13" y2="181.27"/><rect x="248.65" y="176.53" width="12.2" height="1.5" transform="translate(-53.95 209.41) rotate(-40.78)"/><polygon class="cls-12" points="233.56 161.51 236.75 141.76 267.01 151.64 259.37 173.3 233.56 161.51"/><path d="M259.8,174.33,232.73,162l3.42-21.18L268,151.16Zm-25.41-13.26,24.54,11.21,7.12-20.17-28.7-9.36Z"/><polygon points="233.96 162.15 233.16 160.88 237.96 157.88 240.47 138.48 241.95 138.67 239.36 158.78 233.96 162.15"/><rect x="250.97" y="149.4" width="1.5" height="28.04" transform="translate(7.97 338.51) rotate(-68.68)"/><polygon class="cls-10" points="269.15 150 241.21 137.94 236.75 141.76 263.83 154.19 260 172.66 265.74 168.84 269.15 150"/><path d="M258.9,174.3,263,154.62,235.37,142l5.71-4.9L270,149.55l-3.57,19.74Zm-20.77-32.73,26.55,12.18L261.11,171l3.95-2.64,3.24-17.94-27-11.64Z"/><line class="cls-11" x1="263.83" y1="154.19" x2="268.93" y2="150.36"/><rect x="263.19" y="151.53" width="6.37" height="1.5" transform="translate(-38.08 190.32) rotate(-36.88)"/><ellipse cx="238.34" cy="168.84" rx="5.1" ry="12.74" transform="translate(3.02 341.86) rotate(-71.64)"/><path d="M244.81,175.89a27.13,27.13,0,0,1-8.31-1.5c-7.3-2.42-12-6.64-11-9.8.54-1.6,2.43-2.58,5.35-2.76a25.89,25.89,0,0,1,9.3,1.46c7.3,2.43,12,6.64,11,9.8h0C250.54,174.94,248.14,175.89,244.81,175.89ZM231.88,163.3c-.31,0-.62,0-.91,0-2.2.13-3.7.78-4,1.73-.65,2,3.3,5.68,10,7.91s12.11,1.6,12.75-.35-3.3-5.68-10-7.9A25.66,25.66,0,0,0,231.88,163.3Z"/><ellipse class="cls-13" cx="238.43" cy="168.94" rx="1.74" ry="4.36" transform="translate(2.99 342.01) rotate(-71.64)"/><path d="M240.64,171.83a9.85,9.85,0,0,1-3-.52c-2.41-.81-4.58-2.43-4.07-4s3.23-1.56,5.64-.76,4.58,2.42,4.06,4h0C243,171.45,241.94,171.83,240.64,171.83Zm-4.43-4.29c-.69,0-1.12.13-1.21.27s1,1.37,3.12,2.07,3.56.45,3.74.19c0-.31-1-1.38-3.11-2.08A8.23,8.23,0,0,0,236.21,167.54Z"/><polygon points="250.13 176.81 252.04 178.08 257.14 173.62 254.59 172.35 253.47 173.46 250.13 176.81"/><polygon points="248.22 170.44 253.95 174.26 252.04 175.53 248.22 170.44"/><polygon class="cls-14" points="136.39 131.84 148.25 130.05 148.25 86.93 136.39 89.62 136.39 131.84"/><path d="M135.64,132.72V89L149,86v44.7Zm1.5-42.5V131l10.35-1.57V87.87Z"/><polygon class="cls-12" points="133.15 102.2 196.75 121.15 196.75 110.37 145.01 90.97 133.15 93.39 133.15 102.2"/><path d="M197.5,122.16l-65.1-19.4v-10l12.67-2.59,52.43,19.66Zm-63.6-20.52L196,120.15v-9.26L145,91.75,133.9,94Z"/><polygon class="cls-12" points="128.84 135.08 192.44 156.73 192.44 143.25 143.93 121.15 128.84 126.27 128.84 135.08"/><path d="M193.19,157.78l-65.1-22.16v-9.88L144,120.35l49.22,22.42Zm-63.6-23.24,62.1,21.14V143.74L143.89,122l-14.3,4.85Z"/><polygon class="cls-12" points="147.17 122.68 210.77 144.33 210.77 130.86 162.26 108.76 147.17 113.88 147.17 122.68"/><path d="M211.52,145.38l-65.1-22.16v-9.88L162.3,108l49.22,22.42Zm-63.6-23.24L210,143.28V131.34l-47.8-21.78-14.3,4.86Z"/><line class="cls-15" x1="130.73" y1="136.52" x2="155.76" y2="126.54"/><rect x="129.77" y="130.78" width="26.95" height="1.5" transform="translate(-38.49 62.3) rotate(-21.7)"/><polygon class="cls-12" points="184.63 128.07 196.49 123.58 196.49 113.34 184.63 117.65 184.63 128.07"/><path d="M183.88,129.16v-12l13.36-4.86V124.1Zm1.5-11V127l10.36-3.92v-8.65Z"/><polygon class="cls-12" points="178.97 162.57 192.44 158.08 192.44 148.37 178.97 153.76 178.97 162.57"/><path d="M178.22,163.61V153.26l15-6v11.35Zm1.5-9.34v7.26l12-4v-8.06Z"/><polygon class="cls-9" points="136.93 89.35 157.95 81.27 219.93 103.91 217.78 147.56 190.29 163.74 193.52 113.07 136.93 89.35"/><path d="M189.45,165.1l3.29-51.55L134.91,89.32l23-8.85.26.09,62.51,22.83L218.5,148ZM138.94,89.38l55.36,23.2-3.17,49.79,25.92-15.25,2.11-42.7L158,82.07Z"/><line class="cls-16" x1="219.93" y1="103.91" x2="193.52" y2="113.07"/><rect x="192.75" y="107.74" width="27.96" height="1.5" transform="translate(-24.13 73.69) rotate(-19.12)"/><polygon class="cls-9" points="135.85 106.33 135.85 119.27 191.37 144.06 192.44 129.78 135.85 106.33"/><path d="M192,145.18,135.1,119.75V105.21l58.13,24.08Zm-55.43-26.4,54.1,24.16,1-12.68L136.6,107.45Z"/><polygon class="cls-9" points="125.61 124.66 125.61 137.59 180.59 165.62 181.66 151.34 125.61 124.66"/><path d="M181.25,166.8l-56.39-28.75V123.47l57.59,27.41Zm-54.89-29.67,53.56,27.31,1-12.65-54.52-25.95Z"/><polygon class="cls-9" points="130.46 91.78 130.46 104.71 185.44 129.51 186.51 115.22 130.46 91.78"/><path d="M186.1,130.63,129.71,105.2V90.65l57.59,24.09Zm-54.89-26.4,53.56,24.15,1-12.67L131.21,92.9Z"/><circle cx="135.85" cy="100.67" r="1.35"/><path d="M135.85,102.77a2.1,2.1,0,1,1,2.09-2.1A2.1,2.1,0,0,1,135.85,102.77Zm0-2.7a.6.6,0,1,0,0,1.2.6.6,0,0,0,0-1.2Z"/><circle cx="178.16" cy="119.27" r="1.35"/><path d="M178.16,121.36a2.1,2.1,0,1,1,2.1-2.09A2.1,2.1,0,0,1,178.16,121.36Zm0-2.69a.6.6,0,0,0-.6.6.6.6,0,0,0,1.2,0A.6.6,0,0,0,178.16,118.67Z"/><circle cx="186.24" cy="134.36" r="1.35"/><path d="M186.24,136.46a2.1,2.1,0,1,1,2.1-2.1A2.1,2.1,0,0,1,186.24,136.46Zm0-2.7a.6.6,0,1,0,.6.6A.6.6,0,0,0,186.24,133.76Z"/><circle cx="142.05" cy="115.49" r="1.35"/><path d="M142.05,117.59a2.1,2.1,0,1,1,2.09-2.1A2.1,2.1,0,0,1,142.05,117.59Zm0-2.69a.6.6,0,1,0,0,1.19.6.6,0,0,0,0-1.19Z"/><circle cx="130.73" cy="133.82" r="1.35"/><path d="M130.73,135.92a2.1,2.1,0,1,1,2.09-2.1A2.1,2.1,0,0,1,130.73,135.92Zm0-2.7a.6.6,0,0,0,0,1.2.6.6,0,0,0,0-1.2Z"/><circle cx="173.31" cy="155.38" r="1.35"/><path d="M173.31,157.48a2.1,2.1,0,1,1,2.1-2.1A2.1,2.1,0,0,1,173.31,157.48Zm0-2.7a.6.6,0,1,0,.6.6A.6.6,0,0,0,173.31,154.78Z"/><polygon class="cls-17" points="144.2 111.72 142.05 115.49 144.2 119.27 144.2 111.72"/><path d="M145,122.09l-3.77-6.6L145,108.9Zm-2-6.6.54,1v-1.9Z"/><polygon class="cls-17" points="135.04 111.72 137.19 115.49 135.04 119.27 135.04 111.72"/><path d="M134.29,122.09V108.9l3.77,6.59Zm1.5-7.54v1.89l.54-1Z"/><polygon class="cls-17" points="135.65 123.3 134.5 128.97 143.66 133.28 142.59 123.04 135.65 123.3"/><path d="M144.55,134.53l-10.9-5.13,1.38-6.82,8.23-.32Zm-9.2-6,7.43,3.5-.87-8.22-5.64.21Z"/><path class="cls-17" d="M144.74,120.08a5.12,5.12,0,0,0-5.12-5.12,5,5,0,0,0-2.64.73,5.12,5.12,0,1,0,7.76,4.39Z"/><path d="M139.62,126a5.88,5.88,0,0,1-5.87-5.87,5.87,5.87,0,1,1,11.74,0A5.88,5.88,0,0,1,139.62,126Zm0-10.24a4.36,4.36,0,0,0-4.37,4.37,4.37,4.37,0,1,0,4.37-4.37Z"/><path class="cls-2" d="M134.5,117.65s2.41,0,4.22,3.21A3.45,3.45,0,0,1,134.5,117.65Z"/><path d="M138,121.68a4.32,4.32,0,0,1-2.44-.71,4.51,4.51,0,0,1-1.79-3.21l-.13-.86h.87c.12,0,2.87,0,4.87,3.6l.5.88-1,.21A3.86,3.86,0,0,1,138,121.68Zm-2.42-3a2.33,2.33,0,0,0,1.73,1.4A4.9,4.9,0,0,0,135.57,118.71Z"/><ellipse cx="136.66" cy="119.81" rx="0.54" ry="1.08"/><path class="cls-2" d="M144.74,117.65s-2.41,0-4.22,3.21A3.45,3.45,0,0,0,144.74,117.65Z"/><path d="M141.25,121.68a3.86,3.86,0,0,1-.89-.09l-1-.21.5-.88c2-3.56,4.76-3.6,4.87-3.6h.87l-.13.86a4.51,4.51,0,0,1-1.79,3.21A4.3,4.3,0,0,1,141.25,121.68Zm2.42-3a4.9,4.9,0,0,0-1.73,1.4,2.33,2.33,0,0,0,1.73-1.4Z"/><ellipse cx="142.59" cy="119.81" rx="0.54" ry="1.08"/><path d="M193.57,106.14h-4.73a.75.75,0,0,1,0-1.5h1.88l-.53-4.1a5.84,5.84,0,0,1-2.19-.7c-.33-.17-.95-.48-.69-1.13s.9-.46,1.28-.35c.67.2,1.33.37,2,.51l.82-.81.13,1a16.15,16.15,0,0,0,8.28-.36c2.13-.75,4-2.88,5-5.71a10.25,10.25,0,0,0-.44-8.63,9.73,9.73,0,0,0-6.67-4.87l-1.34-.15,2.83-3.55a.75.75,0,1,1,1.17.93l-1.24,1.56a11.36,11.36,0,0,1,7.1,15.21c-1.17,3.25-3.39,5.73-5.94,6.62a17.17,17.17,0,0,1-8.58.5l.52,4h1.34Z"/><circle class="cls-18" cx="193.07" cy="88.96" r="9.71"/><path d="M193.07,79.26a9.71,9.71,0,1,1-9.71,9.7,9.7,9.7,0,0,1,9.71-9.7m0-1.5A11.21,11.21,0,1,0,204.28,89a11.22,11.22,0,0,0-11.21-11.2Z"/><g class="cls-19"><circle class="cls-20" cx="193.07" cy="88.96" r="9.71"/></g><g class="cls-21"><circle class="cls-20" cx="193.07" cy="88.96" r="9.71"/></g><path class="cls-12" d="M225.27,205.62c-.73.28-1.52.78-2.23.45s-.87-1.47-1.59-1.92a1.42,1.42,0,0,0-1.54.1,2.13,2.13,0,0,0-.8,1.38c-.25,1.51.72,2.92,1.68,4.1a5,5,0,0,0,1.12,1.09,5.13,5.13,0,0,0,2.66.6,9.34,9.34,0,0,0,2.84-.23,10.18,10.18,0,0,0,2.79-1.5,3.34,3.34,0,0,0,1.2-1.16,2,2,0,0,0-.46-2.25C229.71,205.07,226.76,205.05,225.27,205.62Z"/><path d="M225.31,212.18h-.76a5.75,5.75,0,0,1-3.05-.72,5.67,5.67,0,0,1-1.29-1.25c-1.08-1.31-2.14-2.9-1.84-4.69a2.87,2.87,0,0,1,1.1-1.87,2.14,2.14,0,0,1,2.38-.12,3,3,0,0,1,1,1.2c.17.3.33.59.51.67s.7-.07,1.17-.27l.47-.2h0c1.69-.64,5-.64,6.47.83a2.77,2.77,0,0,1,.6,3.12,4.06,4.06,0,0,1-1.45,1.44,10.87,10.87,0,0,1-3,1.6A8.33,8.33,0,0,1,225.31,212.18Zm-4.52-7.46a.79.79,0,0,0-.44.14,1.4,1.4,0,0,0-.5.9c-.2,1.19.66,2.44,1.52,3.49a4.63,4.63,0,0,0,.94.94,4.48,4.48,0,0,0,2.29.48,8.69,8.69,0,0,0,2.6-.2,9.35,9.35,0,0,0,2.57-1.4,2.81,2.81,0,0,0,1-.87,1.28,1.28,0,0,0-.31-1.38c-.92-.9-3.5-1-4.89-.5l-.4.17a2.32,2.32,0,0,1-3.59-1,1.87,1.87,0,0,0-.49-.67A.44.44,0,0,0,220.79,204.72Z"/><path class="cls-12" d="M229.06,196c-1,.56-2.12.92-3.13,1.49a3.25,3.25,0,0,0-1.7,1.87,2.46,2.46,0,0,0,1.13,2.53,4.58,4.58,0,0,0,2.84.63,5.29,5.29,0,0,0,1.25-.22,4,4,0,0,0,1.21-.69c1.71-1.42,2.19-3.86,2-6.07-.05-.7-.3-2.14-1.23-1.88C230.84,193.86,229.83,195.6,229.06,196Z"/><path d="M227.78,203.3a5.07,5.07,0,0,1-2.84-.76,3.25,3.25,0,0,1-1.44-3.34,3.92,3.92,0,0,1,2.07-2.35,16.8,16.8,0,0,1,1.66-.8,15.31,15.31,0,0,0,1.47-.69h0a5.19,5.19,0,0,0,1-1,3.92,3.92,0,0,1,1.56-1.37,1.41,1.41,0,0,1,1.2.19,3.18,3.18,0,0,1,1,2.35c.21,2.88-.63,5.32-2.31,6.7a4.57,4.57,0,0,1-1.44.83,5.79,5.79,0,0,1-1.45.26Zm1.64-6.62c-.52.29-1.06.52-1.59.75a15.47,15.47,0,0,0-1.53.73,2.46,2.46,0,0,0-1.34,1.4,1.73,1.73,0,0,0,.82,1.73,3.79,3.79,0,0,0,2.37.5,4.15,4.15,0,0,0,1.06-.18,3.43,3.43,0,0,0,1-.56c1.83-1.52,1.84-4.31,1.76-5.44a2.28,2.28,0,0,0-.34-1.23c-.07.1-.48.59-.75.91a5.82,5.82,0,0,1-1.43,1.39Z"/><path class="cls-12" d="M230.65,199.49c-1,2.23-3,4.27-2.56,6.65a4.53,4.53,0,0,0,2.75,3.07A12.61,12.61,0,0,0,235,210c2.09.14,4.34.18,6.11-.94,2.52-1.61,3.18-5,3.12-8a4.57,4.57,0,0,0-.25-1.64,11.59,11.59,0,0,0-1.42-2c-.57-.87-.81-1.91-1.36-2.79a5.51,5.51,0,0,0-4.83-2.31c-1.29.05-4.37.71-5.05,2-.3.55,0,1.89,0,2.54A9,9,0,0,1,230.65,199.49Z"/><path d="M236.85,210.82c-.63,0-1.25,0-1.87-.07a13.51,13.51,0,0,1-4.44-.85,5.22,5.22,0,0,1-3.19-3.62c-.38-1.92.6-3.56,1.56-5.14a15.58,15.58,0,0,0,1.05-1.95,8,8,0,0,0,.59-2.42,6,6,0,0,0,0-.8,3.85,3.85,0,0,1,.17-2c1-1.82,4.79-2.35,5.68-2.38a6.28,6.28,0,0,1,5.49,2.66,8.76,8.76,0,0,1,.72,1.48,8.28,8.28,0,0,0,.64,1.3,7.9,7.9,0,0,0,.51.67,5.58,5.58,0,0,1,1,1.49,5.15,5.15,0,0,1,.3,1.91c.08,4.09-1.15,7.15-3.46,8.62A8.56,8.56,0,0,1,236.85,210.82Zm-.23-17.76h-.2c-1.43.05-4,.76-4.41,1.59a4.33,4.33,0,0,0,0,1.2,5.57,5.57,0,0,1,0,1.06,9.59,9.59,0,0,1-.71,2.87h0a16.79,16.79,0,0,1-1.15,2.13c-.84,1.4-1.63,2.72-1.37,4.08a3.79,3.79,0,0,0,2.32,2.53,11.79,11.79,0,0,0,3.94.73c2,.13,4.09.18,5.66-.83,2.51-1.59,2.81-5.27,2.77-7.32a4.08,4.08,0,0,0-.19-1.38,4.29,4.29,0,0,0-.74-1.09c-.22-.27-.43-.53-.62-.81a9.55,9.55,0,0,1-.76-1.54,9.81,9.81,0,0,0-.6-1.26A4.73,4.73,0,0,0,236.62,193.06Z"/><path class="cls-12" d="M233.41,208.07a4,4,0,0,0-1,2.75c0-.74-.88-1.15-1.63-1.14s-1.7.45-1.68,1.22a1.76,1.76,0,0,0,.31.81l.77,1.32a4.05,4.05,0,0,0,1.88,2,3.94,3.94,0,0,0,3.08-.66c2.32-1.24,4.71-2.72,5.86-5.08a2.86,2.86,0,0,0,.32-2.07,3.29,3.29,0,0,0-.82-1.21,3,3,0,0,0-1.52-1.06C237.14,204.57,234.51,206.82,233.41,208.07Z"/><path d="M232.74,215.88a3.11,3.11,0,0,1-1-.17,4.74,4.74,0,0,1-2.28-2.3l-.77-1.32a2.52,2.52,0,0,1-.41-1.16,1.7,1.7,0,0,1,.48-1.23,2.84,2.84,0,0,1,1.94-.77,3,3,0,0,1,1.17.22,5.45,5.45,0,0,1,1-1.57h0c1.2-1.36,4-3.82,6.23-3.39a3.64,3.64,0,0,1,1.93,1.28,4.06,4.06,0,0,1,1,1.49,3.48,3.48,0,0,1-.35,2.63c-1.29,2.62-3.87,4.17-6.18,5.41A5.9,5.9,0,0,1,232.74,215.88Zm-2-5.45h0a1.27,1.27,0,0,0-.87.31c-.07.07-.07.11-.07.14a1.37,1.37,0,0,0,.21.45l.77,1.32a3.39,3.39,0,0,0,1.48,1.64,3.34,3.34,0,0,0,2.48-.61c2.11-1.13,4.45-2.53,5.54-4.75a2.16,2.16,0,0,0,.27-1.52,2.77,2.77,0,0,0-.65-.93,2.45,2.45,0,0,0-1.11-.82c-1.32-.27-3.64,1.58-4.81,2.9a3.29,3.29,0,0,0-.87,2.07,1.62,1.62,0,0,1,0,.22l-1.5,0v-.11l0-.06A1.23,1.23,0,0,0,230.76,210.43Z"/><path class="cls-12" d="M237.7,198c0,.81-.8,1.35-1.29,2s-.76,1.52-1.33,2.14a17.3,17.3,0,0,1-1.88,1.4,3,3,0,0,0-1,1.54,2,2,0,0,0,.38,1.78,2.58,2.58,0,0,0,1.87.7,5.79,5.79,0,0,0,3.66-1.14c2.05-1.55,2.83-4.23,3.47-6.72"/><path d="M234.61,208.36h-.23a3.23,3.23,0,0,1-2.39-.95,2.72,2.72,0,0,1-.56-2.46,3.67,3.67,0,0,1,1.29-1.94,8.07,8.07,0,0,1,.85-.59,5.28,5.28,0,0,0,1-.73,4.72,4.72,0,0,0,.64-1,7.28,7.28,0,0,1,.65-1.09c.15-.19.32-.37.48-.55.35-.38.65-.7.66-1l1.5.05a3.15,3.15,0,0,1-1,2c-.14.15-.28.3-.4.45a5.54,5.54,0,0,0-.51.87,6.27,6.27,0,0,1-.86,1.33,6,6,0,0,1-1.25,1,6.89,6.89,0,0,0-.71.49,2.35,2.35,0,0,0-.79,1.14,1.25,1.25,0,0,0,.22,1.1,1.92,1.92,0,0,0,1.34.45,4.93,4.93,0,0,0,3.18-1c1.79-1.35,2.53-3.75,3.2-6.31l1.45.38c-.74,2.82-1.58,5.49-3.75,7.13A6.54,6.54,0,0,1,234.61,208.36Z"/><path class="cls-12" d="M244.34,180.12a2.33,2.33,0,0,1,1.93-.08,2.21,2.21,0,0,1,.66.73c.69,1.07,1.27,2.44.7,3.58a4.2,4.2,0,0,1-2.09,1.62c-2.08,1-3.57-.15-4.21-2.28S242.66,180.71,244.34,180.12Z"/><path d="M244.1,187.07a3,3,0,0,1-1.27-.27,4.33,4.33,0,0,1-2.22-2.9c-.89-3,2.28-4.07,3.48-4.49h0a3,3,0,0,1,2.56,0,2.88,2.88,0,0,1,.91,1c1.09,1.69,1.33,3.14.74,4.32a4.8,4.8,0,0,1-2.45,2A4.1,4.1,0,0,1,244.1,187.07Zm.48-6.24c-2.5.87-2.82,1.69-2.54,2.64a3,3,0,0,0,1.4,2,2.11,2.11,0,0,0,1.78-.14A3.56,3.56,0,0,0,247,184c.42-.83-.13-2-.66-2.83a1.84,1.84,0,0,0-.42-.5c-.28-.17-.81,0-1.3.15Z"/><path class="cls-12" d="M232.57,179.18a2.83,2.83,0,0,0-2.1-.52,3.43,3.43,0,0,0-2.29,2.53,4.09,4.09,0,0,0-.06,2.47,2.22,2.22,0,0,0,1.8,1.54,3.29,3.29,0,0,0,1.59-.37c.5-.22,1-.46,1.48-.72a2.47,2.47,0,0,0,.79-.56C234.93,182.13,233.82,180,232.57,179.18Z"/><path d="M230.09,186h-.23a3,3,0,0,1-2.45-2,4.82,4.82,0,0,1,.05-2.93,4.08,4.08,0,0,1,2.86-3,3.59,3.59,0,0,1,2.67.63h0a4.84,4.84,0,0,1,2,3.11,3,3,0,0,1-.62,2.35,3.06,3.06,0,0,1-1,.76c-.5.26-1,.51-1.53.73A4.29,4.29,0,0,1,230.09,186Zm.81-6.59a1.33,1.33,0,0,0-.28,0c-.88.17-1.46,1.15-1.72,2a3.33,3.33,0,0,0-.07,2,1.5,1.5,0,0,0,1.16,1,2.74,2.74,0,0,0,1.22-.32q.73-.31,1.44-.69a2.28,2.28,0,0,0,.55-.37,1.49,1.49,0,0,0,.29-1.19,3.36,3.36,0,0,0-1.34-2.09A2.27,2.27,0,0,0,230.9,179.37Z"/><path class="cls-12" d="M231.37,182.44A6.22,6.22,0,0,0,230,184.2a6.92,6.92,0,0,0-.65,2.87,8.9,8.9,0,0,0,4.9,8.37c3.14,1.4,7.33.21,8.9-2.84a10.46,10.46,0,0,0,.85-5,9.07,9.07,0,0,0-.45-3c-.76-2-3.76-3.39-5.77-3.8A7.39,7.39,0,0,0,231.37,182.44Z"/><path d="M237.05,196.77a7.66,7.66,0,0,1-3.08-.64,9.65,9.65,0,0,1-5.35-9.09,7.75,7.75,0,0,1,.73-3.17,6.87,6.87,0,0,1,1.51-2,8.16,8.16,0,0,1,7.09-1.84c2.05.42,5.42,1.9,6.32,4.27a9.86,9.86,0,0,1,.5,3.24,11.24,11.24,0,0,1-.94,5.38A7.62,7.62,0,0,1,237.05,196.77Zm-.81-15.39a6.47,6.47,0,0,0-4.37,1.61h0a5.55,5.55,0,0,0-1.18,1.55,6.27,6.27,0,0,0-.57,2.55,8.13,8.13,0,0,0,4.46,7.67,6.28,6.28,0,0,0,7.92-2.51,9.77,9.77,0,0,0,.77-4.65,8.15,8.15,0,0,0-.41-2.75c-.64-1.69-3.43-3-5.21-3.33A6.74,6.74,0,0,0,236.24,181.38Z"/><circle cx="233.07" cy="187.23" r="1.16"/><circle cx="240.05" cy="188.78" r="1.16"/><circle cx="235.4" cy="190.33" r="1.16"/><path d="M235.33,191.59c.16.15.27.36.48.54s.82.39,1.08.75a3,3,0,0,1-1.61-.18,3.87,3.87,0,0,0-1.59-.57,1.22,1.22,0,0,1-.27,0c-.09,0-.18-.09-.18-.18s.15-.21.28-.25a3.17,3.17,0,0,1,1.38-.32A.74.74,0,0,1,235.33,191.59Z"/><path class="cls-22" d="M205.36,142.27s-6.13,11.13-3.76,14.16,8.4-12.7,8.4-12.7l-4.64-1.46"/><path d="M202.31,157.57a1.64,1.64,0,0,1-1.3-.67c-2.61-3.33,3-13.81,3.7-15l.29-.53,6,1.88-.28.75c-1.18,3.07-5.23,13.11-8.15,13.55Zm3.42-14.4c-2.24,4.2-5,11-3.54,12.8.09.11.12.1.14.1,1.35-.21,4.44-6.18,6.68-11.87Z"/><path class="cls-22" d="M222.55,146.5s-.11,11.23,4.5,12.93-.52-13.88-.52-13.88Z"/><path d="M227.69,160.31a2.71,2.71,0,0,1-.9-.17c-5-1.86-5-13.16-5-13.64v-.59l5.21-1.25.22.66c.94,2.87,3.85,12.4,1.66,14.51A1.66,1.66,0,0,1,227.69,160.31Zm-4.38-13.21c.05,3.32.83,10.46,4,11.63.27.1.46.11.55,0,1-1-.15-7-1.83-12.31Z"/><path class="cls-22" d="M213.94,145.18s-1.3,9.54,1.43,10.89,2.67-9.55,2.67-9.55Z"/><path d="M215.82,156.93a1.72,1.72,0,0,1-.78-.19c-3.07-1.51-2.07-10-1.84-11.66l.12-.89,5.46,1.78v.54c0,2.07-.11,8.91-2.14,10.18A1.57,1.57,0,0,1,215.82,156.93Zm-1.24-10.75c-.4,3.68-.31,8.51,1.12,9.21.1.06.13,0,.15,0,.85-.53,1.41-4.64,1.44-8.36Z"/><path class="cls-22" d="M204.26,143.18S217.07,149.92,221,149s6.31-2.91,6-4.24l-1.32-4.84-22-5Z"/><path d="M220.18,149.8c-4.79,0-15-5.31-16.27-6l-.37-.19-.68-9.69,23.45,5.3,1.45,5.28c.24,1-.36,2.08-1.67,3.05a13.79,13.79,0,0,1-4.87,2.11A4.77,4.77,0,0,1,220.18,149.8ZM205,142.71c3.76,1.94,13,6.23,15.89,5.53a12.33,12.33,0,0,0,4.33-1.85c.85-.63,1.17-1.21,1.1-1.48l-1.2-4.39-20.6-4.65Z"/><path class="cls-22" d="M218.06,133.58s-9.53-4.73-13.88.51a2.73,2.73,0,0,0-.72,1.92c.24,4.37,12.85,7.79,12.85,7.79s7.57,2.39,9.27-2.22S218.06,133.58,218.06,133.58Z"/><path d="M220.43,145.17a16.2,16.2,0,0,1-4.35-.66c-1.31-.35-13.11-3.69-13.37-8.45a3.45,3.45,0,0,1,.9-2.45c4.58-5.51,14-1.1,14.75-.72s9.82,3.81,7.92,9C225.3,144.51,222.74,145.17,220.43,145.17Zm-10.28-12.79a6.68,6.68,0,0,0-5.39,2.19,2,2,0,0,0-.55,1.4c.15,2.79,7.62,5.84,12.29,7.1.1,0,6.94,2.13,8.37-1.75s-7-7-7.07-7l-.07,0A20,20,0,0,0,210.15,132.38Z"/><path class="cls-12" d="M104.88,126.53c-2.16,2.34-2.6,6.57,0,8.48a20.19,20.19,0,0,1,2.65,1.69c1.26,1.3,1.1,3.41.53,5.13s-1.47,3.39-1.43,5.2a3.09,3.09,0,0,0,.77,2.11,4.45,4.45,0,0,0,2.87,1l4.9.4a6.22,6.22,0,0,0,2.11-.06,5,5,0,0,0,2-1.24c4-3.72,4.55-9.7,4.68-15.12.08-3.14.06-6.38-1.21-9.25a3.5,3.5,0,0,0-1.72-2c-.49-.2.17-.8-.36-.8C115.3,122.07,109,122.45,104.88,126.53Z"/><path d="M116.17,151.3c-.38,0-.75,0-1.1-.06l-4.9-.41a5.08,5.08,0,0,1-3.35-1.16,3.86,3.86,0,0,1-1-2.62,11,11,0,0,1,1-4.16c.17-.43.34-.86.48-1.3.3-.9.86-3.12-.36-4.37a5.56,5.56,0,0,0-1.34-.88,10.34,10.34,0,0,1-1.22-.73,5.24,5.24,0,0,1-2-3.81,7.74,7.74,0,0,1,2-5.78l0,0c4.08-4.08,10.24-4.68,16.28-4.72a.92.92,0,0,1,1,1,4.44,4.44,0,0,1,1.8,2.23c1.32,3,1.35,6.22,1.27,9.56-.14,5.87-.84,11.82-4.91,15.65a5.51,5.51,0,0,1-2.33,1.42A5,5,0,0,1,116.17,151.3Zm-10.75-24.25a6.27,6.27,0,0,0-1.56,4.62,3.69,3.69,0,0,0,1.43,2.73,6.71,6.71,0,0,0,1,.61,6.81,6.81,0,0,1,1.72,1.17c1.26,1.29,1.52,3.44.7,5.89-.15.45-.32.91-.5,1.36a9.62,9.62,0,0,0-.89,3.58,2.41,2.41,0,0,0,.55,1.6,3.81,3.81,0,0,0,2.4.73l4.9.4a5.43,5.43,0,0,0,1.85,0,4.09,4.09,0,0,0,1.69-1.06c3.68-3.45,4.31-9.06,4.44-14.59.08-3.17,0-6.23-1.14-8.93a2.77,2.77,0,0,0-1.32-1.59,1,1,0,0,1-.64-.74C114.89,122.85,109.17,123.31,105.42,127.05Z"/><path class="cls-7" d="M108.62,126.37a7.44,7.44,0,0,0-2.54,2.57,3.31,3.31,0,0,0,.1,3.46c1.18,1.56,3.75,1.35,5.06,2.81a4.3,4.3,0,0,1,.56,4,36.06,36.06,0,0,0-1.22,4,6.32,6.32,0,0,0,7.74,7.08,15.18,15.18,0,0,0,3.7-1.72c2.81-1.55,5.89-2.78,8.11-5.09s3.24-6.22,1.22-8.71-6-2.86-6.82-5.82c-.51-2,.73-4.38-.61-5.9a3.55,3.55,0,0,0-1.5-.91C118.11,120.61,112.13,124,108.62,126.37Z"/><path d="M116.86,151.19a7.07,7.07,0,0,1-7-8.12,13.18,13.18,0,0,1,.74-2.55c.19-.53.37-1,.51-1.53.17-.66.48-2.29-.4-3.28a5,5,0,0,0-2.16-1.13,5.72,5.72,0,0,1-2.94-1.73,4,4,0,0,1-.17-4.26,8.23,8.23,0,0,1,2.78-2.84c4.16-2.83,10.06-5.89,14.48-4.34a4.22,4.22,0,0,1,1.81,1.11c1,1.15.87,2.63.75,3.94a6.86,6.86,0,0,0,0,2.27c.38,1.42,1.73,2.18,3.31,3.06a11.15,11.15,0,0,1,3.37,2.48c2.31,2.84,1.17,7.16-1.26,9.7a22.71,22.71,0,0,1-6.29,4.18c-.67.34-1.34.68-2,1l-.53.3a13.32,13.32,0,0,1-3.37,1.5A6.86,6.86,0,0,1,116.86,151.19Zm3.21-28.7c-3.79,0-8.38,2.69-11,4.5h0a6.74,6.74,0,0,0-2.3,2.3,2.57,2.57,0,0,0,0,2.65,4.39,4.39,0,0,0,2.22,1.22,6.14,6.14,0,0,1,2.79,1.55,5,5,0,0,1,.73,4.67c-.15.57-.35,1.12-.54,1.65a12,12,0,0,0-.66,2.26,5.57,5.57,0,0,0,6.82,6.24,11.79,11.79,0,0,0,3-1.35l.54-.3c.67-.37,1.35-.72,2-1.07a21.2,21.2,0,0,0,5.9-3.88c1.94-2,2.94-5.55,1.18-7.71a10.13,10.13,0,0,0-2.94-2.12c-1.72-1-3.49-1.95-4-4a7.93,7.93,0,0,1-.06-2.79c.1-1.15.2-2.15-.38-2.81a2.8,2.8,0,0,0-1.18-.69A6.39,6.39,0,0,0,120.07,122.49Z"/><path class="cls-12" d="M115.24,140.34a2.37,2.37,0,0,0,.34,1.14,2.28,2.28,0,0,0,.76.61,10.06,10.06,0,0,0,5,1.31,3.24,3.24,0,0,0,3.8-2.65c.83-3-.73-6.65-4.13-7.14C116.73,133,114.88,136.55,115.24,140.34Z"/><path d="M121.28,144.15a10.69,10.69,0,0,1-5.32-1.41,3,3,0,0,1-1-.82,3.08,3.08,0,0,1-.48-1.52,7.49,7.49,0,0,1,1.9-6.21,5.46,5.46,0,0,1,4.72-1.32,5.55,5.55,0,0,1,3.91,2.49,7,7,0,0,1,.85,5.59,5,5,0,0,1-.75,1.68,4.55,4.55,0,0,1-3.78,1.52Zm-1.22-9.86a3.68,3.68,0,0,0-2.64,1,6.11,6.11,0,0,0-1.43,5h0a1.65,1.65,0,0,0,.2.77,1.7,1.7,0,0,0,.52.4,9.27,9.27,0,0,0,4.62,1.21,3.26,3.26,0,0,0,2.59-.93,3.43,3.43,0,0,0,.5-1.16,5.42,5.42,0,0,0-.66-4.37,4,4,0,0,0-2.86-1.84A6.15,6.15,0,0,0,120.06,134.29Z"/><path d="M102.26,111.38a.73.73,0,0,1-.5-.19.75.75,0,0,1-.05-1.06l.76-.84a4.35,4.35,0,0,0,.78-1c0-.09.07-.18.1-.28l.07-.19a8.88,8.88,0,0,1,.78-1.54.74.74,0,0,1,1-.26.73.73,0,0,1,.26,1,8.44,8.44,0,0,0-.67,1.3l0,.16c0,.13-.09.26-.15.38a5.24,5.24,0,0,1-1,1.47l-.76.83A.77.77,0,0,1,102.26,111.38Z"/><path d="M103.32,112.1a.75.75,0,0,1-.39-1.39,5.31,5.31,0,0,0,2.48-3.93.75.75,0,1,1,1.49.15,6.85,6.85,0,0,1-3.19,5.06A.68.68,0,0,1,103.32,112.1Z"/><path d="M104.59,113.08a.75.75,0,0,1-.36-1.41,6.84,6.84,0,0,0,2.43-3.17l.77-1.53a.75.75,0,0,1,1-.34.76.76,0,0,1,.34,1l-.76,1.53A8.25,8.25,0,0,1,105,113,.65.65,0,0,1,104.59,113.08Z"/><path d="M111.08,123.21,108,114.82c-.65-1.77-2-2.94-3.39-4.23-.54-.51-2.35-.51-3.28-1.63,1.53-1.3,5.16-1.9,6-1.14a15.15,15.15,0,0,1,3.47,4,38,38,0,0,1,1.48,4.8,46.79,46.79,0,0,0,2.12,5.37c1.51,3.41,3.42,6.87,4.55,10.4-2.63.84-3.25.83-4.65-1.73A55.31,55.31,0,0,1,111.08,123.21Z"/><path d="M116.68,133.66c-1.26,0-2.05-.71-3.09-2.6a56.25,56.25,0,0,1-3.2-7.54l.69-.31-.7.26-3.08-8.39a9.71,9.71,0,0,0-2.83-3.59l-.37-.36a3.61,3.61,0,0,0-.79-.28,5,5,0,0,1-2.55-1.41l-.47-.57.56-.48c1.65-1.41,5.74-2.27,7-1.11l.42.39a13.73,13.73,0,0,1,3.21,3.88,21.12,21.12,0,0,1,1.12,3.43c.13.49.26,1,.4,1.47a45.27,45.27,0,0,0,2.09,5.28c.47,1.07,1,2.15,1.51,3.24a58.72,58.72,0,0,1,3.07,7.23l.22.71-.71.23A8.28,8.28,0,0,1,116.68,133.66ZM102.63,109a9,9,0,0,0,1.1.39,3.49,3.49,0,0,1,1.4.63l.37.35a11.23,11.23,0,0,1,3.21,4.17L111.8,123a54.39,54.39,0,0,0,3.11,7.34c1.06,1.95,1.38,2.11,3,1.6a66.28,66.28,0,0,0-2.76-6.33c-.52-1.1-1-2.19-1.53-3.27a49.11,49.11,0,0,1-2.14-5.46c-.15-.5-.29-1-.42-1.52a19.42,19.42,0,0,0-1-3.18,12.52,12.52,0,0,0-2.87-3.42l-.42-.4C106.33,108,104.14,108.27,102.63,109Z"/><path class="cls-17" d="M101.86,157.43a11.73,11.73,0,0,1-1.53-3,4,4,0,0,1,.38-3.28c.9-1.33,2.68-1.7,4.29-1.85a5,5,0,0,1,2.53.2,5.41,5.41,0,0,1,1.64,1.26l6.5,6.45a7.61,7.61,0,0,1,1.58,2,7.22,7.22,0,0,1,.46,3.49,3.05,3.05,0,0,1-.58,2,2.89,2.89,0,0,1-1.35.68c-2.7.76-5.87,1.59-8.1-.37A33.22,33.22,0,0,1,101.86,157.43Z"/><path d="M111.22,166.91a5.91,5.91,0,0,1-4-1.4,34,34,0,0,1-6-7.68h0a12.42,12.42,0,0,1-1.61-3.24,4.68,4.68,0,0,1,.48-3.9c1.1-1.62,3.16-2,4.83-2.18a5.82,5.82,0,0,1,2.9.26,6.09,6.09,0,0,1,1.88,1.42l6.5,6.45a8,8,0,0,1,1.72,2.17,7.77,7.77,0,0,1,.54,3.83,3.68,3.68,0,0,1-.79,2.52A3.51,3.51,0,0,1,116,166,17.87,17.87,0,0,1,111.22,166.91ZM102.49,157a32.7,32.7,0,0,0,5.68,7.35c1.84,1.61,4.44,1.05,7.41.22a2.39,2.39,0,0,0,1-.47,2.47,2.47,0,0,0,.38-1.54,6.62,6.62,0,0,0-.38-3.13,7.18,7.18,0,0,0-1.44-1.76l-6.5-6.45a5,5,0,0,0-1.41-1.1,4.56,4.56,0,0,0-2.16-.15c-1.35.13-3,.43-3.74,1.53a3.22,3.22,0,0,0-.28,2.66,11,11,0,0,0,1.44,2.84Z"/><path class="cls-23" d="M101.86,155.8a11.73,11.73,0,0,1-1.53-3,4,4,0,0,1,.38-3.28c.9-1.33,2.68-1.7,4.29-1.85a5,5,0,0,1,2.53.2,5.41,5.41,0,0,1,1.64,1.26l6.5,6.45a7.66,7.66,0,0,1,1.58,2,7.16,7.16,0,0,1,.46,3.48,3.1,3.1,0,0,1-.58,2,3,3,0,0,1-1.35.67c-2.7.76-5.87,1.59-8.1-.37A33.22,33.22,0,0,1,101.86,155.8Z"/><path d="M111.22,165.29a5.87,5.87,0,0,1-4-1.41,34,34,0,0,1-6-7.68h0A12.42,12.42,0,0,1,99.61,153a4.68,4.68,0,0,1,.48-3.9c1.1-1.62,3.16-2,4.83-2.18a5.81,5.81,0,0,1,2.9.26,6.09,6.09,0,0,1,1.88,1.42l6.5,6.45a8.17,8.17,0,0,1,1.72,2.17,7.79,7.79,0,0,1,.54,3.84,3.66,3.66,0,0,1-.79,2.51,3.51,3.51,0,0,1-1.68.88A17.87,17.87,0,0,1,111.22,165.29Zm-8.73-9.89a33,33,0,0,0,5.68,7.36c1.84,1.61,4.44,1.05,7.41.21a2.27,2.27,0,0,0,1-.47A2.47,2.47,0,0,0,117,161a6.62,6.62,0,0,0-.38-3.13,7.18,7.18,0,0,0-1.44-1.76l-6.5-6.45a5,5,0,0,0-1.41-1.1,4.56,4.56,0,0,0-2.16-.15c-1.35.13-3,.43-3.74,1.53a3.22,3.22,0,0,0-.28,2.66,11,11,0,0,0,1.44,2.84Z"/><path class="cls-23" d="M104.34,153.7a3.78,3.78,0,0,1,1.78-2.7,3.71,3.71,0,0,1,3.29.53,9.41,9.41,0,0,0,3.1,1.48l-1.77-3.17c-.22-.41-.45-.82-.68-1.23a3.55,3.55,0,0,0-.63-.9,2.47,2.47,0,0,0-1.61-.58,5.09,5.09,0,0,0-4.25,2.33,8.59,8.59,0,0,0-1.31,4.81c0,1.15.19,3.62,1.57,3.91C104.29,156.93,104,155.11,104.34,153.7Z"/><path d="M104.31,159.05l-.64-.13c-2-.43-2.17-3.4-2.16-4.66A9.33,9.33,0,0,1,103,149a5.77,5.77,0,0,1,4.9-2.66,3.16,3.16,0,0,1,2.09.78,4.42,4.42,0,0,1,.78,1.09L113.9,154l-1.5-.22a7.34,7.34,0,0,1-2.75-1.21c-.2-.13-.41-.25-.62-.37a2.31,2.31,0,0,0-4,1.7h0a9.87,9.87,0,0,0-.18,2,8.54,8.54,0,0,1-.36,2.61Zm3.35-11.17a4.39,4.39,0,0,0-3.47,2,7.89,7.89,0,0,0-1.18,4.39,6.88,6.88,0,0,0,.34,2.39c0-.28,0-.58,0-.88a10.7,10.7,0,0,1,.23-2.26h0a3.73,3.73,0,0,1,6.16-2.64l.66.39.37.23-1.4-2.52a2.84,2.84,0,0,0-.49-.72,1.75,1.75,0,0,0-1.13-.38Z"/><path class="cls-17" d="M119.9,167.86a9.1,9.1,0,0,0-2.48,1,8.9,8.9,0,0,0-3.06,2.44,4.28,4.28,0,0,0-.78,3.72c.57,1.81,2.5,2.77,4.25,3.48a16.31,16.31,0,0,0,5,1.4,28,28,0,0,0,5.08-.44c2.46-.27,4.94-.15,7.4-.36a13.25,13.25,0,0,0,6.94-2.28,4.81,4.81,0,0,0,1.68-2,4.18,4.18,0,0,0-1-4.2,7.51,7.51,0,0,0-3.94-2.1,40.2,40.2,0,0,0-4.5-.61c-2.44-.3-5-.9-7.39-.12S122.33,167.36,119.9,167.86Z"/><path d="M123.49,180.65l-.72,0a17.28,17.28,0,0,1-5.22-1.45c-2-.8-4-1.89-4.68-4a5,5,0,0,1,.89-4.39,11.66,11.66,0,0,1,6-3.7h0a11.63,11.63,0,0,1,3.63,0,8.62,8.62,0,0,0,3.52-.1,14.11,14.11,0,0,1,6.46-.09l1.25.17,1.29.15a25.34,25.34,0,0,1,3.29.48,8.2,8.2,0,0,1,4.33,2.33,4.91,4.91,0,0,1,1.1,5,5.58,5.58,0,0,1-1.92,2.36,13.91,13.91,0,0,1-7.34,2.43c-1.15.09-2.31.12-3.44.15-1.29,0-2.64.06-3.93.21l-1.38.17A21.28,21.28,0,0,1,123.49,180.65Zm-3.43-12.06a8.21,8.21,0,0,0-2.28.91,8,8,0,0,0-2.81,2.22,3.53,3.53,0,0,0-.67,3.05c.46,1.47,2.1,2.32,3.81,3a15.83,15.83,0,0,0,4.76,1.34,17.07,17.07,0,0,0,3.53-.25l1.42-.19c1.36-.15,2.74-.18,4.07-.21,1.1,0,2.24,0,3.35-.15a12.36,12.36,0,0,0,6.55-2.13,4.1,4.1,0,0,0,1.43-1.71,3.46,3.46,0,0,0-.82-3.43,6.66,6.66,0,0,0-3.55-1.87,23.6,23.6,0,0,0-3.1-.45l-1.32-.15-1.28-.17a12.66,12.66,0,0,0-5.78,0,9.89,9.89,0,0,1-4.15.16,10.81,10.81,0,0,0-3.16,0Z"/><path class="cls-23" d="M119.9,166.23a9.1,9.1,0,0,0-2.48,1,8.9,8.9,0,0,0-3.06,2.44,4.28,4.28,0,0,0-.78,3.72c.57,1.81,2.5,2.77,4.25,3.48a16.31,16.31,0,0,0,5,1.4,28,28,0,0,0,5.08-.44c2.46-.27,4.94-.15,7.4-.36a13.25,13.25,0,0,0,6.94-2.28,4.73,4.73,0,0,0,1.68-2,4.2,4.2,0,0,0-1-4.21,7.51,7.51,0,0,0-3.94-2.1,42.66,42.66,0,0,0-4.5-.61c-2.44-.3-5-.9-7.39-.12S122.33,165.73,119.9,166.23Z"/><path d="M123.49,179c-.24,0-.48,0-.72,0a17.28,17.28,0,0,1-5.22-1.45c-2-.8-4-1.89-4.68-4a5,5,0,0,1,.89-4.39,9.76,9.76,0,0,1,3.31-2.65,9.62,9.62,0,0,1,2.68-1.05,11.63,11.63,0,0,1,3.63,0,8.45,8.45,0,0,0,3.52-.1,14.11,14.11,0,0,1,6.46-.09l1.25.18,1.29.14a25.34,25.34,0,0,1,3.29.48,8.16,8.16,0,0,1,4.33,2.33,4.91,4.91,0,0,1,1.1,5,5.58,5.58,0,0,1-1.92,2.36,13.83,13.83,0,0,1-7.34,2.43c-1.15.1-2.31.12-3.44.15-1.29,0-2.64.06-3.93.21l-1.38.17A21.28,21.28,0,0,1,123.49,179Zm-2.17-12.17a5.85,5.85,0,0,0-1.26.12h0a8.14,8.14,0,0,0-2.28.9,8,8,0,0,0-2.81,2.22,3.53,3.53,0,0,0-.67,3c.46,1.48,2.1,2.32,3.81,3a15.83,15.83,0,0,0,4.76,1.34,17.07,17.07,0,0,0,3.53-.25l1.42-.19c1.36-.14,2.74-.18,4.07-.21,1.1,0,2.24,0,3.35-.15a12.36,12.36,0,0,0,6.55-2.13,4,4,0,0,0,1.43-1.71,3.44,3.44,0,0,0-.82-3.42,6.61,6.61,0,0,0-3.55-1.88,23.76,23.76,0,0,0-3.11-.45l-1.31-.15-1.28-.17a12.66,12.66,0,0,0-5.78,0,9.89,9.89,0,0,1-4.15.16A17.84,17.84,0,0,0,121.32,166.85Z"/><path class="cls-23" d="M131.79,162.86a4.53,4.53,0,0,1,3.3.77,4.82,4.82,0,0,1,1.37,2.32A16.42,16.42,0,0,1,136,177.4l-3.39.2c-.41,0-.91,0-1.14-.33a1.24,1.24,0,0,1-.13-.69,31.94,31.94,0,0,1,.57-5.34c.25-1.34.57-2.84-.17-4a3.37,3.37,0,0,0-2.57-1.39,18.49,18.49,0,0,0-2.89.28C126.06,164.2,130.36,163,131.79,162.86Z"/><path d="M132.33,178.36a1.72,1.72,0,0,1-1.52-.68,2,2,0,0,1-.25-1.11,33.51,33.51,0,0,1,.58-5.47l0-.12c.23-1.21.47-2.45-.08-3.32a2.64,2.64,0,0,0-2-1,6.32,6.32,0,0,0-1.6.13c-.39.06-.78.12-1.18.15l-.72,0-.07-.72a2.22,2.22,0,0,1,.57-1.67c1.32-1.59,4.65-2.36,5.65-2.44h0a5.17,5.17,0,0,1,3.85.94,5.64,5.64,0,0,1,1.61,2.67,17.19,17.19,0,0,1-.52,12l-.19.43-3.84.23Zm-3.57-13.25a3.24,3.24,0,0,1,.44,0,4.06,4.06,0,0,1,3.14,1.72c.88,1.37.56,3.06.3,4.41l0,.12a32.54,32.54,0,0,0-.55,5.22,2.35,2.35,0,0,0,0,.26,1.61,1.61,0,0,1,.25,0h.22l2.91-.18a15.68,15.68,0,0,0,.3-10.49,4.3,4.3,0,0,0-1.13-2,3.76,3.76,0,0,0-2.77-.61,10,10,0,0,0-4.34,1.62A8.42,8.42,0,0,1,128.76,165.11Z"/><path class="cls-7" d="M148.69,159.12a2.39,2.39,0,0,0-1-.36,8.29,8.29,0,0,0-2-.28,8.41,8.41,0,0,0-3.07.9l-1.56.69,2,2.61a6,6,0,0,0,1.21,1.31,5.41,5.41,0,0,0,2.69.88,1.71,1.71,0,0,0,1-.11c1.28-.72,0-2.27.23-3.17S150.13,160.17,148.69,159.12Z"/><path d="M147.33,165.64a2.81,2.81,0,0,1-.45,0,6.16,6.16,0,0,1-3-1,7.38,7.38,0,0,1-1.36-1.46l-2.58-3.37,2.43-1.07a9.07,9.07,0,0,1,3.35-1,8.94,8.94,0,0,1,2.22.3,3.11,3.11,0,0,1,1.24.48h0a1.87,1.87,0,0,1,.86,1.3,2.08,2.08,0,0,1-.77,1.57,1.77,1.77,0,0,0-.33.4,2.59,2.59,0,0,0,.15.77c.2.74.59,2.12-.74,2.86A1.92,1.92,0,0,1,147.33,165.64Zm-5.09-5.27,1.42,1.85a5.45,5.45,0,0,0,1.06,1.17,4.79,4.79,0,0,0,2.32.73,1.18,1.18,0,0,0,.53,0c.23-.12.28-.24,0-1.15a3,3,0,0,1-.15-1.54,2.54,2.54,0,0,1,.69-1.07,2.18,2.18,0,0,0,.36-.42s-.09-.08-.25-.2h0a2.23,2.23,0,0,0-.69-.23,7.49,7.49,0,0,0-1.84-.26,7.85,7.85,0,0,0-2.8.84Z"/><path d="M157.45,168.84a1.18,1.18,0,0,1-.26,0,2.23,2.23,0,0,1-1.41-1.06,2,2,0,0,0-.45-.49,1.7,1.7,0,0,0-.88,0,5,5,0,0,1-.54.06,3.82,3.82,0,0,1-3.88-2.89,4.3,4.3,0,0,1-.09-.47,2.53,2.53,0,0,0-.11-.47c-1.45-.48-2.32-.84-2.16-1.66s1.25-.81,2.4-.74a4.07,4.07,0,0,0,1.44-.69,4.42,4.42,0,0,1,2.37-.91,2.78,2.78,0,0,1,2.45,2c0,.22.08.43.11.65a2.7,2.7,0,0,0,.07.41,1.49,1.49,0,0,0,.65.9,3.87,3.87,0,0,0,1.09.38,8.1,8.1,0,0,1,1,.28,2.31,2.31,0,0,1,1.61,2.65l-.22.67-.68-.17c-.12,0-.48.33-.68.55A2.62,2.62,0,0,1,157.45,168.84ZM155,165.71a2.07,2.07,0,0,1,1,.24,3,3,0,0,1,.94.92c.16.21.34.45.45.47s.48-.32.72-.57a3.67,3.67,0,0,1,1.09-.87,1.48,1.48,0,0,0-.57-.39,5,5,0,0,0-.78-.22,5.13,5.13,0,0,1-1.52-.56,3,3,0,0,1-1.32-1.82,5.4,5.4,0,0,1-.1-.58,3.11,3.11,0,0,0-.07-.44,1.28,1.28,0,0,0-1.1-.9h0a4.18,4.18,0,0,0-1.49.7,9.08,9.08,0,0,1-1.4.74,2.24,2.24,0,0,1,.53,1.29c0,.12,0,.25.07.37a2.35,2.35,0,0,0,2.33,1.73l.43,0A5.86,5.86,0,0,1,155,165.71Z"/><path class="cls-24" d="M184.85,176.62a2.62,2.62,0,0,0-.9-1,2.32,2.32,0,0,0-1.2-.18,19.21,19.21,0,0,0-4.54,1l-6.87,2.13a18.51,18.51,0,0,0-4.38,1.76c-.6.37-1.22.95-1.1,1.64a2,2,0,0,0,.4.78,48.19,48.19,0,0,0,6.76,8c2,1.76,4.44,3.24,7.08,3.11s4.92-1.85,6.88-3.62a41.34,41.34,0,0,1,3.78-3.21c1.42-1,2.62-1.5,1.22-3C189.63,181.45,186.88,179.61,184.85,176.62Z"/><path d="M179.77,194.67c-2.34,0-4.77-1.11-7.24-3.31a48.67,48.67,0,0,1-6.87-8.14,2.59,2.59,0,0,1-.54-1.09,2.44,2.44,0,0,1,1.45-2.41,19.48,19.48,0,0,1,4.55-1.84l6.87-2.12a19.38,19.38,0,0,1,4.72-1,2.86,2.86,0,0,1,1.59.27,3.34,3.34,0,0,1,1.16,1.18l0,0a26,26,0,0,0,4.21,4.55c.95.88,1.93,1.78,2.85,2.79a2.46,2.46,0,0,1,.8,1.89c-.11.89-.89,1.41-1.72,2l-.43.29a30.81,30.81,0,0,0-3,2.5l-.72.66c-2,1.8-4.43,3.66-7.35,3.81ZM183,176.21h-.24a18.42,18.42,0,0,0-4.36,1l-6.87,2.12a18.82,18.82,0,0,0-4.21,1.69c-.49.3-.79.65-.75.87a1.36,1.36,0,0,0,.27.47,48.33,48.33,0,0,0,6.65,7.9c2.3,2,4.49,3,6.55,2.92,2.44-.13,4.61-1.8,6.41-3.42l.72-.65a29.61,29.61,0,0,1,3.13-2.63l.45-.3c.44-.3,1.05-.71,1.07-.91,0,0,0-.22-.42-.7-.87-1-1.83-1.84-2.75-2.69a27.88,27.88,0,0,1-4.45-4.82v0a2.3,2.3,0,0,0-.62-.7A1.26,1.26,0,0,0,183,176.21Z"/><path class="cls-25" d="M180.9,188.37a6.63,6.63,0,0,0-2.67,1.42,2.39,2.39,0,0,0-.57,2.77,3.73,3.73,0,0,0,3.14,1.56,15.31,15.31,0,0,0,3.95-1.06c1.6-.5,3.12-1.26,4.76-1.6,1.85-.39,4-.34,5.25-1.78-1.13-.07-2.07-.25-2.41-1.34a2.53,2.53,0,0,1,.57-2.88C191.69,183.87,182.79,187.73,180.9,188.37Z"/><path d="M180.73,194.87a4.5,4.5,0,0,1-3.72-1.93,3.16,3.16,0,0,1,.69-3.68,7.12,7.12,0,0,1,3-1.6h0c.31-.11.82-.3,1.45-.55,6.51-2.51,10.25-3.59,11.41-2.11l.49.63-.67.45c-.45.3-.56,1.14-.28,2,.18.55.57.73,1.75.81l1.49.09-1,1.14c-1.13,1.33-2.87,1.59-4.41,1.82-.43.06-.86.12-1.27.21a18.24,18.24,0,0,0-2.8.91c-.62.24-1.25.47-1.88.67-.35.11-.69.23-1,.35a10.16,10.16,0,0,1-3.14.74Zm.41-5.79a6,6,0,0,0-2.38,1.23,1.69,1.69,0,0,0-.45,1.88,3,3,0,0,0,2.48,1.17,8.84,8.84,0,0,0,2.66-.65c.36-.13.72-.26,1.08-.37.61-.19,1.2-.42,1.79-.64a19.87,19.87,0,0,1,3-1c.44-.09.9-.16,1.36-.23a11.56,11.56,0,0,0,2.17-.45,2.34,2.34,0,0,1-1.25-1.47,3.81,3.81,0,0,1,.07-2.78c-1.07,0-3.56.6-9,2.72-.66.26-1.19.46-1.51.57Z"/><path d="M177.71,190.63a68,68,0,0,1-10.29-9.85l1.15-1a66.34,66.34,0,0,0,10.05,9.63Z"/><path class="cls-7" d="M198.54,175.93a1,1,0,0,0-.14-.45,1,1,0,0,0-.42-.28l-8.71-3.78a10.77,10.77,0,0,0-2.81-.92,3.66,3.66,0,0,0-2.81.64,1.6,1.6,0,0,0-.57.79,2.07,2.07,0,0,0-.05.7l.43,9.62a2.58,2.58,0,0,0,.68,2,2.88,2.88,0,0,0,1.57.41,28.39,28.39,0,0,1,6,1.44c1.69.52,4.19.44,5.85,1.2,2.27,1,1.41-2.85,1.41-4.3A52.13,52.13,0,0,0,198.54,175.93Z"/><path d="M198.25,188.23a2.44,2.44,0,0,1-1-.24,11.78,11.78,0,0,0-3.16-.7,15.8,15.8,0,0,1-2.6-.47l-.46-.15a26,26,0,0,0-5.4-1.26h-.11a2.66,2.66,0,0,1-2.83-3.11l-.42-9.62a2.82,2.82,0,0,1,.06-.94,2.38,2.38,0,0,1,.83-1.18,4.38,4.38,0,0,1,3.39-.8,11.49,11.49,0,0,1,3,1l8.7,3.77a1.69,1.69,0,0,1,.73.53,1.71,1.71,0,0,1,.28.79h0a52.11,52.11,0,0,1,.46,7.17c0,.27,0,.62.07,1,.13,1.53.27,3.26-.72,4A1.4,1.4,0,0,1,198.25,188.23Zm-12.44-17a2.68,2.68,0,0,0-1.69.52.87.87,0,0,0-.32.41,2.22,2.22,0,0,0,0,.47l.43,9.62c0,.56.08,1.19.4,1.44a2,2,0,0,0,1,.24h.11a27.07,27.07,0,0,1,5.72,1.33l.47.14a14.89,14.89,0,0,0,2.34.43,12.88,12.88,0,0,1,3.6.81.84.84,0,0,0,.36.11,7,7,0,0,0,.05-2.59c0-.44-.07-.85-.07-1.15a50.63,50.63,0,0,0-.45-7h0a.31.31,0,0,0,0-.09l-.1-.05-8.7-3.78a10.21,10.21,0,0,0-2.62-.87A3.48,3.48,0,0,0,185.81,171.2Z"/><path class="cls-25" d="M190.74,182.85c-1.41-1-2.85-2.15-5-1.26a3.33,3.33,0,0,0-1.73,1.77,1.65,1.65,0,0,0-.18,1,.64.64,0,0,0,.06.16,5.11,5.11,0,0,0,2.09,2.13l10.79,5.72a.1.1,0,0,0,.14-.11c-.2-.72-1.23-2-.78-2.91a2.28,2.28,0,0,1,2-1.4c1.65-.18-1-1.11-1.61-1.45A48.92,48.92,0,0,1,190.74,182.85Z"/><path d="M196.84,193.13a.86.86,0,0,1-.41-.1l-10.78-5.71a5.88,5.88,0,0,1-2.43-2.49c0-.1-.07-.19-.1-.29a2.29,2.29,0,0,1,.22-1.47,4.08,4.08,0,0,1,2.13-2.17c2.44-1,4.18.23,5.57,1.25l.14.1a48.67,48.67,0,0,0,5.76,3.59l.53.24c1.19.53,2.13.94,2,1.77s-.93.82-1.2.84a1.57,1.57,0,0,0-1.45,1c-.16.33.18,1,.43,1.49a5.22,5.22,0,0,1,.39.9.84.84,0,0,1-.28.89A.89.89,0,0,1,196.84,193.13Zm.3-1.42ZM187.26,182a3.1,3.1,0,0,0-1.2.26,2.57,2.57,0,0,0-1.34,1.37,1.39,1.39,0,0,0-.14.53,4.39,4.39,0,0,0,1.81,1.83l9.07,4.81a2.36,2.36,0,0,1,0-1.79,3,3,0,0,1,1.49-1.54l-.1,0a6.49,6.49,0,0,1-.62-.29,50,50,0,0,1-6-3.7l-.14-.1A5,5,0,0,0,187.26,182Z"/><path d="M186.09,181a74.18,74.18,0,0,0-.55-7.47l-.29-2.69,1.5-.16.28,2.69a73.64,73.64,0,0,1,.56,7.62Z"/><path d="M199.13,220.57a6.36,6.36,0,0,0-3.15,3.58c-.72,2.4.57,5,2.52,6.61a16.22,16.22,0,0,0,6.9,2.77,22.4,22.4,0,0,0,4.68.61,13.65,13.65,0,0,0,9.26-3.61,7.21,7.21,0,0,0,2.08-3,3.71,3.71,0,0,0-.58-3.5,5.33,5.33,0,0,0-1.69-1.19C213.17,219.75,205.56,217.12,199.13,220.57Z"/><path d="M210.13,234.89h0a22.88,22.88,0,0,1-4.84-.63,16.94,16.94,0,0,1-7.21-2.92c-2-1.6-3.63-4.51-2.77-7.4a7.08,7.08,0,0,1,3.52-4h0c5.38-2.89,12.15-2.15,20.71,2.25a6.05,6.05,0,0,1,1.92,1.37,4.47,4.47,0,0,1,.73,4.21,7.73,7.73,0,0,1-2.29,3.34A14.43,14.43,0,0,1,210.13,234.89Zm-4.24-15.2a13.37,13.37,0,0,0-6.4,1.54h0a5.59,5.59,0,0,0-2.79,3.14c-.66,2.21.71,4.56,2.27,5.8a15.62,15.62,0,0,0,6.59,2.63,22.37,22.37,0,0,0,4.52.59,13,13,0,0,0,8.75-3.41,6.34,6.34,0,0,0,1.87-2.69,3,3,0,0,0-.43-2.78,4.63,4.63,0,0,0-1.46-1C213.87,221,209.59,219.69,205.89,219.69Z"/><path d="M208.94,163.26l-1.27,63.38a17.94,17.94,0,0,0,2.54-.28c0-.85.47-61.91.47-62.76Z"/><path d="M207.67,227.39h-.77l1.31-65,3.22.64v.61c0,.43-.11,15.47-.23,31.39-.12,15.21-.24,30.95-.24,31.37V227l-.63.1A17.53,17.53,0,0,1,207.67,227.39Zm2-63.22-1.24,61.68,1-.13c0-3.08.12-16.56.23-30.74.1-13.63.21-27.68.23-30.76Z"/><path class="cls-18" d="M194.78,176.54,205.35,178c6.3.85,13.34,1.53,18.42-2.3l-4-20.94a6,6,0,0,0-1.49-3.48,5.17,5.17,0,0,0-1.62-.91c-4.62-1.87-14.84-4.78-16.53,1.68C198,160.08,196.55,168.39,194.78,176.54Z"/><path d="M213.2,179.38a61.46,61.46,0,0,1-7.95-.66l-11.38-1.54.18-.8c.6-2.76,1.16-5.54,1.73-8.32,1.08-5.35,2.2-10.88,3.6-16.23a5.49,5.49,0,0,1,2.93-3.69c4.51-2.26,12.32.58,14.6,1.5a6.53,6.53,0,0,1,1.85,1.05,6.73,6.73,0,0,1,1.72,3.89L224.6,176l-.38.28C221.06,178.65,217.23,179.38,213.2,179.38Zm-17.51-3.47,9.76,1.32c6.27.85,12.77,1.39,17.49-1.88L219,154.87a5.35,5.35,0,0,0-1.26-3.06,4.53,4.53,0,0,0-1.4-.77c-4.41-1.79-10.23-3.13-13.37-1.56a4,4,0,0,0-2.15,2.73c-1.39,5.31-2.5,10.82-3.58,16.15C196.73,170.88,196.22,173.4,195.69,175.91Z"/><path d="M203.27,177.73v8.81a3.91,3.91,0,0,0-1.53.61,1.77,1.77,0,0,0-.63,1.46,1.62,1.62,0,0,0,.8,1.18,2.6,2.6,0,0,0,1.42.34,2.73,2.73,0,0,0,1.68-.57,1.83,1.83,0,0,0,.69-1.6,2,2,0,0,0-1.1-1.44,4.75,4.75,0,0,0-1.82-.46"/><path d="M203.24,190.88a3.24,3.24,0,0,1-1.72-.45,2.38,2.38,0,0,1-1.16-1.73,2.53,2.53,0,0,1,.87-2.11,2.9,2.9,0,0,1,1.29-.62v-8.24H204v7.77a4.07,4.07,0,0,1,.93.36,2.72,2.72,0,0,1,1.49,2,2.56,2.56,0,0,1-.95,2.27,3.5,3.5,0,0,1-2.14.74Zm.78-3.8h0l-.52.17-.46.13a2.15,2.15,0,0,0-.8.32,1.08,1.08,0,0,0-.39.83.91.91,0,0,0,.45.62,1.86,1.86,0,0,0,1,.23,2,2,0,0,0,1.23-.4,1.09,1.09,0,0,0,.42-.92,1.31,1.31,0,0,0-.71-.88Z"/><path class="cls-18" d="M200.77,151.49c.24.61,1.06.75,1.68.95,5.05,1.6,10.63,2.47,15.58.59a1.2,1.2,0,0,0,.54-.33c.23-.29.68-.63.45-.91a3.05,3.05,0,0,0-.7-.69c-2-1.4-5.55-3.48-9-3.48C207.74,147.62,199.56,148.32,200.77,151.49Z"/><path d="M211.86,154.84a32.06,32.06,0,0,1-9.63-1.69l-.28-.08a2.51,2.51,0,0,1-1.88-1.32,2.22,2.22,0,0,1,.24-2.15c1.76-2.57,8.91-2.73,9-2.73,2.75,0,5.93,1.21,9.46,3.61a3.39,3.39,0,0,1,.85.84c.58.72-.08,1.45-.3,1.68l-.13.16a2,2,0,0,1-.87.57A18,18,0,0,1,211.86,154.84Zm-2.57-6.47c-1.8,0-6.74.62-7.75,2.08a.78.78,0,0,0-.07.77h0c.07.17.57.32.9.41l.31.09c6.11,1.94,11,2.14,15.09.61a.91.91,0,0,0,.22-.11l.2-.23h0a1.52,1.52,0,0,0-.3-.26C214.63,149.5,211.73,148.37,209.29,148.37Z"/><path class="cls-10" d="M100.92,51.81a27.26,27.26,0,0,1-4.1,3.93C89.7,60.63,77.28,72.2,76.57,71.93a4.39,4.39,0,0,1,1.18-2.08c.16-.24.08-.2,0-.47s-.31-.35-.47-.47a19.31,19.31,0,0,1-4.22-4.73A9.08,9.08,0,0,0,71.15,62a2.58,2.58,0,0,0-2.35-.37A223.76,223.76,0,0,0,100.92,51.81Z"/><path d="M76.62,72.71a.88.88,0,0,1-.32-.07l-.59-.23.13-.62a4,4,0,0,1,1-2l.16-.21-.09-.07a17.46,17.46,0,0,1-4-4.34l-.69-.93a6.87,6.87,0,0,0-1.48-1.66,2,2,0,0,0-1.22-.38l-.54.12-.43-1.43a3.2,3.2,0,0,1,.74-.18,222.87,222.87,0,0,0,31.37-9.64l3.2-1.26-2.38,2.48c-.37.37-.71.74-1,1.08a18.53,18.53,0,0,1-3.18,3c-3.8,2.6-9.12,7.13-13.39,10.76C78.3,71.85,77.22,72.71,76.62,72.71Zm-4.68-11a9.35,9.35,0,0,1,1.48,1.73l.68.93a16.32,16.32,0,0,0,3.61,4,1.71,1.71,0,0,1,.75.85,1.26,1.26,0,0,1,.12.46c1.21-1,2.78-2.33,4.31-3.63,4.3-3.66,9.64-8.21,13.51-10.86a12.53,12.53,0,0,0,1.71-1.44A224.64,224.64,0,0,1,71.94,61.67Z"/><path class="cls-26" d="M13.7,189.39c-1.89-10-.22-19.36,1.45-29.93.72-4.55,1.63-9.5,5-13a22.29,22.29,0,0,1,5.24-3.7,162,162,0,0,1,29-12.77c1.11-.37,2.42-.68,3.2,0a3,3,0,0,1,.71,1.82,62.73,62.73,0,0,1,.6,10.38,121.37,121.37,0,0,1-27,30.47,9.18,9.18,0,0,1-2.29,1.51c-2.59,1.05-5-.5-7.4-1.43s-6-.63-7,2a5.91,5.91,0,0,0,.11,3.31,24.23,24.23,0,0,1,.59,8.22C15.8,187.62,15,189.25,13.7,189.39Z"/><path d="M13.09,190.22l-.12-.69c-1.83-9.65-.36-18.86,1.19-28.61l.25-1.57c.79-5,1.79-9.87,5.2-13.38A23.15,23.15,0,0,1,25,142.14a162.91,162.91,0,0,1,29.1-12.84c1.35-.44,2.89-.77,3.94.19a3.61,3.61,0,0,1,.94,2.27,63,63,0,0,1,.61,10.49v.21l-.11.17A123.23,123.23,0,0,1,32.37,173.3a10.14,10.14,0,0,1-2.49,1.62c-2.42,1-4.7,0-6.71-.9-.42-.18-.83-.37-1.25-.53a6.15,6.15,0,0,0-4.49,0,2.71,2.71,0,0,0-1.51,1.57,5,5,0,0,0,.09,2.72l0,.17a24.65,24.65,0,0,1,.6,8.44c-.13,1.68-1.19,3.57-2.86,3.76Zm43.2-59.85a6.07,6.07,0,0,0-1.71.36,161.49,161.49,0,0,0-28.82,12.71A22.1,22.1,0,0,0,20.69,147c-3.11,3.2-4,7.77-4.8,12.57l-.25,1.57c-1.54,9.7-2.88,18.12-1.37,27.16a3.42,3.42,0,0,0,.89-2.05,23.47,23.47,0,0,0-.58-8l0-.16a6.28,6.28,0,0,1,0-3.55,4.14,4.14,0,0,1,2.3-2.42,7.58,7.58,0,0,1,5.66,0c.43.16.86.35,1.3.54,1.91.84,3.71,1.63,5.55.89a8.92,8.92,0,0,0,2.1-1.4A121.87,121.87,0,0,0,58.12,142,60.92,60.92,0,0,0,57.51,132a2.49,2.49,0,0,0-.46-1.37A1.13,1.13,0,0,0,56.29,130.37Z"/><path class="cls-27" d="M124.93,203.82c1.29.49,2.84-.51,4.29-.75,2.93-.49,5.4,2.13,8.3,1.33a9.07,9.07,0,0,0,3.8-2.76,30.53,30.53,0,0,0,5.06-6.2c.62-1.11,1.08-2.28,1.73-3.37.83-1.4,1.94-2.64,2.74-4s1.27-3.13.67-4.45c-.9-2-3.58-2.1-5.84-2l-11.57.46c-5,.19-7.29,2.39-6.26,6.95S128.14,199.59,124.93,203.82Z"/><path d="M136.37,205.31a10,10,0,0,1-3.42-.82,7.09,7.09,0,0,0-3.6-.68,9.5,9.5,0,0,0-1.39.39,4.88,4.88,0,0,1-3.3.32l-.93-.36.6-.8c3.19-4.2,3.7-10.17,2.79-14.23-.52-2.29-.26-4.12.76-5.45,1.14-1.48,3.22-2.3,6.2-2.41l11.57-.46c1.6-.06,5.33-.21,6.55,2.45.63,1.37.37,3.24-.7,5.13a23.89,23.89,0,0,1-1.47,2.19c-.46.64-.9,1.23-1.27,1.87s-.63,1.16-.93,1.79-.51,1-.8,1.56a31,31,0,0,1-5.17,6.36,9.81,9.81,0,0,1-4.14,3A5.34,5.34,0,0,1,136.37,205.31ZM130,202.26a10,10,0,0,1,3.49.82,6.29,6.29,0,0,0,3.85.6,8.62,8.62,0,0,0,3.46-2.56,30,30,0,0,0,4.94-6.05c.28-.49.52-1,.76-1.49s.61-1.27,1-1.89a23.91,23.91,0,0,1,1.35-2,23,23,0,0,0,1.38-2,4.47,4.47,0,0,0,.64-3.77c-.71-1.55-3.12-1.66-5.13-1.57l-11.57.45c-2.51.1-4.22.72-5.07,1.84-.74,1-.9,2.37-.49,4.21a20,20,0,0,1-2.27,14.32,10.8,10.8,0,0,0,1.17-.35,9.69,9.69,0,0,1,1.62-.45A5.3,5.3,0,0,1,130,202.26Z"/><path class="cls-28" d="M56.83,143.37C69.41,151.18,82,159,95.6,165.21c3.69,1.68,7.45,3.25,11.09,5C114.25,174,143.06,187.1,144,187s-1,2.58-.92,6.17c-10.52,2.19-19.56,10.05-29.05,16a189.55,189.55,0,0,1-19.4,10.16,7.53,7.53,0,0,1-2.57.87,6.16,6.16,0,0,1-3.14-.87q-34.65-17-67.44-37.1c-2.84-1.74-7.29-3.79-6.8-8.76S12.27,164,28.35,163.05c5.47-.32,9.51-6.8,14.32-10.11C44.2,151.88,55.9,142.8,56.83,143.37Z"/><path d="M91.81,220.9a7.21,7.21,0,0,1-3.19-1c-23-11.32-45.74-23.82-67.5-37.13-.28-.18-.57-.35-.88-.53-2.86-1.68-6.77-4-6.28-8.94A19.25,19.25,0,0,0,14,171.2c0-4.87.94-8.11,14.29-8.9,3.32-.19,6.13-2.91,9.1-5.78a40.12,40.12,0,0,1,4.83-4.2c.32-.22,1.07-.78,2.06-1.52,11.21-8.38,12.18-8.53,12.93-8.06,12.35,7.67,25.13,15.6,38.69,21.79,1.31.6,2.63,1.18,4,1.77,2.35,1,4.79,2.11,7.14,3.27,8.17,4,34.94,16.17,37,16.64a.94.94,0,0,1,.79.32c.41.49.21,1.11-.13,2.13a13.65,13.65,0,0,0-.84,4.46v.62l-.61.12c-7.74,1.62-14.83,6.47-21.7,11.17-2.32,1.58-4.71,3.23-7.11,4.72A192.48,192.48,0,0,1,95,220a8.51,8.51,0,0,1-2.83.94ZM56.62,144.13c-1.53.47-8.68,5.82-11.42,7.87-1,.76-1.78,1.33-2.1,1.55a40.09,40.09,0,0,0-4.65,4c-3,2.94-6.17,6-10.05,6.2-12.92.76-12.9,3.68-12.88,7.39a20,20,0,0,1-.07,2.3c-.39,4,2.77,5.86,5.55,7.5.31.18.62.36.9.54,21.72,13.29,44.39,25.76,67.38,37.06a5.27,5.27,0,0,0,2.75.8,7,7,0,0,0,2.31-.8,192.32,192.32,0,0,0,19.32-10.11c2.37-1.48,4.75-3.11,7.06-4.69,6.81-4.66,13.85-9.48,21.65-11.27a15.63,15.63,0,0,1,.91-4.33c.06-.2.14-.44.2-.63-4.91-1.55-33.55-14.9-37.12-16.65-2.32-1.14-4.75-2.21-7.09-3.24l-4-1.78C81.72,159.69,69,151.79,56.62,144.13Zm87.43,43.57a.14.14,0,0,0,.09,0A.14.14,0,0,1,144.05,187.7ZM56.44,144Z"/><path class="cls-29" d="M57.32,137c12.58,7.81,25.2,15.64,38.77,21.84,3.69,1.68,7.45,3.24,11.09,5,7.56,3.71,14.54,8.34,21.5,13l14.92,9.92c-10.53,2.19-19.56,10.05-29,16a191.56,191.56,0,0,1-19.4,10.16,8.06,8.06,0,0,1-2.57.87,6,6,0,0,1-3.14-.88q-34.65-17-67.44-37.1c-2.84-1.74-9.15-4-6.69-8.64,2.1-3.93,10-7.89,13.53-10.47q7.11-5.14,14.32-10.12C44.69,145.46,56.39,136.38,57.32,137Z"/><path d="M92.3,214.49a7.3,7.3,0,0,1-3.2-1c-23-11.32-45.73-23.82-67.49-37.14-.44-.26-1-.54-1.52-.85-3.13-1.68-7.86-4.23-5.44-8.78,1.63-3.06,6.38-6,10.2-8.42,1.35-.84,2.62-1.63,3.55-2.31,4.72-3.41,9.54-6.82,14.33-10.13.32-.21,1.06-.77,2.06-1.52C56,136,57,135.86,57.72,136.32h0C70.07,144,82.85,151.93,96.4,158.11c1.31.6,2.64,1.19,4,1.77,2.35,1,4.79,2.12,7.15,3.27,7.61,3.74,14.71,8.46,21.58,13l16.42,10.9-1.76.37c-7.74,1.61-14.84,6.47-21.7,11.17-2.32,1.58-4.71,3.22-7.11,4.72a192.57,192.57,0,0,1-19.47,10.2,8.28,8.28,0,0,1-2.83.93ZM57.11,137.71c-1.53.48-8.68,5.82-11.42,7.87-1,.77-1.79,1.34-2.11,1.56-4.78,3.3-9.59,6.7-14.3,10.11-1,.7-2.26,1.51-3.63,2.36-3.67,2.3-8.23,5.15-9.68,7.86-1.59,3,1.12,4.75,4.83,6.75.59.32,1.13.61,1.59.89,21.72,13.3,44.39,25.77,67.38,37.07a5.27,5.27,0,0,0,2.75.8,7.1,7.1,0,0,0,2.3-.8,189.47,189.47,0,0,0,19.33-10.11c2.36-1.48,4.75-3.11,7-4.69,6.49-4.44,13.19-9,20.55-11l-13.49-9c-6.83-4.53-13.89-9.23-21.41-12.92-2.33-1.14-4.76-2.21-7.1-3.25-1.33-.58-2.65-1.17-4-1.77C82.21,153.28,69.45,145.37,57.11,137.71Zm-.18-.11Z"/><path class="cls-30" d="M30.62,153.43l10-9.41a20.17,20.17,0,0,1,4.07-3.22,5.62,5.62,0,0,1,4.71-.56c1.56.68,2.35,2.38,3.69,3.4a29.09,29.09,0,0,0,3.19,1.65,7.44,7.44,0,0,1,2.33,2.1,1.83,1.83,0,0,1,.42,1.27,2.76,2.76,0,0,1-.79,1.32,77.77,77.77,0,0,1-9.66,8.94,9.65,9.65,0,0,0-2.05,1.93c-1,1.49-1.12,3.49-2.36,4.83-1.32-.68-2.24-1.91-3.53-2.63-3.61-2-8.32.26-12.3-.35C22.68,161.84,28,156,30.62,153.43Z"/><path d="M44.29,166.61l-.51-.26a10.18,10.18,0,0,1-2-1.45,9,9,0,0,0-1.57-1.19c-1.94-1.09-4.3-.78-6.79-.46a19.4,19.4,0,0,1-5.26.19c-1.65-.25-2.66-.94-3-2-.81-2.59,2.75-6.45,4.94-8.52l10-9.4a19.72,19.72,0,0,1,4.23-3.34,6.19,6.19,0,0,1,5.36-.58,7,7,0,0,1,2.49,2.11A10.32,10.32,0,0,0,53.49,143a9.46,9.46,0,0,0,1.76.94c.45.2.91.41,1.35.66A8,8,0,0,1,59.17,147a2.51,2.51,0,0,1,.55,1.8,3.21,3.21,0,0,1-1,1.72,78.51,78.51,0,0,1-9.75,9l-.1.08a8.6,8.6,0,0,0-1.8,1.69,8.36,8.36,0,0,0-.93,2.05,7.56,7.56,0,0,1-1.49,2.86Zm-7.46-5.16a8.16,8.16,0,0,1,4.12,1,11,11,0,0,1,1.83,1.36,12.25,12.25,0,0,0,1.16.94,9.09,9.09,0,0,0,.81-1.87,9.21,9.21,0,0,1,1.12-2.41,9.5,9.5,0,0,1,2.1-2l.1-.08a77,77,0,0,0,9.56-8.86,2.16,2.16,0,0,0,.61-.91,1.13,1.13,0,0,0-.3-.73,6.49,6.49,0,0,0-2.08-1.89c-.38-.21-.79-.4-1.22-.59a10,10,0,0,1-2-1.12A9.84,9.84,0,0,1,51,142.65a6.06,6.06,0,0,0-2-1.72,4.86,4.86,0,0,0-4.06.53,19.18,19.18,0,0,0-3.9,3.11l-10,9.4c-3.1,2.93-4.92,5.74-4.54,7,.16.51.77.85,1.8,1a18.22,18.22,0,0,0,4.84-.2A29,29,0,0,1,36.83,161.45Z"/><path d="M39.35,150.38a.75.75,0,0,1-.69-.45.76.76,0,0,1,.39-1,4.82,4.82,0,0,0,2.36-1.62c.11-.2.19-.41.28-.62a4.79,4.79,0,0,1,.43-.89,5.42,5.42,0,0,1,1-1.09l2-1.84a5.65,5.65,0,0,1,1.66-1.21.75.75,0,0,1,.58,1.38,4.79,4.79,0,0,0-1.21.92l-2,1.84a4.37,4.37,0,0,0-.72.79,3.67,3.67,0,0,0-.31.66,6.62,6.62,0,0,1-.38.82,6.21,6.21,0,0,1-3.06,2.24A.72.72,0,0,1,39.35,150.38Z"/><path d="M46.9,153.18l-.21,0a.75.75,0,0,1-.52-.92,4.56,4.56,0,0,1,3-2.72c.4-.13.81-.24,1.21-.35a8.34,8.34,0,0,0,1.88-.66.75.75,0,1,1,.72,1.31,9.82,9.82,0,0,1-2.21.8c-.37.1-.74.19-1.11.32a3.11,3.11,0,0,0-2,1.7A.77.77,0,0,1,46.9,153.18Z"/><path d="M37.5,160.14h-.44a.75.75,0,0,1-.72-.78.74.74,0,0,1,.78-.72A11,11,0,0,0,43,157.09a.74.74,0,0,1,1,.27.75.75,0,0,1-.27,1A12.74,12.74,0,0,1,37.5,160.14Z"/><path class="cls-8" d="M59.62,148.47c.41.67,1.05,1.17,1.4,1.88.8,1.62,0,3.74-.8,5.6-3.65,8.82-5.75,18-7.83,27.12a9.64,9.64,0,0,1,10-.36A6.9,6.9,0,0,0,65,184c1.08.15,2.3-.38,3.33-.06s1.63,1.51,2.47,2.27a7.46,7.46,0,0,0,4.15,1.37c3.42.39,7.14.6,10.39-1.22,1.84-1,3.49-2.66,5.48-3a11.84,11.84,0,0,1,3.15.1c4.46.39,9.11-1.4,13.52-3.23a8.13,8.13,0,0,1,2.66-.76,9.6,9.6,0,0,1,2.86.6c6.46,1.72,14.55-3.12,20.49-.31,1.36.65,2.51,1.67,4,2.14,1.13.37,2.39.38,3.56.68,1.88.48,3.42,1.67,5.19,2.4a5.71,5.71,0,0,0,5.77-.44l-4.39-6.25a1.93,1.93,0,0,0-1-.9,2.75,2.75,0,0,0-1.32.13,10.11,10.11,0,0,1-7.43-1c-2.05-1.21-3.54-3.18-5.64-4.3-1.86-1-4.07-1.25-6.14-1.81-6.59-1.81-11.71-6.76-18.46-8.11-1.69-.33-3.44-.43-5.1-.84a27,27,0,0,1-7.12-3.29Q84.66,152,73.63,146.32c-2.56-1.32-7.16-5-10.26-4.78S58.16,146.14,59.62,148.47Z"/><path d="M78.81,188.64a34.4,34.4,0,0,1-4-.28,8,8,0,0,1-4.56-1.55,8.86,8.86,0,0,1-.88-1,3.11,3.11,0,0,0-1.31-1.15,4.06,4.06,0,0,0-1.51,0,6.07,6.07,0,0,1-1.71.07,5.45,5.45,0,0,1-2.34-1.09l-.53-.35a8.85,8.85,0,0,0-9.18.37l-1.53.95.4-1.76c2.06-9,4.19-18.34,7.86-27.24.67-1.61,1.5-3.62.83-5a5.29,5.29,0,0,0-.67-.91,6.51,6.51,0,0,1-.7-.9h0a5,5,0,0,1,.11-4.83,5.51,5.51,0,0,1,4.21-3.24c2.52-.22,5.73,1.8,8.3,3.43.88.56,1.71,1.08,2.37,1.42,7.33,3.78,14.64,7.79,21.73,11.93l.14.08a25.71,25.71,0,0,0,6.77,3.13,27,27,0,0,0,2.81.48c.74.1,1.51.21,2.27.36,3.71.74,7,2.54,10.09,4.28a39.56,39.56,0,0,0,8.42,3.84c.6.16,1.21.3,1.83.44a17.72,17.72,0,0,1,4.46,1.43A16.51,16.51,0,0,1,135.6,174a16.74,16.74,0,0,0,2.56,2,9.28,9.28,0,0,0,6.87.88l.11,0a3.13,3.13,0,0,1,1.59-.09,2.68,2.68,0,0,1,1.43,1.19L153,184.7l-.55.44a6.37,6.37,0,0,1-6.52.56,21.64,21.64,0,0,1-2.1-1,13.49,13.49,0,0,0-3-1.33,13,13,0,0,0-1.5-.26,12,12,0,0,1-2.1-.43,11.38,11.38,0,0,1-2.53-1.3,16.84,16.84,0,0,0-1.52-.87c-3-1.41-6.58-.75-10.39-.05-3.35.61-6.82,1.24-10,.41l-.72-.21a5.79,5.79,0,0,0-1.93-.37,7.29,7.29,0,0,0-2.39.71c-4.72,2-9.33,3.67-13.87,3.28l-.73-.07a7.61,7.61,0,0,0-2.23,0,9.36,9.36,0,0,0-3.4,1.75c-.59.41-1.2.83-1.84,1.19A13.85,13.85,0,0,1,78.81,188.64Zm-11.29-5.51a3.35,3.35,0,0,1,1,.13,4.4,4.4,0,0,1,2,1.63,6.3,6.3,0,0,0,.71.8A6.83,6.83,0,0,0,75,186.87c3.17.37,6.82.61,9.94-1.12.58-.32,1.13-.71,1.72-1.11a10.58,10.58,0,0,1,4-2,8.75,8.75,0,0,1,2.66,0l.68.07c4.2.36,8.63-1.3,13.17-3.18a8.69,8.69,0,0,1,2.92-.82,7.44,7.44,0,0,1,2.42.43l.67.2c2.82.75,6.12.15,9.31-.44,3.88-.71,7.89-1.44,11.3.17a18,18,0,0,1,1.68,1,10,10,0,0,0,2.19,1.15,11.23,11.23,0,0,0,1.85.36,16.08,16.08,0,0,1,1.66.3,14.46,14.46,0,0,1,3.35,1.46,17.78,17.78,0,0,0,1.95,1,5.54,5.54,0,0,0,4.43.05l-3.95-5.62c-.21-.3-.4-.55-.6-.61a2.1,2.1,0,0,0-.83.11l-.12,0a10.82,10.82,0,0,1-8-1,18.77,18.77,0,0,1-2.79-2.15,15.21,15.21,0,0,0-2.82-2.14,16.59,16.59,0,0,0-4.09-1.29c-.64-.14-1.27-.29-1.9-.46a40.09,40.09,0,0,1-8.75-4c-3.18-1.76-6.17-3.43-9.66-4.12-.71-.14-1.45-.24-2.18-.34a28,28,0,0,1-2.95-.51A27,27,0,0,1,95.08,159l-.14-.08c-7.06-4.13-14.35-8.13-21.66-11.89-.71-.37-1.57-.92-2.48-1.49-2.38-1.51-5.34-3.39-7.37-3.21a4.09,4.09,0,0,0-3,2.42,3.59,3.59,0,0,0-.18,3.36h0a6,6,0,0,0,.57.73,5.85,5.85,0,0,1,.87,1.21c1,2,0,4.43-.78,6.23-3.42,8.26-5.49,16.95-7.42,25.41a10.14,10.14,0,0,1,9.28.42c.2.12.39.26.58.39a4.16,4.16,0,0,0,1.7.84,5.38,5.38,0,0,0,1.3-.07A9.24,9.24,0,0,1,67.52,183.13Z"/><path class="cls-26" d="M93.82,234.93l2.05-.28c1-4-.34-8.2,1.34-12.11,1.54-3.62,5.24-6,8.67-8.06l34.44-20.81A37.32,37.32,0,0,1,139.4,207c.21.55,1.11.45,1.57,0a3.15,3.15,0,0,0,.66-1.77l3.53-23.08a2.66,2.66,0,0,0-.3-2.22,2.25,2.25,0,0,0-1.53-.52c-8-.58-15.82,5.06-22.68,10.37-8.61,6.66-18.77,13-26.57,20.55-3.5,3.41-1.48,5.05-1.08,8.91C93.54,224.39,93,229.74,93.82,234.93Z"/><path d="M93.2,235.77l-.12-.72a63.26,63.26,0,0,1-.53-8.88c0-2.27-.06-4.63-.29-6.89a16.36,16.36,0,0,0-.52-2.6c-.57-2.22-1.06-4.13,1.82-6.93,5.26-5.12,11.61-9.67,17.75-14.08,3-2.13,6-4.33,8.88-6.52,7.29-5.65,15.1-11.11,23.19-10.53a3,3,0,0,1,2,.76,3.29,3.29,0,0,1,.49,2.84l-3.52,23.09a3.88,3.88,0,0,1-.87,2.17,2,2,0,0,1-1.81.61,1.33,1.33,0,0,1-1-.83l-.08-.21.06-.23a36.87,36.87,0,0,0,1-11.9l-33.42,20.2c-3.61,2.18-7,4.41-8.37,7.71a15.48,15.48,0,0,0-.84,6.41,21.38,21.38,0,0,1-.46,5.6l-.13.49Zm49-55.69c-7.2,0-14.36,5-21.09,10.25-2.85,2.21-5.93,4.42-8.91,6.56-6.1,4.37-12.4,8.89-17.58,13.93-2.26,2.2-2,3.37-1.42,5.49a17.77,17.77,0,0,1,.56,2.82c.24,2.33.27,4.71.3,7a68.12,68.12,0,0,0,.41,7.94l.8-.11a22.37,22.37,0,0,0,.3-4.73,16.76,16.76,0,0,1,1-7c1.58-3.71,5.15-6.09,9-8.4l35.44-21.42.13,1.16a37.53,37.53,0,0,1-.78,13,.45.45,0,0,0,.14-.1,2.5,2.5,0,0,0,.47-1.37L144.42,182c.06-.45.19-1.29-.1-1.59a1.84,1.84,0,0,0-1-.29C142.91,180.09,142.55,180.08,142.19,180.08Z"/><path class="cls-31" d="M154.22,214s10.5,14.8,22.92,19.14l2.11-3.33S168.84,218.55,154.22,214Z"/><path d="M177.46,234l-.56-.2c-12.51-4.37-22.85-18.8-23.29-19.42l-1.28-1.81,2.12.66c14.64,4.58,25.24,15.9,25.35,16l.39.42Zm-21.13-18.54c3.24,4,11.35,13.27,20.5,16.72l1.47-2.33C176.4,228,167.84,219.77,156.33,215.49Z"/><path class="cls-31" d="M166.6,195.07s-.28,24.74,10,39.5l5-2S179.07,211.83,166.6,195.07Z"/><path d="M176.27,235.49l-.34-.49c-10.25-14.79-10.09-38.91-10.08-39.93l0-2.22,1.33,1.78c12.45,16.72,15.07,37.65,15.09,37.86l.07.57Zm-8.87-38c.23,6.44,1.6,24.43,9.43,36.17l3.89-1.55C180.24,228.82,177.33,212,167.4,197.48Z"/><line class="cls-31" x1="172.7" y1="215.27" x2="180.09" y2="228.5"/><rect x="175.65" y="214.3" width="1.5" height="15.16" transform="translate(-85.79 114.15) rotate(-29.18)"/><path class="cls-31" d="M186.33,192.36s-9.42,22.88-5.39,40.37h5.39S191.71,212.55,186.33,192.36Z"/><path d="M186.9,233.48h-6.55l-.14-.58c-4-17.52,5-39.88,5.42-40.82l.85-2.06.57,2.15c5.37,20.14.06,40.55,0,40.76Zm-5.35-1.5h4.19c.76-3.23,4.31-20,.44-37.09C184,201,178.62,218.17,181.55,232Z"/><line class="cls-31" x1="184.61" y1="214.31" x2="184.33" y2="229.46"/><rect x="176.89" y="221.13" width="15.16" height="1.5" transform="translate(-40.74 402.28) rotate(-88.96)"/><path class="cls-31" d="M203.15,210.17s-15.4,9.6-20.48,21.74l3.21,2.31S197.72,224.5,203.15,210.17Z"/><path d="M185.91,235.16l-4.16-3,.23-.55c5.12-12.22,20.13-21.68,20.77-22.08l1.89-1.18-.79,2.08c-5.44,14.34-17.37,24.26-17.49,24.36Zm-2.31-3.5,2.24,1.6c2-1.79,10.72-9.83,15.67-21.07C197.28,215.18,187.6,222.73,183.6,231.66Z"/><line class="cls-31" x1="190.29" y1="224.44" x2="182.26" y2="237.3"/><rect x="178.69" y="230.12" width="15.16" height="1.5" transform="translate(-108.22 266.53) rotate(-58.01)"/><path class="cls-31" d="M177.67,197s-5.62,24.1,1.18,40.72l5.32-.87S186.23,216.07,177.67,197Z"/><path d="M178.39,238.56l-.23-.55c-6.81-16.65-1.45-40.17-1.22-41.17l.5-2.16.91,2c8.55,19,6.58,40,6.56,40.23l0,.58Zm-.46-39c-1.16,6.34-3.72,24.2,1.4,37.36l4.14-.68C183.7,232.9,184.51,215.81,177.93,199.53Z"/><line class="cls-31" x1="179.25" y1="222.47" x2="181.62" y2="237.44"/><rect x="179.68" y="222.38" width="1.5" height="15.16" transform="translate(-33.7 31) rotate(-8.98)"/><path class="cls-32" d="M173.32,231.41,176,244.86s1.34,2.7,6.73,2.7,6.72-4,6.72-4l1.35-13.46s-5.38,4-8.07,4S176,232.75,173.32,231.41Z"/><path d="M182.74,248.31c-5.78,0-7.34-3-7.4-3.11l-.07-.19-3-15,1.37.69c2.6,1.29,6.55,2.61,9.09,2.61,2,0,6.18-2.81,7.62-3.89l1.37-1-1.55,15.32C190.11,243.94,188.59,248.31,182.74,248.31Zm-6-3.71c.24.38,1.65,2.21,6,2.21s5.78-2.95,6-3.46l1.17-11.73c-1.85,1.25-5.09,3.23-7.16,3.23a24,24,0,0,1-8.4-2.14Z"/><path class="cls-32" d="M174.87,239.17s3.83,3,7.87,3,7.2-3.36,7.2-3.36"/><path d="M182.74,242.92c-4.25,0-8.17-3-8.33-3.16l.92-1.18s3.68,2.84,7.41,2.84,6.62-3.09,6.65-3.13l1.09,1C190.34,239.47,187.05,242.92,182.74,242.92Z"/><path class="cls-33" d="M242.22,172.87s10.5,14.79,22.92,19.14l2.11-3.34S256.84,177.43,242.22,172.87Z"/><path d="M265.46,192.92l-.56-.2c-12.51-4.38-22.85-18.81-23.29-19.42l-1.28-1.81,2.12.66c14.64,4.58,25.24,15.9,25.35,16l.39.42Zm-21.13-18.54c3.24,4,11.35,13.27,20.5,16.72l1.47-2.33C264.4,186.85,255.84,178.66,244.33,174.38Z"/><path class="cls-33" d="M254.6,154s-.28,24.74,10,39.5l5-2S267.07,170.72,254.6,154Z"/><path d="M264.27,194.38l-.34-.49C253.68,179.1,253.84,155,253.85,154l0-2.22,1.33,1.78c12.45,16.73,15.07,37.66,15.09,37.87l.07.57Zm-8.87-38c.23,6.44,1.6,24.42,9.43,36.17l3.89-1.55C268.24,187.7,265.33,170.84,255.4,156.37Z"/><line class="cls-33" x1="260.7" y1="174.15" x2="268.09" y2="187.39"/><rect x="263.65" y="173.19" width="1.5" height="15.16" transform="translate(-54.58 151.84) rotate(-29.18)"/><path class="cls-33" d="M274.33,151.25s-9.42,22.88-5.39,40.37h5.39S279.71,171.44,274.33,151.25Z"/><path d="M274.9,192.37h-6.55l-.14-.58c-4-17.53,5-39.88,5.42-40.83l.85-2.05.57,2.15c5.37,20.14.06,40.55,0,40.75Zm-5.35-1.5h4.19c.76-3.23,4.31-20,.44-37.09C272,159.85,266.62,177.06,269.55,190.87Z"/><line class="cls-33" x1="272.61" y1="173.19" x2="272.33" y2="188.35"/><rect x="264.89" y="180.02" width="15.16" height="1.5" transform="translate(86.76 449.9) rotate(-88.96)"/><path class="cls-33" d="M291.15,169.06s-15.4,9.6-20.48,21.74l3.21,2.3S285.72,183.39,291.15,169.06Z"/><path d="M273.91,194.05l-4.16-3,.23-.55c5.12-12.22,20.13-21.69,20.77-22.08l1.89-1.18-.79,2.08c-5.44,14.34-17.37,24.25-17.49,24.35Zm-2.31-3.51,2.24,1.61c2-1.79,10.72-9.84,15.67-21.08C285.28,174.06,275.6,181.61,271.6,190.54Z"/><line class="cls-33" x1="278.29" y1="183.33" x2="270.26" y2="196.18"/><rect x="266.69" y="189.01" width="15.16" height="1.5" transform="translate(-31.98 321.83) rotate(-58.01)"/><path class="cls-33" d="M265.67,155.9s-5.62,24.1,1.18,40.71l5.32-.86S274.23,175,265.67,155.9Z"/><path d="M266.39,197.45l-.23-.55c-6.81-16.65-1.45-40.18-1.22-41.17l.5-2.16.91,2c8.55,19,6.58,40,6.56,40.23l-.05.58Zm-.46-39c-1.16,6.34-3.72,24.2,1.4,37.36l4.14-.68C271.7,191.79,272.51,174.7,265.93,158.42Z"/><line class="cls-33" x1="267.25" y1="181.36" x2="269.62" y2="196.33"/><rect x="267.68" y="181.27" width="1.5" height="15.16" transform="translate(-26.2 44.24) rotate(-8.99)"/><path class="cls-17" d="M261.32,190.3,264,203.75s1.34,2.69,6.73,2.69,6.72-4,6.72-4L278.81,189s-5.38,4-8.07,4S264,191.64,261.32,190.3Z"/><path d="M270.74,207.19c-5.78,0-7.34-3-7.4-3.1l-.07-.19-3-15,1.37.68c2.6,1.3,6.55,2.62,9.09,2.62,2,0,6.18-2.81,7.62-3.89l1.37-1-1.55,15.31C278.11,202.83,276.59,207.19,270.74,207.19Zm-6-3.71c.24.39,1.65,2.21,6,2.21s5.78-2.94,6-3.45l1.17-11.73c-1.85,1.25-5.09,3.23-7.16,3.23a24,24,0,0,1-8.4-2.14Z"/><path class="cls-17" d="M262.87,198.06s3.83,3,7.87,3,7.2-3.36,7.2-3.36"/><path d="M270.74,201.81c-4.25,0-8.17-3-8.33-3.16l.92-1.18s3.68,2.84,7.41,2.84,6.62-3.1,6.65-3.13l1.09,1C278.34,198.36,275.05,201.81,270.74,201.81Z"/><path class="cls-34" d="M136,230.9a6.58,6.58,0,0,1-.05,3.45c-.52.48-1.29-.41-1.66-.91a3.22,3.22,0,0,1-.52-1.53c-.78-5.8.36-11.22-1.28-17.15a2.75,2.75,0,0,1-.16-1.27c.5-2.17,2.07.37,2.35,2.87.19,1.63.71,3.32.83,4.94C135.76,224.52,135.57,227.63,136,230.9Z"/><path d="M135.61,235.23h-.13a2.77,2.77,0,0,1-1.79-1.35A3.72,3.72,0,0,1,133,232a50.21,50.21,0,0,1-.32-7.08,36,36,0,0,0-.94-10,3.32,3.32,0,0,1-.17-1.64c.29-1.27,1-1.41,1.38-1.4,1.35.08,2.26,2.65,2.45,4.36.08.72.23,1.44.38,2.21a21.3,21.3,0,0,1,.45,2.75c.1,1.35.13,2.69.16,4a50.39,50.39,0,0,0,.33,5.57l0,.36a6.2,6.2,0,0,1-.16,3.5l-.06.14-.11.1A1.25,1.25,0,0,1,135.61,235.23Zm-2.56-21.53a2.64,2.64,0,0,0,.15.79,37.89,37.89,0,0,1,1,10.44,50,50,0,0,0,.3,6.88,2.44,2.44,0,0,0,.39,1.19,3.61,3.61,0,0,0,.51.58,7.73,7.73,0,0,0-.1-2.22l-.05-.36a51.6,51.6,0,0,1-.34-5.74c0-1.28-.06-2.6-.16-3.91a21.17,21.17,0,0,0-.41-2.56c-.16-.77-.32-1.56-.41-2.34A7,7,0,0,0,133.05,213.7Z"/><path class="cls-34" d="M122,233.64a11,11,0,0,0-1.46,4.09c.2.9,1.19.37,1.69,0a3.65,3.65,0,0,0,1.07-1.46c3.12-6.32,4.58-13.44,8.42-19.35a3.71,3.71,0,0,0,.68-1.38c.54-2.88-1.78-.92-3.08,1.84-.85,1.8-2,3.44-2.78,5.26C125,226.29,123.76,230.08,122,233.64Z"/><path d="M121.12,239a1.33,1.33,0,0,1-.49-.09,1.3,1.3,0,0,1-.8-1l0-.1v-.1a10.29,10.29,0,0,1,1.33-4l.19-.38c1-2.07,1.87-4.26,2.69-6.38.58-1.5,1.18-3.06,1.84-4.57.45-1,1-2,1.52-2.91.44-.77.89-1.57,1.27-2.37.56-1.17,2.32-4.11,3.79-3.64.71.23,1,1,.71,2.26a4.34,4.34,0,0,1-.75,1.59,55.1,55.1,0,0,0-5.12,11.26,83.36,83.36,0,0,1-3.3,8.07,4.37,4.37,0,0,1-1.31,1.74A2.84,2.84,0,0,1,121.12,239Zm10.6-23.77a9,9,0,0,0-1.7,2.51c-.4.85-.87,1.68-1.32,2.47a28.31,28.31,0,0,0-1.45,2.77c-.65,1.48-1.25,3-1.82,4.52-.84,2.14-1.7,4.37-2.74,6.49h0l-.19.39a10.12,10.12,0,0,0-1.15,3,3.12,3.12,0,0,0,.46-.27,3,3,0,0,0,.83-1.18,79.92,79.92,0,0,0,3.24-7.93,56.37,56.37,0,0,1,5.23-11.5,3.17,3.17,0,0,0,.57-1.11A1.91,1.91,0,0,0,131.72,215.21Z"/><path class="cls-34" d="M143.05,234.34a11,11,0,0,1,1.45,4.1c-.2.9-1.18.37-1.68,0a3.72,3.72,0,0,1-1.07-1.46c-3.12-6.32-4.59-13.44-8.43-19.35a4,4,0,0,1-.68-1.38c-.54-2.88,1.78-.92,3.08,1.84.85,1.79,2,3.44,2.78,5.26C140.09,227,141.3,230.78,143.05,234.34Z"/><path d="M144,239.69a2.87,2.87,0,0,1-1.57-.62,4.51,4.51,0,0,1-1.31-1.74,81,81,0,0,1-3.29-8.08,55.4,55.4,0,0,0-5.09-11.19,4.66,4.66,0,0,1-.79-1.65c-.23-1.27,0-2,.71-2.26,1.48-.47,3.24,2.46,3.79,3.64.38.8.83,1.59,1.27,2.36a31,31,0,0,1,1.52,2.92c.66,1.51,1.26,3.07,1.85,4.57.82,2.12,1.67,4.31,2.68,6.37l.19.39a10.31,10.31,0,0,1,1.34,4v.11l0,.1a1.3,1.3,0,0,1-.8,1A1.28,1.28,0,0,1,144,239.69Zm-10.61-23.77c0,.06,0,.13,0,.21a3.26,3.26,0,0,0,.52,1,56.32,56.32,0,0,1,5.28,11.56,81.37,81.37,0,0,0,3.24,7.93,3,3,0,0,0,.83,1.18,2.5,2.5,0,0,0,.46.27,10.4,10.4,0,0,0-1.14-3l-.2-.4c-1-2.12-1.9-4.34-2.73-6.49-.58-1.49-1.18-3-1.82-4.51a29.66,29.66,0,0,0-1.46-2.78c-.45-.79-.91-1.61-1.32-2.46A8.68,8.68,0,0,0,133.34,215.92Z"/><path class="cls-34" d="M132.55,239a12.35,12.35,0,0,1-.73,5.09c-.73.8-1.52-.35-1.87-1a4.28,4.28,0,0,1-.36-2.15c.15-8.39,2.59-16.59,1.71-25a4.5,4.5,0,0,1,0-1.83c1-3.29,2.5.15,2.37,3.78-.09,2.36.23,4.75.07,7.1C133.46,229.61,132.64,234.23,132.55,239Z"/><path d="M131.28,245.06h-.17c-.83-.1-1.45-1-1.83-1.67a5.11,5.11,0,0,1-.44-2.52,94.28,94.28,0,0,1,1-10.3c.62-4.78,1.27-9.73.75-14.62a5.14,5.14,0,0,1,.07-2.14c.43-1.35,1-2,1.85-1.83,1.58.28,2.05,3.75,2,5.87,0,1.06,0,2.15.05,3.21a36.39,36.39,0,0,1,0,3.91c-.13,2-.35,3.92-.56,5.82-.3,2.68-.61,5.45-.67,8.19v.51a11.45,11.45,0,0,1-.79,4.88l-.13.19A1.49,1.49,0,0,1,131.28,245.06Zm1-31.41a3.65,3.65,0,0,0-.24.6,3.77,3.77,0,0,0,0,1.43c.55,5.17-.11,10.21-.75,15.08a91.92,91.92,0,0,0-.94,10.12,3.74,3.74,0,0,0,.27,1.8,2.64,2.64,0,0,0,.62.84,11,11,0,0,0,.56-4.06v-.52c.06-2.81.38-5.62.68-8.33.21-1.88.43-3.83.56-5.75a36.11,36.11,0,0,0,0-3.75c-.05-1.08-.09-2.21-.05-3.33A9.44,9.44,0,0,0,132.29,213.65Z"/><path class="cls-35" d="M132.76,185c-.44,1.75-2.45,3.13-3.73,4.41l-9,9c-1.86,1.85-3.8,3.75-6.25,4.67a1.27,1.27,0,0,1-.95.08,19.8,19.8,0,0,1-2.61-1.9c-1.72-3.39,1-7,2.11-10.58.46-1.43,1.44-2.09,2.21-3.38,2.42-4.08,7.35-5.82,11.91-7.16C129.35,179.25,133.58,181.74,132.76,185Z"/><path d="M113.12,203.94a1.47,1.47,0,0,1-.64-.13,14.89,14.89,0,0,1-3-2.24c-1.42-2.8-.2-5.62,1-8.34a28.63,28.63,0,0,0,1.1-2.81,6.77,6.77,0,0,1,1.39-2.33,8.82,8.82,0,0,0,.88-1.2c2.57-4.32,7.72-6.14,12.35-7.5a6.43,6.43,0,0,1,6,1.6,4.31,4.31,0,0,1,1.33,4.2c-.4,1.56-1.77,2.78-3,3.86-.34.31-.67.6-1,.89l-9,9c-1.82,1.8-3.87,3.85-6.52,4.84A2.36,2.36,0,0,1,113.12,203.94Zm-2.31-3.13a23.86,23.86,0,0,0,2.31,1.64,1.32,1.32,0,0,0,.35-.1c2.35-.88,4.28-2.81,6-4.5l9-9c.31-.31.66-.62,1-.94,1-.94,2.23-2,2.51-3.12h0a2.76,2.76,0,0,0-.91-2.74,4.93,4.93,0,0,0-4.5-1.25c-4.35,1.28-9.19,3-11.48,6.82a10.87,10.87,0,0,1-1,1.39,5.34,5.34,0,0,0-1.13,1.83,31.12,31.12,0,0,1-1.16,2.95C110.78,196.31,109.77,198.66,110.81,200.81Z"/><path class="cls-34" d="M109.5,200.61c-2.15-2.2-2.85-2.91-4.56-4.59-2.24-2.2-4.64-5.37-7.45-8.26,0-2.17,1-4.62,1.63-6.69,2-6.4,7-12.23,13.65-13.3a7.81,7.81,0,0,1,5,.6c1.43.78,2.34,2.23,3.46,3.43a86.86,86.86,0,0,0,9.19,8.8c-3.72-.06-7.27,1.5-10.6,3.17a16.12,16.12,0,0,0-7.67,7.81A58.78,58.78,0,0,0,109.5,200.61Z"/><path d="M109.92,202.11l-1-1c-2.13-2.18-2.84-2.9-4.55-4.58-1.16-1.14-2.35-2.52-3.62-4s-2.47-2.88-3.83-4.28l-.21-.21v-.3A17.93,17.93,0,0,1,98,182.18c.15-.45.3-.9.43-1.33,2.27-7.36,7.86-12.79,14.25-13.82a8.43,8.43,0,0,1,5.46.68,10.29,10.29,0,0,1,2.79,2.58c.28.34.56.68.86,1a84.8,84.8,0,0,0,9.12,8.73l1.69,1.36-2.18,0c-3.65-.06-7.2,1.56-10.25,3.09a15.21,15.21,0,0,0-7.32,7.43,58.32,58.32,0,0,0-2.59,8.91ZM98.25,187.46c1.3,1.36,2.51,2.76,3.68,4.12s2.42,2.81,3.53,3.9c1.44,1.41,2.17,2.15,3.62,3.63a51.89,51.89,0,0,1,2.36-7.83,16.73,16.73,0,0,1,8-8.18,28.06,28.06,0,0,1,9-3.14,94.9,94.9,0,0,1-7.8-7.65c-.32-.34-.62-.7-.92-1.06a8.93,8.93,0,0,0-2.35-2.22,7,7,0,0,0-4.5-.52c-5.83.94-11,6-13,12.78-.14.44-.29.9-.45,1.37A18,18,0,0,0,98.25,187.46Z"/><path class="cls-35" d="M117.23,200.53a6.49,6.49,0,0,0,2.17,4.06,4.15,4.15,0,0,0,3.71.74,11.72,11.72,0,0,0,3.52-1.71c4.1-2.6,8.4-5.69,9.79-10.35a4.43,4.43,0,0,0,.22-1.94,4.48,4.48,0,0,0-.61-1.55,5.64,5.64,0,0,0-2.31-2.47,9.31,9.31,0,0,0-5.9-.19C121.94,189.31,117.27,193.7,117.23,200.53Z"/><path d="M121.93,206.22a4.5,4.5,0,0,1-3-1.07,7.15,7.15,0,0,1-2.42-4.63c0-6.35,4.07-11.49,11.08-14.1a10,10,0,0,1,6.48.21,6.47,6.47,0,0,1,2.65,2.78,5.45,5.45,0,0,1,.69,1.8,5.13,5.13,0,0,1-.24,2.28c-1.49,5-6,8.16-10.11,10.77a12.69,12.69,0,0,1-3.75,1.8A5.78,5.78,0,0,1,121.93,206.22Zm8.53-18.74a7.26,7.26,0,0,0-2.38.34c-3.75,1.4-10.06,4.91-10.1,12.71h0a5.84,5.84,0,0,0,1.92,3.5,3.5,3.5,0,0,0,3,.57,11.08,11.08,0,0,0,3.29-1.61c3.88-2.46,8.13-5.46,9.48-9.93a3.68,3.68,0,0,0,.19-1.62,3.93,3.93,0,0,0-.52-1.29,4.8,4.8,0,0,0-2-2.16A7.38,7.38,0,0,0,130.46,187.48Z"/><path class="cls-34" d="M115.1,200.34a9.09,9.09,0,0,0-.94-.77,1.4,1.4,0,0,1-.25-.82c-.37-3,.91-5.6,2.62-8.1a13.5,13.5,0,0,1,2.12-2.83c3.52-2.82,6.84-4.64,10.81-4.55a3,3,0,0,1,1,.15,3.17,3.17,0,0,1,.94.69c1.71,1.59,3.48,3.3,4.14,5.54-1.22-1.75-2.76-1.83-4.93-1.73a11.91,11.91,0,0,0-5.92,2.25,10.11,10.11,0,0,0-2.76,2.49,12.91,12.91,0,0,0-1.85,2.93c-.42,1.15-.93,2.39-1.41,3.53a18.73,18.73,0,0,0-1,3.87A24.5,24.5,0,0,1,115.1,200.34Z"/><path d="M118.13,204.44l-1-.9a25.33,25.33,0,0,1-2.63-2.73,2.06,2.06,0,0,0-.4-.32,5.25,5.25,0,0,1-.49-.39,1.83,1.83,0,0,1-.45-1.15v-.1c-.43-3.45,1.14-6.3,2.74-8.63.14-.2.28-.43.43-.66a9.66,9.66,0,0,1,1.84-2.32c3-2.39,6.65-4.81,11.3-4.72a3.53,3.53,0,0,1,1.23.21,3.87,3.87,0,0,1,1.19.83c1.6,1.51,3.61,3.38,4.34,5.87l1.3,4.4-2.63-3.75c-1-1.4-2.11-1.51-4.28-1.41a11,11,0,0,0-5.55,2.13,9.22,9.22,0,0,0-2.56,2.3l-.47.63a9.14,9.14,0,0,0-1.29,2.11c-.44,1.22-1,2.48-1.42,3.57a13.2,13.2,0,0,0-.78,2.89Zm11-20.42c-3.2,0-6.22,1.32-10.06,4.39a8.84,8.84,0,0,0-1.5,2l-.46.7c-1.44,2.1-2.86,4.64-2.49,7.59v.13a1.55,1.55,0,0,0,0,.29l.26.18a3.85,3.85,0,0,1,.71.61h0a18.91,18.91,0,0,0,1.5,1.63,12.79,12.79,0,0,1,.77-2.68c.44-1.06,1-2.31,1.39-3.49a10.06,10.06,0,0,1,1.5-2.49l.45-.61a10.85,10.85,0,0,1,3-2.68,12.36,12.36,0,0,1,6.3-2.38,11.16,11.16,0,0,1,2.88.15,24,24,0,0,0-2.57-2.66,2.43,2.43,0,0,0-.71-.54,2.32,2.32,0,0,0-.72-.1Z"/><path class="cls-35" d="M142.76,226.08a5.33,5.33,0,0,0,1.79,3.36,3.44,3.44,0,0,0,3.06.61,9.69,9.69,0,0,0,2.91-1.41c3.4-2.15,6.95-4.71,8.1-8.55a3.7,3.7,0,0,0,.18-1.61,3.93,3.93,0,0,0-.5-1.28,4.63,4.63,0,0,0-1.92-2,7.59,7.59,0,0,0-4.87-.16C146.65,216.81,142.79,220.44,142.76,226.08Z"/><path d="M146.64,230.92a3.85,3.85,0,0,1-2.59-.92,6,6,0,0,1-2-3.92h0c0-5.31,3.39-9.6,9.24-11.78a8.43,8.43,0,0,1,5.46.18,5.43,5.43,0,0,1,2.24,2.35,4.65,4.65,0,0,1,.59,1.53,4.46,4.46,0,0,1-.2,1.94c-1.25,4.15-5,6.81-8.42,9a10.53,10.53,0,0,1-3.14,1.5A5,5,0,0,1,146.64,230.92Zm-3.13-4.83a4.6,4.6,0,0,0,1.54,2.79,2.73,2.73,0,0,0,2.39.44,9.06,9.06,0,0,0,2.68-1.31c3.19-2,6.68-4.48,7.78-8.14a3,3,0,0,0,.16-1.28,3.25,3.25,0,0,0-.42-1,3.86,3.86,0,0,0-1.58-1.73,7,7,0,0,0-4.29-.13c-3.07,1.15-8.23,4-8.26,10.39Z"/><path class="cls-34" d="M121.94,205.47a6.27,6.27,0,0,0-.78-.64,1.19,1.19,0,0,1-.2-.68c-.31-2.49.74-4.63,2.16-6.7a11.19,11.19,0,0,1,1.75-2.33c2.92-2.34,5.66-3.84,8.94-3.76a2.25,2.25,0,0,1,.81.12,2.7,2.7,0,0,1,.78.57c1.41,1.31,21.93,22.48,22.47,24.33-1-1.44-2.28-1.5-4.07-1.43a9.92,9.92,0,0,0-4.9,1.87,8.15,8.15,0,0,0-2.28,2.06,10.91,10.91,0,0,0-1.53,2.41c-.35,1-.77,2-1.17,2.92a16.11,16.11,0,0,0-.81,3.2C142.17,226.54,122.54,206.2,121.94,205.47Z"/><path d="M143.58,228.87l-1-.91c-1-.94-20.65-21.3-21.24-22h0a2.08,2.08,0,0,0-.3-.25,4,4,0,0,1-.43-.33,1.66,1.66,0,0,1-.41-1c-.37-3,1-5.36,2.28-7.3.12-.17.23-.35.36-.55a8.24,8.24,0,0,1,1.54-1.95c2.49-2,5.54-4,9.43-3.92a2.84,2.84,0,0,1,1.06.17,3.41,3.41,0,0,1,1,.72c.22.2,22,22.44,22.68,24.67l1.3,4.39-2.63-3.75c-.77-1.1-1.68-1.18-3.43-1.11a9.11,9.11,0,0,0-4.51,1.74,7.72,7.72,0,0,0-2.09,1.87c-.12.18-.25.35-.39.53a7.26,7.26,0,0,0-1,1.71c-.38,1-.83,2.11-1.18,2.95a11.07,11.07,0,0,0-.64,2.36ZM122.52,205c.54.66,16,16.68,20.13,20.89a9.63,9.63,0,0,1,.58-2c.35-.82.8-1.89,1.16-2.88a8.46,8.46,0,0,1,1.25-2.1c.13-.16.25-.33.37-.5a9.12,9.12,0,0,1,2.48-2.25,10.36,10.36,0,0,1,5.28-2,11.15,11.15,0,0,1,1.53,0c-5.06-5.88-18.76-20.07-20.41-21.61a2.12,2.12,0,0,0-.55-.42,1.82,1.82,0,0,0-.55-.08c-2.7,0-5.22,1-8.45,3.6a7.28,7.28,0,0,0-1.22,1.59c-.13.21-.26.41-.38.58-1.18,1.72-2.34,3.79-2,6.19l0,.1a.58.58,0,0,0,0,.21s.09,0,.17.1a2.78,2.78,0,0,1,.6.52l-.58.48Z"/><path class="cls-35" d="M157.2,236.37a3.39,3.39,0,0,0,1.12,2.1,2.16,2.16,0,0,0,1.91.38,6.25,6.25,0,0,0,1.82-.88c2.11-1.34,4.33-2.94,5-5.34a2.43,2.43,0,0,0,.11-1,2.51,2.51,0,0,0-.31-.8,2.84,2.84,0,0,0-1.2-1.27,4.72,4.72,0,0,0-3-.1C159.63,230.59,157.22,232.85,157.2,236.37Z"/><path d="M159.62,239.67a2.64,2.64,0,0,1-1.8-.65,4,4,0,0,1-1.37-2.65h0c0-3.44,2.19-6.21,6-7.61a5.47,5.47,0,0,1,3.62.12,3.64,3.64,0,0,1,1.53,1.58,3.11,3.11,0,0,1,.4,1,3.05,3.05,0,0,1-.14,1.34c-.8,2.68-3.19,4.37-5.36,5.75a6.74,6.74,0,0,1-2,1A3.46,3.46,0,0,1,159.62,239.67Zm-1.67-3.3a2.72,2.72,0,0,0,.87,1.54,1.45,1.45,0,0,0,1.24.21,5.72,5.72,0,0,0,1.59-.79c1.94-1.23,4.07-2.73,4.73-4.91a1.68,1.68,0,0,0,.09-.68,2,2,0,0,0-.23-.55,2.23,2.23,0,0,0-.86-1,4.12,4.12,0,0,0-2.46-.07c-1.84.69-4.95,2.41-5,6.21Z"/><path class="cls-34" d="M146.82,227c-.14-.16-.36-.27-.49-.4a.66.66,0,0,1-.13-.42,6.06,6.06,0,0,1,1.35-4.18,7.15,7.15,0,0,1,1.09-1.45c1.82-1.46,3.53-2.4,5.58-2.35a1.42,1.42,0,0,1,.5.08,1.52,1.52,0,0,1,.49.35c.88.82,10.22,9.7,10.56,10.86-.63-.91-1.43-.94-2.54-.89a6.09,6.09,0,0,0-3.06,1.16,5.26,5.26,0,0,0-1.42,1.28,7,7,0,0,0-1,1.51c-.21.6-.48,1.23-.72,1.82a10,10,0,0,0-.51,2C156,235.79,147.19,227.43,146.82,227Z"/><path d="M157,237.79l-1-.9c-.09-.08-9.35-8.87-9.82-9.45l-.13-.1a1.86,1.86,0,0,1-.3-.24,1.26,1.26,0,0,1-.34-.81,6.87,6.87,0,0,1,1.47-4.74c.07-.1.14-.22.22-.33a5.33,5.33,0,0,1,1-1.29,9.43,9.43,0,0,1,6.07-2.51,2.43,2.43,0,0,1,.76.13,2.34,2.34,0,0,1,.72.51c.1.09,10.32,9.67,10.77,11.18l1.3,4.4-2.64-3.75c-.38-.55-.78-.62-1.89-.57a5.27,5.27,0,0,0-2.67,1,4.55,4.55,0,0,0-1.23,1.09l-.24.34a4.07,4.07,0,0,0-.62,1c-.22.6-.49,1.25-.74,1.85a6.16,6.16,0,0,0-.38,1.42Zm-9.64-11.29c.4.44,6.31,6.09,8.71,8.37a5.68,5.68,0,0,1,.28-.82c.24-.58.5-1.2.71-1.79a6,6,0,0,1,.82-1.38l.23-.3a5.92,5.92,0,0,1,1.62-1.48,6.73,6.73,0,0,1,3.43-1.28h.28c-2.34-2.49-6.66-6.68-8.77-8.66a2.77,2.77,0,0,0-.25-.21,1.1,1.1,0,0,0-.25,0c-1.64,0-3.11.59-5.09,2.18a4.5,4.5,0,0,0-.7.92c-.08.14-.16.26-.24.38a5.18,5.18,0,0,0-1.22,3.66v.05h0A1.77,1.77,0,0,1,147.39,226.5Z"/><path class="cls-35" d="M169,246.81a2.29,2.29,0,0,0,.75,1.4,1.47,1.47,0,0,0,1.29.26,4.25,4.25,0,0,0,1.21-.59c1.42-.9,2.91-2,3.39-3.58a1.54,1.54,0,0,0,.07-.67,1.56,1.56,0,0,0-.21-.54,1.88,1.88,0,0,0-.8-.85,3.17,3.17,0,0,0-2-.07C170.67,242.93,169.06,244.45,169,246.81Z"/><path d="M170.67,249.26a2.06,2.06,0,0,1-1.38-.49,3,3,0,0,1-1-2c0-2.41,1.53-4.35,4.15-5.33a3.86,3.86,0,0,1,2.62.09,2.73,2.73,0,0,1,1.14,1.16,2.24,2.24,0,0,1,.29.79,2.19,2.19,0,0,1-.09,1c-.54,1.8-2.1,3-3.71,4a4.52,4.52,0,0,1-1.44.68A2.36,2.36,0,0,1,170.67,249.26Zm3-6.47a2,2,0,0,0-.65.08,4.36,4.36,0,0,0-3.18,3.94h0a1.59,1.59,0,0,0,.51.84.69.69,0,0,0,.6.08,3.23,3.23,0,0,0,1-.49c1.27-.8,2.65-1.77,3.07-3.16a.8.8,0,0,0,0-.34.94.94,0,0,0-.12-.28,1.28,1.28,0,0,0-.47-.55A2.17,2.17,0,0,0,173.62,242.79Z"/><path class="cls-34" d="M159.63,237.48a2.69,2.69,0,0,0-.32-.27.52.52,0,0,1-.09-.28,4,4,0,0,1,.91-2.8,4.72,4.72,0,0,1,.73-1,5.77,5.77,0,0,1,3.74-1.57,1,1,0,0,1,.34,0,1,1,0,0,1,.32.24c.59.55,9.17,9.4,9.4,10.17-.42-.6-.95-.63-1.7-.59a4.11,4.11,0,0,0-2.05.78,3.28,3.28,0,0,0-1,.86,4.8,4.8,0,0,0-.64,1c-.14.4-.32.82-.48,1.22a6,6,0,0,0-.34,1.34C168.1,246.29,159.88,237.79,159.63,237.48Z"/><path d="M169,248.11l-1-.9c-.48-.44-8.37-8.63-8.91-9.23a1.72,1.72,0,0,1-.29-.24,1.12,1.12,0,0,1-.3-.69,4.84,4.84,0,0,1,1-3.35l.14-.22a3.79,3.79,0,0,1,.74-.92,6.42,6.42,0,0,1,4.23-1.73,1.63,1.63,0,0,1,.59.1,1.94,1.94,0,0,1,.57.39c.08.08,8.3,8.41,9.47,10.26,0,0,0,0,0,0h0a1.1,1.1,0,0,1,.11.22l1.3,4.4-2.63-3.76c-.18-.25-.32-.3-1.06-.27a3.38,3.38,0,0,0-1.67.65,2.68,2.68,0,0,0-.75.67l-.17.23a2.8,2.8,0,0,0-.38.6c-.15.42-.33.85-.5,1.26a4.2,4.2,0,0,0-.24.9ZM160.21,237c.29.33,5.66,5.91,7.87,8.17l.06-.15c.16-.38.33-.79.47-1.18a3.82,3.82,0,0,1,.59-1l.14-.2a4.37,4.37,0,0,1,1.16-1.05,4.92,4.92,0,0,1,2.16-.88c-2.4-2.66-7.31-7.74-7.91-8.31a.87.87,0,0,0-.11-.09s0,0-.06,0a4.74,4.74,0,0,0-3.25,1.41,2.62,2.62,0,0,0-.41.55l-.17.26a3.38,3.38,0,0,0-.79,2.22A1.07,1.07,0,0,1,160.21,237Z"/><path class="cls-20" d="M169,18.27c-.3,1.89-2.1,3.33-3.19,4.9a23.23,23.23,0,0,0-3.58,8.26,13.06,13.06,0,0,1,6.39-2.81c1.75-.24,3.61-.14,5.22-.88"/><path d="M161,33.38l.46-2.1a23.8,23.8,0,0,1,3.7-8.53c.35-.51.77-1,1.17-1.48a7,7,0,0,0,1.89-3.12l1.48.24a8.1,8.1,0,0,1-2.23,3.85,17.32,17.32,0,0,0-1.08,1.36,22.2,22.2,0,0,0-3,6,13.63,13.63,0,0,1,5-1.77c.53-.07,1.07-.12,1.61-.16a10.29,10.29,0,0,0,3.41-.66l.62,1.36a11.13,11.13,0,0,1-3.91.79c-.51,0-1,.09-1.52.16a12.15,12.15,0,0,0-6,2.64Z"/><path class="cls-10" d="M173.36,27.81c-.43,1.8-2.06,3-3.33,4.37a12.82,12.82,0,0,0-3.26,6.75L179.13,35"/><path d="M165.85,40l.18-1.19a13.57,13.57,0,0,1,3.45-7.14c.29-.32.61-.62.92-.93a7,7,0,0,0,2.23-3.1l1.46.34a8.22,8.22,0,0,1-2.64,3.83c-.3.29-.59.58-.87.88a12.08,12.08,0,0,0-2.82,5.14l11.14-3.5.45,1.43Z"/><path class="cls-7" d="M179,35.66a48.21,48.21,0,0,0-4.58,9.82l10.1-3"/><path d="M173.26,46.61l.45-1.36a49,49,0,0,1,4.65-10l1.28.78a46.72,46.72,0,0,0-4,8.3l8.69-2.58.42,1.44Z"/><path class="cls-20" d="M186,44.34l-2.3,10.57c1.27-1,3-1.14,4.58-1.61a9.45,9.45,0,0,0,4.21-2.66"/><path d="M182.54,56.84l2.76-12.66,1.47.32-2,9a14.88,14.88,0,0,1,2-.55c.45-.1.89-.2,1.32-.33A8.56,8.56,0,0,0,192,50.13l1.11,1A10.19,10.19,0,0,1,188.53,54c-.46.14-.94.25-1.42.36a6.82,6.82,0,0,0-2.9,1.11Z"/><path class="cls-10" d="M194.83,52.86l-2.34,11.46c2.46-3.06,7.06-3.26,10.27-5.52"/><path d="M191.14,67.19l3-14.48,1.47.3-1.88,9.22a19.86,19.86,0,0,1,4.38-2,19,19,0,0,0,4.27-2l.86,1.23a19.94,19.94,0,0,1-4.6,2.17c-2.16.81-4.2,1.56-5.52,3.2Z"/><path class="cls-7" d="M205.17,60.26A51.86,51.86,0,0,0,204,70.12a31.64,31.64,0,0,1,8.78-5.72"/><path d="M203.23,71.86l0-1.76a53.33,53.33,0,0,1,1.17-10l1.47.32a51.14,51.14,0,0,0-1.07,8,32.15,32.15,0,0,1,7.66-4.69l.6,1.37a30.72,30.72,0,0,0-8.57,5.58Z"/><path class="cls-20" d="M215.4,65.92c-.31,3.22-1.93,6.59-.55,9.52,2.74-2.36,5.39-4.26,8.13-6.62"/><path d="M214.59,76.65l-.42-.89c-1.07-2.27-.54-4.69,0-7a27.29,27.29,0,0,0,.52-2.88l1.49.14a28.37,28.37,0,0,1-.54,3.06,11.84,11.84,0,0,0-.41,5.11c1.1-.92,2.19-1.78,3.25-2.62,1.32-1,2.68-2.12,4-3.29l1,1.14c-1.39,1.19-2.76,2.28-4.09,3.33s-2.68,2.12-4,3.29Z"/><path class="cls-10" d="M225,69.32l1.25,10.5A48.83,48.83,0,0,0,233,71.43"/><path d="M225.73,81.45l-1.44-12,1.49-.18,1.07,8.94A48.93,48.93,0,0,0,232.37,71l1.26.8a49.46,49.46,0,0,1-6.81,8.52Z"/><path class="cls-7" d="M236.42,72.21a54.53,54.53,0,0,0,2.8,9.67l6.9-8.62"/><path d="M239,83.39l-.46-1.25a55.88,55.88,0,0,1-2.83-9.8l1.47-.26a49.3,49.3,0,0,0,2.32,8.29l6.07-7.58,1.17.94Z"/><path class="cls-20" d="M249.1,73.19a38.23,38.23,0,0,0,3.44,9.62A4.88,4.88,0,0,0,253.86,81l4-7.55"/><path d="M252.29,83.94l-.41-.79a38.3,38.3,0,0,1-3.51-9.81l1.47-.31a36.37,36.37,0,0,0,2.89,8.47c.17-.27.32-.56.47-.85l4-7.55,1.32.7-4,7.55A5.77,5.77,0,0,1,253,83.41Z"/><path class="cls-10" d="M260.85,73.3c.69,3.53,1.49,7.28,4,9.83A40.53,40.53,0,0,1,270.74,73"/><path d="M265.13,84.46l-.79-.8c-2.78-2.8-3.58-6.91-4.22-10.21l1.47-.29c.54,2.76,1.19,6.12,3.06,8.57a40,40,0,0,1,5.52-9.17l1.15,1a39.79,39.79,0,0,0-5.76,9.89Z"/><path d="M254.46,74.29a112.39,112.39,0,0,1-14.55-.85A89.3,89.3,0,0,1,186.3,45.56a127,127,0,0,1-10.18-13c-3.83-5.46-8-11.9-9.31-19.3a.75.75,0,1,1,1.47-.26c1.24,7.09,5.33,13.37,9.07,18.7a125.22,125.22,0,0,0,10.06,12.79A87.76,87.76,0,0,0,240.11,72c10.7,1.39,21.67.76,32.28.15a.74.74,0,0,1,.79.71.75.75,0,0,1-.7.79C266.55,74,260.51,74.29,254.46,74.29Z"/><path class="cls-7" d="M155.87,81.49s2-5,9.5-5,10,3.5,10,3.5l-7.13,8.8Z"/><path d="M168.41,89.77l-13.47-8,.23-.6c.09-.22,2.28-5.47,10.2-5.47s10.49,3.66,10.6,3.82l.33.46Zm-11.54-8.56,11.19,6.61,6.31-7.8c-.92-.85-3.58-2.78-9-2.78S157.63,80,156.87,81.21Z"/><path class="cls-33" d="M180.85,42.24s-2-2.74,0-4.79a3.54,3.54,0,0,1,5.48,0,3.31,3.31,0,0,1,0,4.79C185,43.6,182.91,43.6,180.85,42.24Z"/><path d="M183.85,44a6.16,6.16,0,0,1-3.41-1.15l-.19-.17c-.84-1.13-1.92-3.79.07-5.77a4.3,4.3,0,0,1,6.54,0,4.07,4.07,0,0,1,0,5.85A4.2,4.2,0,0,1,183.85,44Zm-2.47-2.32c1.72,1.1,3.33,1.11,4.42,0a2.57,2.57,0,0,0,0-3.73,2.8,2.8,0,0,0-4.42,0C180,39.38,181.08,41.23,181.38,41.69Z"/><path class="cls-33" d="M166.16,45.33a29.27,29.27,0,0,0,.7-6.34c0-3.52-.7-6.33-4.22-6.33s-3.52,5.63-3.52,5.63,2.82,5.63,4.22,7A2,2,0,0,0,166.16,45.33Z"/><path d="M164.7,46.71a2.66,2.66,0,0,1-1.89-.85c-1.45-1.45-4.07-6.65-4.36-7.24l-.08-.15v-.18c0-.26,0-6.38,4.27-6.38,5,0,5,5.14,5,7.08a29.83,29.83,0,0,1-.72,6.52l0,.2-.15.15a3.33,3.33,0,0,1-1.17.71A2.67,2.67,0,0,1,164.7,46.71Zm-4.83-8.59c.84,1.65,3,5.63,4,6.68a1.13,1.13,0,0,0,1.61.13,29.12,29.12,0,0,0,.63-5.94c0-4-1-5.58-3.47-5.58S159.91,37.26,159.87,38.12Z"/><path class="cls-33" d="M171.61,45.26s4.5-5.25,7.5-5.25,5.24,1.5,5.24,3-2.24,4.5-4.49,4.5S171.61,45.26,171.61,45.26Z"/><path d="M179.86,48.26c-2.36,0-8.26-2.2-8.51-2.3l-1-.37.69-.82c.49-.56,4.82-5.51,8.07-5.51s6,1.69,6,3.75S182.51,48.26,179.86,48.26Zm-6.94-3.32c2.05.72,5.5,1.82,6.94,1.82,1.79,0,3.74-2.63,3.74-3.75,0-.91-1.75-2.25-4.49-2.25C177.28,40.76,174.48,43.3,172.92,44.94Z"/><path class="cls-33" d="M160.62,71.07s0-5.56-3.71-8.34-3.7-4.63-7.41-1.85,0,7.41,3.71,9.26A18.38,18.38,0,0,0,160.62,72Z"/><path d="M161.37,72.75h-.75a19.17,19.17,0,0,1-7.75-1.94c-2.62-1.31-5.39-4-5.64-6.74a4.15,4.15,0,0,1,1.82-3.79c3.2-2.4,4.24-1.69,6.29.15a25.76,25.76,0,0,0,2,1.7c4,3,4,8.7,4,8.94Zm-9.09-12.5c-.56,0-1.21.39-2.33,1.23a2.62,2.62,0,0,0-1.22,2.45c.19,2.13,2.62,4.45,4.81,5.54a17.84,17.84,0,0,0,6.33,1.73v-.13s-.05-5.22-3.41-7.74c-.89-.66-1.57-1.28-2.13-1.78C153.41,60.72,152.9,60.25,152.28,60.25Z"/><path class="cls-33" d="M168.23,70.07s6.12-9.79,7.34-13.46,3.68-13.45-4.89-14.68-8.56,11-8.56,11,1.22,17.13,2.44,18.35S168.23,70.07,168.23,70.07Z"/><path d="M165.41,72.38a1.91,1.91,0,0,1-1.38-.56c-1.28-1.28-2.29-13.59-2.66-18.82,0-.34,0-7.11,3.71-10.3a6.89,6.89,0,0,1,5.71-1.51,7.4,7.4,0,0,1,5.57,3.32c2.28,3.7.93,9.32-.07,12.34-1.24,3.71-7.17,13.21-7.42,13.62l-.11.13a8.16,8.16,0,0,1-1.52,1.18A3.5,3.5,0,0,1,165.41,72.38Zm4.09-29.79a5.05,5.05,0,0,0-3.44,1.24c-3.15,2.74-3.19,9.05-3.19,9.11.57,8,1.57,16.9,2.25,17.85.44.44,1.85-.54,2.53-1.19.57-.92,6.09-9.85,7.21-13.22.75-2.24,2.26-7.78.22-11.08a6,6,0,0,0-4.5-2.63A8.34,8.34,0,0,0,169.5,42.59Z"/><path class="cls-33" d="M163.22,85.75s-6.17-3.7-6.17-9.87S159.52,66,163.22,66s8.64,3.7,8.64,8.64S168.16,87,168.16,87Z"/><path d="M168.56,87.86l-5.73-1.46c-.26-.16-6.53-4-6.53-10.52s2.71-10.63,6.92-10.63,9.39,4.19,9.39,9.39S169,87,168.83,87.32Zm-5-2.81,4.23,1.06c.83-1.77,3.36-7.52,3.36-11.47,0-4.58-4.71-7.89-7.89-7.89-3.34,0-5.42,3.5-5.42,9.13C157.8,81.17,162.79,84.58,163.52,85.05Z"/><ellipse class="cls-2" cx="167.86" cy="47.01" rx="0.5" ry="1"/><ellipse class="cls-2" cx="177.36" cy="43.51" rx="1" ry="0.5" transform="matrix(0.87, -0.5, 0.5, 0.87, 2.01, 94.51)"/><ellipse class="cls-2" cx="182.36" cy="43.51" rx="1" ry="0.5" transform="translate(2.67 97.01) rotate(-30)"/><ellipse class="cls-2" cx="183.36" cy="38.52" rx="0.5" ry="1"/><ellipse class="cls-2" cx="164.37" cy="36.02" rx="0.5" ry="1"/><ellipse class="cls-2" cx="161.37" cy="38.52" rx="0.5" ry="1"/><ellipse class="cls-2" cx="164.87" cy="41.01" rx="0.5" ry="1"/><ellipse class="cls-2" cx="171.86" cy="50.01" rx="0.5" ry="1"/><ellipse class="cls-2" cx="166.37" cy="55.51" rx="0.5" ry="1"/><ellipse class="cls-2" cx="170.36" cy="58" rx="0.5" ry="1"/><ellipse class="cls-2" cx="167.86" cy="63" rx="0.5" ry="1"/><ellipse class="cls-2" cx="167.86" cy="71" rx="0.5" ry="1"/><ellipse class="cls-2" cx="159.87" cy="73" rx="0.5" ry="1"/><ellipse class="cls-2" cx="156.87" cy="66" rx="0.5" ry="1" transform="translate(-6.1 115.02) rotate(-39.56)"/><ellipse class="cls-2" cx="151.87" cy="62.5" rx="0.5" ry="1" transform="translate(-5.02 111.04) rotate(-39.56)"/><ellipse class="cls-2" cx="153.37" cy="66" rx="0.5" ry="1" transform="translate(-6.91 112.8) rotate(-39.56)"/><ellipse class="cls-2" cx="165.87" cy="75.99" rx="0.5" ry="1"/><ellipse class="cls-2" cx="162.87" cy="79.99" rx="0.5" ry="1"/><path class="cls-7" d="M155.87,82l3,14.61s1.51,3,7.55,3S174,95.09,174,95.09l1.36-14.6s-5.89,4-8.91,4A27.12,27.12,0,0,1,155.87,82Z"/><path d="M166.45,100.37c-6.43,0-8.15-3.29-8.22-3.43l-.07-.19-3.34-16.12,1.39.69a26.25,26.25,0,0,0,10.24,2.45c2.28,0,6.9-2.81,8.49-3.9l1.31-.9-1.54,16.36C174.64,95.53,173,100.37,166.45,100.37Zm-6.84-4c.26.42,1.84,2.54,6.84,2.54s6.59-3.38,6.81-4l1.21-13c-2,1.22-5.69,3.31-8,3.31a28.15,28.15,0,0,1-9.55-2Z"/><path class="cls-7" d="M156.62,85.72s4.8,3.36,9.33,3.36S175,85.31,175,85.31"/><path d="M166,89.83c-4.72,0-9.56-3.36-9.76-3.5l.86-1.23s4.66,3.23,8.9,3.23,8.55-3.56,8.6-3.6l.95,1.16C175.31,86.05,170.69,89.83,166,89.83Z"/><path class="cls-10" d="M276,123.29a26.24,26.24,0,0,1,7.78-6.35c4.38,2.18,13.26,2.53,13.88,3.5.48.74,3.45,5.45,5.1,8.09-.46,3.76-1,7.94-1.17,11.72-2.89,2.13-6,4.66-8.89,6.8-3.6-1.4-7.9-1.61-11.73-2-1.69-2.51-3.83-5.5-6.41-7.08,0-3.25.27-6.56.26-9.81C274.82,126.55,275,124.52,276,123.29Z"/><path d="M292.81,147.9l-.38-.15a36.93,36.93,0,0,0-9.61-1.78l-1.93-.2-.35,0-.19-.29c-1.82-2.7-3.83-5.4-6.18-6.85l-.36-.22V138c0-1.65.07-3.32.13-4.94s.14-3.27.13-4.88.14-3.87,1.35-5.33h0a27.44,27.44,0,0,1,8-6.53l.34-.18.35.17c2.37,1.18,6.16,1.81,9.21,2.32,3.36.55,4.54.78,5,1.45s3.4,5.36,5.11,8.1l.14.22-.17,1.42c-.44,3.51-.88,7.13-1,10.5v.36l-.29.21c-1.44,1.06-3,2.25-4.43,3.39s-3,2.34-4.47,3.41Zm-11.41-3.58,1.56.15a40.25,40.25,0,0,1,9.62,1.73c1.34-1,2.75-2.09,4.11-3.14s2.8-2.19,4.17-3.2c.16-3.32.6-6.85,1-10.27l.11-.88c-1.65-2.63-4.36-6.93-4.91-7.79a22.33,22.33,0,0,0-4-.85c-3-.5-6.7-1.12-9.27-2.29a25.73,25.73,0,0,0-7.22,6c-.68.82-1,2.24-1,4.37,0,1.64-.06,3.32-.13,4.94-.06,1.47-.12,3-.13,4.47C277.66,139.11,279.62,141.7,281.4,144.32Z"/><path class="cls-25" d="M278.88,125.56a20,20,0,0,1,5.94-4.85c3.34,1.67,10.49,1.88,11,2.35.94,1,2.27,4.49,3.53,6.5-.35,2.87-.77,6.06-.9,8.95-2.21,1.63-4.58,3.56-6.79,5.19-2.74-1.06-6-1.23-9-1.54-1.29-1.92-2.92-4.2-4.89-5.4,0-2.49.2-5,.2-7.5A6,6,0,0,1,278.88,125.56Z"/><path d="M291.74,144.55l-.38-.15a28.54,28.54,0,0,0-7.29-1.35c-.5-.05-1-.09-1.48-.15l-.35,0-.19-.29c-1.38-2.05-2.9-4.1-4.67-5.18l-.35-.22v-.42c0-1.26.05-2.54.1-3.78s.1-2.49.1-3.72a6.71,6.71,0,0,1,1.07-4.18h0a20.8,20.8,0,0,1,6.16-5l.34-.18.35.17c2,1,5.64,1.47,8.05,1.78,2.19.29,2.78.37,3.12.71a15.8,15.8,0,0,1,2,3.55c.53,1.1,1.08,2.24,1.6,3.09l.14.22-.14,1.14c-.33,2.68-.67,5.45-.78,8v.36l-.29.21c-1.1.82-2.24,1.7-3.39,2.59s-2.3,1.79-3.4,2.61Zm-8.64-3.1,1.12.11a31,31,0,0,1,7.29,1.3c1-.75,2-1.54,3.05-2.34s2.11-1.64,3.13-2.4c.13-2.53.47-5.31.78-7.77l.07-.62c-.52-.88-1-1.95-1.55-3a17.66,17.66,0,0,0-1.67-3.06c-.33-.1-1.38-.24-2.32-.36-2.51-.33-5.91-.77-8.16-1.76a19.57,19.57,0,0,0-5.39,4.49h0a5.74,5.74,0,0,0-.72,3.22c0,1.26-.05,2.54-.1,3.79-.05,1.08-.09,2.2-.1,3.3A19.18,19.18,0,0,1,283.1,141.45Z"/><path d="M282,127.82a1.89,1.89,0,0,0-1.29.13,1.7,1.7,0,0,0-.62,1.4,1.72,1.72,0,0,0,.12.81,1.75,1.75,0,0,0,.42.48,6.51,6.51,0,0,1,1.26,1.31,2,2,0,0,1,.28,1.73.22.22,0,0,1-.08.13.28.28,0,0,1-.18,0,10.21,10.21,0,0,1-1.91-.18.8.8,0,0,0-.68.08.53.53,0,0,0,0,.7,1.61,1.61,0,0,0,.66.41,3.3,3.3,0,0,0,1.76.35,3.16,3.16,0,0,0,1.36-.75,1.52,1.52,0,0,0,.6-.75,1.58,1.58,0,0,0-.3-1.09,9,9,0,0,0-1.5-2.12,1.3,1.3,0,0,1-.47-.6.79.79,0,0,1,.62-.84,2.3,2.3,0,0,1,1.13.1C283.58,128.22,282.83,127.93,282,127.82Z"/><path d="M281.38,136a4.58,4.58,0,0,1-1.73-.44,2.23,2.23,0,0,1-1-.63,1.27,1.27,0,0,1,.09-1.74,1.47,1.47,0,0,1,1.3-.24,10.93,10.93,0,0,0,1.39.15,1.47,1.47,0,0,0-.26-.73,5.06,5.06,0,0,0-1-1l-.14-.12a2.53,2.53,0,0,1-.58-.7,2.19,2.19,0,0,1-.2-1.19,2.27,2.27,0,0,1,1-2,2.6,2.6,0,0,1,1.78-.25h0a2.29,2.29,0,0,1,1.81.94,1.54,1.54,0,0,1-.05,1.48l-.26.55-.6-.15a1.75,1.75,0,0,0-.75-.1h0l.12.11a9.4,9.4,0,0,1,1.71,2.35,1.87,1.87,0,0,1-.49,2.8,4,4,0,0,1-1.7.9A2.18,2.18,0,0,1,281.38,136Zm0-7.47a.7.7,0,0,0-.32.06.79.79,0,0,0-.23.47A1.74,1.74,0,0,1,281.38,128.52Z"/><path d="M284.05,129.75a9.1,9.1,0,0,1,1.23.39,12.52,12.52,0,0,1-.21,1.63l-.41,1.36a2,2,0,0,0,.08,1.89.44.44,0,0,0,.23.15c.29.06.44-.33.48-.62.13-1,.31-2,.48-3l.22-1.23a.3.3,0,0,1,.08-.19.37.37,0,0,1,.23,0l1.32.17c0-.39,0-.32.39-1.13a.16.16,0,0,0,0-.16c0-.06-.13-.06-.2-.06a31.47,31.47,0,0,1-3.5-.43Z"/><path d="M285,135.93l-.22,0a1.14,1.14,0,0,1-.63-.4,2.74,2.74,0,0,1-.24-2.59l.41-1.36a6.84,6.84,0,0,0,.13-.9c-.23-.06-.48-.13-.68-.2l-.68-.25.78-2.47.59,0,.74.11a17.82,17.82,0,0,0,2.7.32,1,1,0,0,1,.8.34.92.92,0,0,1,.12.94l-.13.3c-.18.38-.18.38-.19.56l-.06.78-1.66-.19-.14.79c-.17,1-.34,1.95-.47,2.93a1.65,1.65,0,0,1-.58,1.09A1.06,1.06,0,0,1,285,135.93Zm.58-6.47.17.11h0l.1-.07Z"/><path d="M287.83,131.82a7,7,0,0,0-.37,2.49.49.49,0,0,0,0,.24.47.47,0,0,0,.19.15,6.29,6.29,0,0,0,1.36.59,2.09,2.09,0,0,0,1.46-.11,2.56,2.56,0,0,0,1-1,5.94,5.94,0,0,0,.9-2.8,1.6,1.6,0,0,0-.31-1.19,1.72,1.72,0,0,0-.9-.43c-.83-.2-1.29-.32-1.94.18A4.78,4.78,0,0,0,287.83,131.82Z"/><path d="M289.68,136.12a3.35,3.35,0,0,1-.81-.11,6.47,6.47,0,0,1-1.53-.65,1.09,1.09,0,0,1-.49-.42,1.24,1.24,0,0,1-.14-.65,7.48,7.48,0,0,1,.43-2.75,5.46,5.46,0,0,1,1.63-2.19,2.61,2.61,0,0,1,2.53-.32,2.49,2.49,0,0,1,1.33.67,2.29,2.29,0,0,1,.5,1.73,6.61,6.61,0,0,1-1,3.16,3.41,3.41,0,0,1-1.27,1.27A2.68,2.68,0,0,1,289.68,136.12Zm-1.47-2a4.71,4.71,0,0,0,1,.43,1.34,1.34,0,0,0,.94-.05,1.76,1.76,0,0,0,.66-.71,5.1,5.1,0,0,0,.79-2.44c0-.44-.06-.59-.11-.65a1.3,1.3,0,0,0-.52-.21c-.86-.2-1-.21-1.32.05a4.07,4.07,0,0,0-1.16,1.56h0A6,6,0,0,0,288.21,134.13Z"/><path class="cls-25" d="M288.87,132.83a1.82,1.82,0,0,0,.39,1c.57.4.48.14,1-.36s1.16-2,.12-2.22C289.82,131.1,288.81,132.36,288.87,132.83Z"/><path d="M289.68,134.75a1.58,1.58,0,0,1-.85-.34,2.36,2.36,0,0,1-.7-1.49h0a2.73,2.73,0,0,1,1-1.94,1.54,1.54,0,0,1,1.37-.49,1.38,1.38,0,0,1,1.06,1,3,3,0,0,1-.81,2.5,2,2,0,0,0-.22.26A1.12,1.12,0,0,1,289.68,134.75Zm-.06-1.95a.83.83,0,0,0,0,.15l0,0a2.18,2.18,0,0,0,.43-.79A2,2,0,0,0,289.62,132.8Z"/><path d="M293.26,130.14a.55.55,0,0,1,.1-.31.7.7,0,0,1,.21-.11,5.49,5.49,0,0,1,1.67-.09,6.59,6.59,0,0,1,1.48.18,1.82,1.82,0,0,1,1.15.89,1.09,1.09,0,0,1-.3,1.33,1.84,1.84,0,0,1-.76.21l-1.57.19a1.31,1.31,0,0,0-.65.2c-.34.26-.34.75-.39,1.18a6.83,6.83,0,0,1-.53,1.68c-.16.38-.56,1-1,.53-.24-.28.1-1.54.13-1.9C293,132.79,293.12,131.47,293.26,130.14Z"/><path d="M293,136.94a1.12,1.12,0,0,1-.88-.44c-.39-.45-.29-1.16-.1-2.12,0-.14.05-.26.06-.34l.42-4a1.14,1.14,0,0,1,.85-1.06,5.31,5.31,0,0,1,1.8-.12h.25a6.43,6.43,0,0,1,1.53.2,2.53,2.53,0,0,1,1.6,1.28,1.84,1.84,0,0,1-.56,2.29,2.54,2.54,0,0,1-1.08.33l-1.57.18a1.05,1.05,0,0,0-.29.06,2.61,2.61,0,0,0-.08.47l0,.2a7.52,7.52,0,0,1-.58,1.88c-.16.38-.53,1.05-1.19,1.15Zm.36-1.23Zm.62-5.31-.22,2a1.44,1.44,0,0,1,.36-.42,2.07,2.07,0,0,1,1-.35l1.57-.18a1.36,1.36,0,0,0,.43-.1.34.34,0,0,0,0-.38,1.08,1.08,0,0,0-.68-.49,5.21,5.21,0,0,0-1.17-.14h-.26A4.89,4.89,0,0,0,294,130.4Zm-.73-.26.73.08a.1.1,0,0,0,0-.05Z"/><path class="cls-25" d="M294.65,130.72a5.6,5.6,0,0,0-.09.61c0,.15.06.33.21.37a.45.45,0,0,0,.2,0l1.22-.22c.24,0,.56-.2.48-.43s-.21-.51-.37-.54c-.49-.06-1.63-.1-1.65.21"/><path d="M294.85,132.46a1,1,0,0,1-.29,0,1.1,1.1,0,0,1-.75-1.09,4.33,4.33,0,0,1,.1-.74.86.86,0,0,1,.33-.56,3.37,3.37,0,0,1,2.16-.27c.61.08.89.76,1,1a1,1,0,0,1-.09.8,1.44,1.44,0,0,1-1,.61l-1.22.22Z"/><path class="cls-18" d="M22.11,121.87a55,55,0,0,0,5.44,13.8,1.61,1.61,0,0,0,.48.61c.63.42,1.38-.17,2-.61,5.15-3.63,12-6.35,18.55-8.42a2.34,2.34,0,0,0,1.35-.8,2.25,2.25,0,0,0,.23-1.21c-.07-12.95-6.3-18.87-8.62-31.61a106,106,0,0,0-24.66,10.29c-2.16,1.25-.46,2.28.5,3.65A24.1,24.1,0,0,1,20,113.16C21.43,117,21,118,22.11,121.87Z"/><path d="M28.48,137.18a1.52,1.52,0,0,1-.86-.27,2.45,2.45,0,0,1-.73-.88,56,56,0,0,1-5.5-14h0a34.66,34.66,0,0,1-.87-4,22.74,22.74,0,0,0-1.19-4.67,23.57,23.57,0,0,0-2.57-5.4,8.57,8.57,0,0,0-.6-.75,3,3,0,0,1-1.07-2.35,2.51,2.51,0,0,1,1.4-1.64A106.5,106.5,0,0,1,41.33,92.9l.79-.21.14.8A65.45,65.45,0,0,0,46.53,107c2.23,5.49,4.33,10.68,4.37,18.27a2.88,2.88,0,0,1-.35,1.61A3,3,0,0,1,48.8,128c-8,2.53-14,5.25-18.34,8.32l-.11.08A3.52,3.52,0,0,1,28.48,137.18ZM40.94,94.57a105.31,105.31,0,0,0-23.7,10c-.46.27-.65.49-.67.6s.41.74.73,1.12a9.48,9.48,0,0,1,.69.85,24.82,24.82,0,0,1,2.75,5.76A23.81,23.81,0,0,1,22,117.83a32.3,32.3,0,0,0,.84,3.84h0a53.8,53.8,0,0,0,5.37,13.63,1.18,1.18,0,0,0,.24.36c.16.11.76-.33,1-.52l.11-.08c4.47-3.15,10.61-5.94,18.76-8.52a1.89,1.89,0,0,0,.93-.49,1.71,1.71,0,0,0,.12-.8c0-7.3-2.09-12.36-4.26-17.72A69.25,69.25,0,0,1,40.94,94.57Z"/><path class="cls-33" d="M39.6,118.43a32.55,32.55,0,0,1,2.21,6.38A5.17,5.17,0,0,1,42,127a2,2,0,0,1-1.36,1.58c-1.06.24-2-.73-2.55-1.67a11.22,11.22,0,0,1-1.32-3.48,5.06,5.06,0,0,0-1-2.78.91.91,0,0,0-.77-.29c-.52.13-.56.84-.5,1.37l.9,6.87a2.66,2.66,0,0,1-.37,2.19,1.83,1.83,0,0,1-2.51-.24,6.29,6.29,0,0,1-1.22-2.5,37.48,37.48,0,0,0-2-4.51c-.31-.61-.47-1.15-1-1.44s-1,0-1.49-.43a2.5,2.5,0,0,1-.62-1.07l-.91-2.49c-.63-1.72-1.27-3.57-.8-5.34.31-1.14,1.05-2.12,1.46-3.23a2.85,2.85,0,0,0-.57-3.26c-.44-.32-1.05-.47-1.28-1a1.23,1.23,0,0,1,.63-1.49,4.79,4.79,0,0,1,1.73-.38,10.62,10.62,0,0,0,3.49-1,2.76,2.76,0,0,0,1.23-1,4.46,4.46,0,0,1,.45-.8,1.82,1.82,0,0,1,1.54-.29c.76.09,1.76.51,1.58,1.25a1.91,1.91,0,0,1-.44.66,2.82,2.82,0,0,0-.45,2.78A2.86,2.86,0,0,0,36,106.82a6.86,6.86,0,0,1,1.36.19,2.71,2.71,0,0,1,1.1.92A14.81,14.81,0,0,1,41.22,115a3.37,3.37,0,0,1-.36,2.58c-1.2,1.55-2.35-.18-2.59-1.3-.43-2-.84-4-1.26-6"/><path d="M34,131.92a2.91,2.91,0,0,1-2-.86,6.3,6.3,0,0,1-1.31-2.52l-.09-.27a35.13,35.13,0,0,0-1.92-4.41l-.17-.34c-.2-.44-.31-.66-.54-.77a1.26,1.26,0,0,0-.36-.07,2.05,2.05,0,0,1-1.28-.46,3.19,3.19,0,0,1-.83-1.38l-.91-2.49c-.58-1.57-1.37-3.73-.82-5.79a9.21,9.21,0,0,1,.86-2,12.53,12.53,0,0,0,.61-1.3,2.18,2.18,0,0,0-.3-2.4c-.12-.08-.25-.15-.38-.22a2.39,2.39,0,0,1-1.14-1,2,2,0,0,1,.95-2.46,4.54,4.54,0,0,1,1.76-.45l.24,0a10.1,10.1,0,0,0,3.26-1,2.12,2.12,0,0,0,.91-.68c0-.07.07-.15.11-.23a2.66,2.66,0,0,1,.44-.7,2.49,2.49,0,0,1,2.16-.51,2.92,2.92,0,0,1,2,1,1.46,1.46,0,0,1,.22,1.17,2,2,0,0,1-.51.85l-.08.1a2.06,2.06,0,0,0,1.27,3.34l.43,0a3.37,3.37,0,0,1,1.08.19A3.31,3.31,0,0,1,39,107.46,15.49,15.49,0,0,1,42,114.91a4,4,0,0,1-.5,3.14,2.51,2.51,0,0,1-.87.75,33.37,33.37,0,0,1,1.95,5.84,5.71,5.71,0,0,1,.17,2.49,2.66,2.66,0,0,1-1.92,2.16c-1.21.28-2.47-.48-3.37-2A12,12,0,0,1,36,123.56l-.08-.42a3.64,3.64,0,0,0-.74-2l0,0a1.74,1.74,0,0,0,0,.45l.89,6.88a3.32,3.32,0,0,1-.57,2.8,2.11,2.11,0,0,1-1.53.63Zm-1.41-30.85a.7.7,0,0,0-.45.1,1.57,1.57,0,0,0-.16.3c-.06.12-.12.25-.19.37a3.39,3.39,0,0,1-1.54,1.25,11.42,11.42,0,0,1-3.74,1.09l-.26,0a3.11,3.11,0,0,0-1.18.26c-.24.13-.37.41-.32.5s.27.23.49.35a3.87,3.87,0,0,1,.55.34c1.28.93,1.34,2.74.83,4.12a12.43,12.43,0,0,1-.69,1.47,8,8,0,0,0-.74,1.69c-.39,1.49.12,3.1.78,4.89l.91,2.5a2,2,0,0,0,.4.76c.07.06.18.08.43.1a2.27,2.27,0,0,1,.91.22,2.69,2.69,0,0,1,1.22,1.48l.15.3a37.06,37.06,0,0,1,2,4.6l.1.28A5,5,0,0,0,33,130a1.58,1.58,0,0,0,1,.41.62.62,0,0,0,.46-.17,2.1,2.1,0,0,0,.16-1.57l-.89-6.87c-.15-1.18.25-2,1.06-2.2a1.63,1.63,0,0,1,1.47.48,4.76,4.76,0,0,1,1.18,2.78l.08.39a10.51,10.51,0,0,0,1.24,3.25c.4.7,1.1,1.46,1.74,1.32a1.22,1.22,0,0,0,.78-1,4.42,4.42,0,0,0-.16-1.86,31.91,31.91,0,0,0-2.16-6.23l.08,0a3.65,3.65,0,0,1-1.46-2.25c-.29-1.34-.56-2.68-.84-4l-.42-2,1.47-.3.42,2c.27,1.34.55,2.68.84,4a2,2,0,0,0,.84,1.32c.08,0,.25-.11.42-.32a2.8,2.8,0,0,0,.21-2,14,14,0,0,0-2.64-6.73,2.08,2.08,0,0,0-.77-.69,3,3,0,0,0-.66-.1,4.89,4.89,0,0,1-.55,0,3.56,3.56,0,0,1-2.21-5.77l.11-.13a2.15,2.15,0,0,0,.18-.23,2.08,2.08,0,0,0-.94-.32A2.52,2.52,0,0,0,32.54,101.07Z"/><path d="M28.22,122.74a1.78,1.78,0,0,1-.86-.22l.72-1.31a.39.39,0,0,0,.44-.11,1.68,1.68,0,0,0,0-1c-.26-1.64-.61-3.27-1-4.87a4.61,4.61,0,0,1-.2-2.32l1.46.36a3.36,3.36,0,0,0,.18,1.55,49.7,49.7,0,0,1,1.07,5,2.79,2.79,0,0,1-.25,2A1.86,1.86,0,0,1,28.22,122.74Z"/><circle cx="28.22" cy="105.75" r="0.3"/><path d="M28.22,106.8a1,1,0,1,1,1.05-1A1.06,1.06,0,0,1,28.22,106.8Zm0-1.5a.45.45,0,0,0-.45.45.45.45,0,1,0,.89,0A.45.45,0,0,0,28.22,105.3Z"/><circle cx="31.84" cy="104.54" r="0.3"/><path d="M31.84,105.59a1.05,1.05,0,1,1,1.05-1A1,1,0,0,1,31.84,105.59Zm0-1.5a.45.45,0,0,0,0,.9.45.45,0,0,0,0-.9Z"/><path d="M30.52,107.22c.27,0,.5.21.77.29h0s0,0,0,0c.1-.2.08-.63.18-.83-.12-.22-.47-.05-.6,0S30.33,107.26,30.52,107.22Z"/><path d="M31.39,108.31l-.31-.08a1.89,1.89,0,0,1-.44-.19l-.11-.06-.53.11-.25-.67c-.19-.64.55-1.31.9-1.46,1-.42,1.41.09,1.55.33l.19.35-.18.36s0,.09,0,.16a1.66,1.66,0,0,1-.17.66l-.12.24Z"/><path d="M77.91,116.16a.63.63,0,0,1-.26,0,.75.75,0,0,1-.44-1,10.34,10.34,0,0,0,.69-3.38.77.77,0,0,1,.78-.72.74.74,0,0,1,.72.78,12.11,12.11,0,0,1-.78,3.85A.76.76,0,0,1,77.91,116.16Z"/><path class="cls-10" d="M71.47,98.74c.89-1,1.77-2.26,3.11-2.41a3.58,3.58,0,0,1,3,1.59,20.55,20.55,0,0,0,2.14,2.76,9,9,0,0,0,4,1.73c3.12.75,6.28,1.35,9.46,1.82a40.58,40.58,0,0,0-5.59,4.11,14.68,14.68,0,0,1-6.08,3.22,6.36,6.36,0,0,1-6.28-2,36.21,36.21,0,0,1-1.72-3.27c-1.65-2.71-4.61-3.45-7.24-4.75C67.6,99.85,70,100.39,71.47,98.74Z"/><path d="M80,112.46A6.7,6.7,0,0,1,74.61,110a10.55,10.55,0,0,1-1.11-2,11.63,11.63,0,0,0-.67-1.32c-1.16-1.91-3.09-2.76-5.14-3.66-.6-.26-1.2-.52-1.78-.81l-.84-.42.59-.72a5.45,5.45,0,0,1,3-1.68,4.55,4.55,0,0,0,2.27-1.15h0l.38-.43a5.16,5.16,0,0,1,3.21-2.22,4.3,4.3,0,0,1,3.61,1.86c.27.34.52.71.77,1.07a8.68,8.68,0,0,0,1.29,1.6,8.4,8.4,0,0,0,3.69,1.56c3.09.74,6.25,1.35,9.4,1.81l2.24.33-2,1.07a27.29,27.29,0,0,0-4.23,3l-1.24,1a15.52,15.52,0,0,1-6.4,3.36A8.38,8.38,0,0,1,80,112.46Zm-12.36-11.1.66.29c2.17.95,4.42,1.93,5.83,4.25.29.49.52,1,.75,1.48a8.62,8.62,0,0,0,.93,1.73c1.28,1.69,3.7,2.08,5.54,1.71a14.25,14.25,0,0,0,5.76-3.07c.41-.32.82-.65,1.22-1,.88-.71,1.77-1.44,2.72-2.1-2.53-.42-5.05-.93-7.53-1.52a9.75,9.75,0,0,1-4.34-1.9,9.63,9.63,0,0,1-1.53-1.88c-.22-.33-.45-.66-.7-1S75.69,97,74.66,97.08c-.85.09-1.52.87-2.24,1.7l-.39.46a5.89,5.89,0,0,1-3,1.59A7.58,7.58,0,0,0,67.63,101.36Z"/><circle cx="75.18" cy="100.09" r="0.7"/><path d="M75.18,101.54a1.45,1.45,0,1,1,1.45-1.45A1.45,1.45,0,0,1,75.18,101.54Zm-.05-1.45a.06.06,0,0,0,.05,0Z"/></g></g></svg>