<svg xmlns="http://www.w3.org/2000/svg" viewBox="0 0 328 304.38"><defs><style>.cls-1{fill:#90452d;}.cls-16,.cls-2{fill:#f8ebc0;}.cls-10,.cls-3{fill:#c79e73;}.cls-4{fill:#1a1a1a;}.cls-25,.cls-5{fill:#90d294;}.cls-10,.cls-16,.cls-18,.cls-19,.cls-20,.cls-21,.cls-5,.cls-6,.cls-7,.cls-8{stroke:#000;stroke-miterlimit:10;stroke-width:0.5px;}.cls-12,.cls-7{fill:#fff;}.cls-15,.cls-8{fill:#fec251;}.cls-9{fill:#846741;}.cls-11{fill:#5bbdd9;}.cls-13{fill:#bda8f2;}.cls-14{fill:#e2dbff;}.cls-17,.cls-19{fill:#472c4d;}.cls-18{fill:#c1d1dd;}.cls-20,.cls-23{fill:#f1593a;}.cls-21{fill:#f4afd0;}.cls-22{fill:#b8edd1;}.cls-24{fill:#74c698;}</style></defs><title>Ресурс 15</title><g id="Слой_2" data-name="Слой 2"><g id="Слой_2-2" data-name="Слой 2"><polygon class="cls-1" points="171.94 1.67 1.5 73.54 1.5 213.92 165.76 302.67 326.5 213.92 326.5 89.38 171.94 1.67"/><path d="M165.77,304.38l-.72-.39L0,214.82V72.55L172,0l.64.36L328,88.51v126.3l-.77.43ZM3,213,165.76,301,325,213V90.25L171.84,3.34,3,74.54Z"/><path class="cls-2" d="M320.34,203.13,166,286.25a.9.9,0,0,1-.86,0L11.4,201.62a.9.9,0,0,1,0-1.58l159.47-86.92.53.31v.2L196.1,128l124.27,73.53A.9.9,0,0,1,320.34,203.13Z"/><path d="M165.59,287.85a2.42,2.42,0,0,1-1.16-.3L10.68,202.93a2.39,2.39,0,0,1,0-4.2l160.22-87.34,2,1.17v.21l23.94,14,124.28,73.54a2.37,2.37,0,0,1,1.18,2.11,2.41,2.41,0,0,1-1.26,2.06L166.73,287.57A2.43,2.43,0,0,1,165.59,287.85Zm-152.5-87L165.6,284.77l153.09-82.45-123.36-73-24.66-14.39Z"/><path class="cls-3" d="M171.24,10.53,9.44,76.12V199.84a.9.9,0,0,0,1.33.79l160.64-87v-103A.11.11,0,0,0,171.24,10.53Z"/><path class="cls-4" d="M10.34,202.24a2.45,2.45,0,0,1-1.23-.34,2.39,2.39,0,0,1-1.17-2.06V75.11l.94-.38L170.65,9.15a1.62,1.62,0,0,1,2.26,1.48v103.9l-.78.42L11.48,202A2.44,2.44,0,0,1,10.34,202.24Zm.6-125.11v121.7l159-86.09v-100Z"/><path class="cls-3" d="M321.74,95.06V200.6a.43.43,0,0,1-.64.37L196.1,128l-24.69-14.41V11.22a.46.46,0,0,1,.68-.4Z"/><path d="M321.31,202.53a2,2,0,0,1-1-.26L169.91,114.49V11.22a2,2,0,0,1,2.91-1.71L323.24,94.18V200.6a1.92,1.92,0,0,1-1,1.67A2,2,0,0,1,321.31,202.53Zm-148.4-89.76,147.33,86V95.93L172.91,13Z"/><polygon class="cls-5" points="247.6 118.52 249.31 71.4 281.98 86.25 280.19 135.53 247.6 118.52"/><path class="cls-6" d="M280.34,135.78l-32.9-17.17,1.72-47.45.21.1,32.77,14.89Zm-32.58-17.35L280,135.28l1.78-48.93L249.46,71.64Z"/><circle class="cls-7" cx="259.19" cy="111.34" r="10.24"/><path class="cls-6" d="M258.81,121.72a10.39,10.39,0,1,1,10.76-10A10.41,10.41,0,0,1,258.81,121.72Zm.74-20.46a10.08,10.08,0,1,0,9.71,10.44A10.1,10.1,0,0,0,259.55,101.26Z"/><ellipse class="cls-6" cx="258.7" cy="111.35" rx="9.59" ry="1.73" transform="translate(138.03 365.83) rotate(-87.92)"/><path class="cls-6" d="M258.34,121.08c-1.22,0-1.7-5.08-1.52-9.8s1-9.71,2.23-9.67,1.7,5.08,1.53,9.8S259.57,121.13,258.34,121.08Zm.7-19.16c-.64,0-1.69,3.3-1.91,9.37s.58,9.46,1.23,9.48,1.69-3.3,1.91-9.37S259.68,101.94,259,101.92Z"/><path class="cls-6" d="M256,85.19a2.22,2.22,0,0,1-1.53-.75,2.36,2.36,0,0,1-.43-.68,1.51,1.51,0,0,1-.26.46,1.86,1.86,0,0,1-1.61.53,1.81,1.81,0,0,1-1.37-.64,2.34,2.34,0,0,1-.18-1.81.15.15,0,0,1,.18-.12.15.15,0,0,1,.12.18,2.05,2.05,0,0,0,.13,1.56,1.59,1.59,0,0,0,1.15.53,1.64,1.64,0,0,0,1.34-.43,2,2,0,0,0,.34-1.18v0l.31,0v0a1.93,1.93,0,0,0,.51,1.37,1.87,1.87,0,0,0,1.34.65,1,1,0,0,0,.65-.2A1.28,1.28,0,0,0,257,84a2,2,0,0,1,.24-.69.15.15,0,0,1,.21,0,.14.14,0,0,1,.05.21,1.79,1.79,0,0,0-.2.59,1.43,1.43,0,0,1-.37.83,1.21,1.21,0,0,1-.87.29Z"/><path class="cls-6" d="M271.94,100.35a2.18,2.18,0,0,1-1.53-.75,2.12,2.12,0,0,1-.43-.68,1.45,1.45,0,0,1-.26.47,1.89,1.89,0,0,1-1.61.53,1.79,1.79,0,0,1-1.37-.65,2.32,2.32,0,0,1-.18-1.8.15.15,0,1,1,.3.06,2.06,2.06,0,0,0,.13,1.56,1.54,1.54,0,0,0,1.15.52,1.59,1.59,0,0,0,1.34-.42,2.06,2.06,0,0,0,.34-1.18v0l.31,0v0a2,2,0,0,0,1.85,2,.89.89,0,0,0,.65-.19,1.31,1.31,0,0,0,.28-.68,1.89,1.89,0,0,1,.24-.69.16.16,0,0,1,.21,0,.17.17,0,0,1,.05.22,1.71,1.71,0,0,0-.2.59,1.49,1.49,0,0,1-.37.83,1.2,1.2,0,0,1-.87.28Z"/><path class="cls-6" d="M275.9,94.2a1.61,1.61,0,0,1-.65-.17,1.94,1.94,0,0,1-.94-1.31.66.66,0,0,1-.69.71,6.45,6.45,0,0,1-2.39-.27.92.92,0,0,1-.5-.29,1,1,0,0,1-.18-.62,7.32,7.32,0,0,1,.12-1.69.15.15,0,0,1,.18-.13.16.16,0,0,1,.12.18,7.41,7.41,0,0,0-.11,1.63.72.72,0,0,0,.11.44.78.78,0,0,0,.35.18,6.08,6.08,0,0,0,2.28.26.47.47,0,0,0,.27-.07.6.6,0,0,0,.14-.38c0-.4.09-.8.12-1.2h.31c.06.91.22,1.9.95,2.28a1.47,1.47,0,0,0,1.52-.2,2.51,2.51,0,0,0,.86-1.4.16.16,0,1,1,.3.08,2.81,2.81,0,0,1-1,1.57A1.89,1.89,0,0,1,275.9,94.2Z"/><path class="cls-6" d="M275.89,127.5c-.15,0-.29,0-.43,0a2.7,2.7,0,0,1-1-.29,2.25,2.25,0,0,1-1-1.88c0-.21,0-.42,0-.63a3.27,3.27,0,0,1-1.6,1.43,1.21,1.21,0,0,1-.7.09,1.26,1.26,0,0,1-.5-.27,3.36,3.36,0,0,1-1.14-3.11.16.16,0,0,1,.18-.12.15.15,0,0,1,.13.18,3,3,0,0,0,1,2.81,1,1,0,0,0,.37.21.92.92,0,0,0,.51-.08,3,3,0,0,0,1.83-2.58h.31c0,.31,0,.61-.06.9a7.39,7.39,0,0,0-.06,1.15,1.94,1.94,0,0,0,.83,1.63,2.4,2.4,0,0,0,.89.24,2.45,2.45,0,0,0,1.39-.15c.78-.4,1-1.44,1.06-2.41a.16.16,0,0,1,.17-.14.15.15,0,0,1,.14.17c-.1,1.05-.32,2.19-1.22,2.66A2.39,2.39,0,0,1,275.89,127.5Z"/><path class="cls-6" d="M272.48,86.61l-.43,0a2.57,2.57,0,0,1-1.46-.75,1.54,1.54,0,0,1-.3-1.62.15.15,0,0,1,.21-.07.15.15,0,0,1,.07.2,1.26,1.26,0,0,0,.26,1.29,2.15,2.15,0,0,0,1.27.64,2,2,0,0,0,1.36-.17A1.05,1.05,0,0,0,274,85a.15.15,0,0,1,.11-.19.15.15,0,0,1,.19.11,1.36,1.36,0,0,1-.67,1.45A2.09,2.09,0,0,1,272.48,86.61Z"/><path class="cls-6" d="M256.6,94.43a4.29,4.29,0,0,1-.77-.08,3.69,3.69,0,0,1-1.59-.65,1.9,1.9,0,0,1-.78-1.56s0,0,0,0h-.08a.16.16,0,0,1-.09-.2.19.19,0,0,1,.23-.14.42.42,0,0,1,.26.4,1.61,1.61,0,0,0,.66,1.29,3.11,3.11,0,0,0,1.46.59,3.4,3.4,0,0,0,2.26-.23,1.8,1.8,0,0,0,1-1.81.15.15,0,0,1,.12-.18.15.15,0,0,1,.18.12,2.12,2.12,0,0,1-1.17,2.15A3.27,3.27,0,0,1,256.6,94.43Z"/><path class="cls-5" d="M273,104.1a3.13,3.13,0,0,1-.35,3.71c-1.48,1.55-4.06,1.14-6,.26-5.18-2.33-9.34-7.1-15-7.85a1.92,1.92,0,0,1,1.13-2"/><path class="cls-6" d="M269.72,109a9.09,9.09,0,0,1-3.15-.79,38.14,38.14,0,0,1-5.69-3.42c-3-2-5.82-4-9.24-4.43h-.12l0-.11A2.06,2.06,0,0,1,252.74,98l.1.29a1.76,1.76,0,0,0-1.05,1.76c3.45.5,6.41,2.51,9.26,4.46a37.65,37.65,0,0,0,5.64,3.39c.93.42,4.08,1.63,5.83-.23a2.94,2.94,0,0,0,.34-3.51l.26-.17a3.25,3.25,0,0,1-.37,3.89A3.81,3.81,0,0,1,269.72,109Z"/><polygon class="cls-8" points="262.98 101.08 248.65 93.73 248.82 89.08 263.13 96.74 263.82 77.83 268.08 80.15 267.42 98.44 281.12 105.77 280.95 110.42 267.24 103.4 262.98 101.08"/><path class="cls-6" d="M281.09,110.67l-13.92-7.13-4.27-2.33-14.4-7.39.18-5L263,96.48l.68-18.91,4.57,2.49-.67,18.29,13.71,7.33Zm-32.28-17,14.24,7.31,4.26,2.33,13.49,6.9.16-4.31-13.7-7.33.66-18.29L264,78.08,263.28,97,249,89.33Z"/><polygon class="cls-9" points="151.56 101.48 151.56 129.43 242.98 182.76 242.98 151.41 151.56 101.48"/><path d="M243.16,183.08l-.27-.16-91.52-53.39V101.17l.27.14,91.52,50Zm-91.41-53.75,91,53.11V151.51l-91-49.72Z"/><polygon class="cls-1" points="211.62 151.5 227.87 160.09 227.87 160.85 211.62 152.25 211.62 151.5"/><path d="M228.05,161.16l-16.62-8.8v-1.17l16.62,8.8Zm-16.24-9,15.87,8.4v-.34l-15.87-8.4Z"/><polygon class="cls-10" points="151.75 101.68 151.75 129.26 166.92 138.14 166.92 109.95 151.75 101.68"/><path class="cls-6" d="M167.2,138.62l-15.74-9.21V101.22l15.74,8.58ZM152,129.11l14.61,8.55V110.11l-14.61-8Z"/><path class="cls-10" d="M166.71,110.08l-9.3,5.51v29.09l9.45-6.73V110.17A.1.1,0,0,0,166.71,110.08Z"/><path class="cls-6" d="M157.13,145.24V115.41l9.42-5.58a.39.39,0,0,1,.39,0,.43.43,0,0,1,.2.35v27.92Zm.57-29.48v28.35l8.87-6.32V110.5Z"/><polygon class="cls-10" points="196.7 126.39 196.7 155.48 211.87 164.36 211.87 134.66 196.7 126.39"/><path class="cls-6" d="M212.16,164.84l-15.74-9.21v-29.7l15.74,8.58ZM197,155.33l14.61,8.55V134.82l-14.61-8Z"/><path class="cls-6" d="M200.35,147a2.13,2.13,0,0,1-1.47-.9,3.48,3.48,0,0,1-.61-1.73,3.78,3.78,0,0,1,.54-2.4,1.76,1.76,0,0,1,1.54-.66.41.41,0,0,1,.35.43.34.34,0,0,1-.41.31,1.14,1.14,0,0,0-.85.38,3.06,3.06,0,0,0-.41,1.94,2.68,2.68,0,0,0,.44,1.32,1.23,1.23,0,0,0,1,.55.42.42,0,0,1,.42.37.33.33,0,0,1-.33.39Z"/><path class="cls-11" d="M175.25,114.4v21.5c3.45,0,6.17,3.14,9.3,4.59a.44.44,0,0,0,.22,0c.13,0,.18-.18.21-.31a66.42,66.42,0,0,0,1.42-20.75,3.54,3.54,0,0,0-.42-1.64,3.49,3.49,0,0,0-1.68-1.14,58.49,58.49,0,0,0-8-2.65C176,114,175.22,114.05,175.25,114.4Z"/><path d="M184.73,141a1,1,0,0,1-.38-.09,23.88,23.88,0,0,1-3.28-2c-1.92-1.32-3.74-2.56-5.82-2.56h-.5v-22a.72.72,0,0,1,.26-.59,1.83,1.83,0,0,1,1.45-.26,58.14,58.14,0,0,1,8,2.67,3.9,3.9,0,0,1,1.91,1.33,4,4,0,0,1,.5,1.86,67.12,67.12,0,0,1-1.43,20.91.81.81,0,0,1-.59.69Zm-9-5.62c2.18.18,4.06,1.46,5.88,2.71a24.87,24.87,0,0,0,2.91,1.8,66.48,66.48,0,0,0,1.37-20.41,2.2,2.2,0,0,0-1.8-2.36,57.9,57.9,0,0,0-7.89-2.62,1.07,1.07,0,0,0-.47,0Z"/><path class="cls-11" d="M176,134.12c-.07-.11-2.13.77-2.19.64,1.4-.58,7.67-3.77,7.74-3.63l.18.35c-3.4,1.53-6.8,3.05-10.19,4.59-4.48,2-7,6.4-11.42,8.46a5.89,5.89,0,0,1-4.37.53c-.65-.23-1.23-.64-1.87-.89a8.06,8.06,0,0,0-2.94-.31,15.21,15.21,0,0,0-4.71.61,5,5,0,0,0-3.3,3.2c-.43,1.6.21,3.46-.65,4.88-.66,1.1-2,1.55-3.21,2-3.31,1.15-6.61,2.8-8.7,5.61s-2.6,7-.39,9.76a4.48,4.48,0,0,1,.84,1.2,3.83,3.83,0,0,1,0,1.72c-.24,2.53.46,5.31,2.46,6.88,2.77,2.18,6.72,1.34,10.21.87,5.94-.8,12-.19,18-.24a16.94,16.94,0,0,0,3.89-.37,18.7,18.7,0,0,0,3.22-1.22l6.54-3c1.74-.78,3.59-1.67,4.48-3.36s.57-3.76.4-5.68,0-4.13,1.43-5.38c.54-.45,1.2-.73,1.74-1.17a4.55,4.55,0,0,0,1-5.27,7.85,7.85,0,0,0-4.2-3.77,7.16,7.16,0,0,1-1.92-1,3.16,3.16,0,0,1,.33-4.7c.73-.53,1.65-.76,2.36-1.31a5.22,5.22,0,0,0,1.61-3.72c.18-2-.22-4.26-1.89-5.33s-3.92-.47-5.68.48C173.29,136.35,177.44,136.31,176,134.12Z"/><path d="M138.16,181.62a8.11,8.11,0,0,1-5.19-1.53,8.19,8.19,0,0,1-2.65-7.33l0-.2a2.94,2.94,0,0,0,0-1.3,2.69,2.69,0,0,0-.56-.81l-.2-.24c-2.48-3.06-1.66-7.63.38-10.37,1.83-2.47,4.67-4.31,8.94-5.8a5.17,5.17,0,0,0,2.94-1.75,4.81,4.81,0,0,0,.42-2.53,7.94,7.94,0,0,1,.18-2.22A5.48,5.48,0,0,1,146,144a15.59,15.59,0,0,1,4.87-.64,8.25,8.25,0,0,1,3.12.35,6.18,6.18,0,0,1,1,.46,8,8,0,0,0,.9.42,5.37,5.37,0,0,0,4-.51,21.8,21.8,0,0,0,5.52-4.12,23,23,0,0,1,5.9-4.34l1.93-.88-.1-.25.46-.19c.61-.25,2.21-1,3.75-1.79,4.37-2.12,4.36-2.12,4.63-1.61l.42.82-4,1.79-1.55.7a4.88,4.88,0,0,1,3.88.45c2.25,1.44,2.23,4.54,2.11,5.8a5.53,5.53,0,0,1-1.8,4.06,6.1,6.1,0,0,1-1.31.74,6.19,6.19,0,0,0-1.05.58,2.71,2.71,0,0,0-1,2.06,2.31,2.31,0,0,0,.73,1.86,5.08,5.08,0,0,0,1.42.77l.37.15a8.28,8.28,0,0,1,4.45,4,5,5,0,0,1-1.14,5.86,8.17,8.17,0,0,1-.89.6,5.73,5.73,0,0,0-.83.56c-1.06.9-1.47,2.52-1.26,5l.06.62c.18,1.82.36,3.69-.52,5.35-1,1.9-3.14,2.87-4.71,3.58l-6.55,3a18.92,18.92,0,0,1-3.3,1.26,17.7,17.7,0,0,1-4,.38c-1.93,0-3.89,0-5.78-.08a75.44,75.44,0,0,0-12.11.32l-1,.14A32,32,0,0,1,138.16,181.62Zm13.42-37.27h-.68a14.88,14.88,0,0,0-4.56.58,4.47,4.47,0,0,0-3,2.86,6.87,6.87,0,0,0-.15,1.95,5.7,5.7,0,0,1-.56,3.06,6,6,0,0,1-3.41,2.16c-4.14,1.43-6.83,3.16-8.53,5.46s-2.57,6.48-.4,9.15l.19.22a4,4,0,0,1,.73,1.11,3.89,3.89,0,0,1,.1,1.75l0,.2c-.2,2.09.29,4.88,2.27,6.44,2.33,1.84,5.63,1.37,8.82.91l1-.14a76.37,76.37,0,0,1,12.27-.33c1.88,0,3.83.09,5.74.08a16.79,16.79,0,0,0,3.78-.35,18.54,18.54,0,0,0,3.13-1.2l6.55-3c1.86-.84,3.46-1.66,4.24-3.14s.57-3.11.4-4.78l0-.63c-.25-2.78.27-4.68,1.6-5.8a8.22,8.22,0,0,1,1-.66,6.61,6.61,0,0,0,.78-.52,4,4,0,0,0,.86-4.68,7.35,7.35,0,0,0-3.93-3.51l-.36-.15a6,6,0,0,1-1.69-.93,3.3,3.3,0,0,1-1.08-2.66,3.72,3.72,0,0,1,1.43-2.82,6.79,6.79,0,0,1,1.23-.68,6,6,0,0,0,1.12-.63,4.65,4.65,0,0,0,1.42-3.36c.1-1.08.13-3.72-1.66-4.87a4.13,4.13,0,0,0-3.42-.24,1.18,1.18,0,0,1-.21.49,2.14,2.14,0,0,1-2,.74.69.69,0,0,1-.56-.56.67.67,0,0,1,.15-.49l-2.39,1.09a21.38,21.38,0,0,0-5.64,4.17,22.79,22.79,0,0,1-5.78,4.28,6.25,6.25,0,0,1-4.75.55,8.11,8.11,0,0,1-1-.48,7.36,7.36,0,0,0-.85-.41A6,6,0,0,0,151.58,144.35Z"/><path class="cls-12" d="M176.81,128.4a1.64,1.64,0,0,0-.46,1.33c0-1.14-1.11-1.94-2.06-2.57a4.65,4.65,0,0,0-1.48-.73,1.57,1.57,0,0,0-1.52.44,1.52,1.52,0,0,0-.14,1.45,4.45,4.45,0,0,0,.81,1.26c-.71-.29-1.11-1.35-1.87-1.23a1.11,1.11,0,0,0-.54.3,2.27,2.27,0,0,0-.65,2.16,4.15,4.15,0,0,0,.56,1.16,24,24,0,0,0,5.84,6.38,2.55,2.55,0,0,0,2,.71,2.05,2.05,0,0,0,1.3-1.33c.69-1.68.3-3.4.06-5.11a8,8,0,0,0-.5-2.35C178.1,130.1,177,128.26,176.81,128.4Z"/><path d="M177,139.6a3.48,3.48,0,0,1-2-.85,24.53,24.53,0,0,1-6-6.51,4.51,4.51,0,0,1-.61-1.31,2.72,2.72,0,0,1,.79-2.64,1.6,1.6,0,0,1,.79-.43,1.2,1.2,0,0,1,.54,0,1.9,1.9,0,0,1,.36-1.33,2,2,0,0,1,2-.62,5,5,0,0,1,1.65.8,6.83,6.83,0,0,1,1.73,1.49,1.54,1.54,0,0,1,.17-.19l.19-.18.28,0c.6.11,1.69,2.15,1.7,2.17a6.71,6.71,0,0,1,.5,2.08l.14,1a8.68,8.68,0,0,1-.18,4.73,2.55,2.55,0,0,1-1.66,1.63A2.2,2.2,0,0,1,177,139.6Zm-6.79-10.76h0a.55.55,0,0,0-.28.17,1.73,1.73,0,0,0-.5,1.67,3.83,3.83,0,0,0,.49,1A23.31,23.31,0,0,0,175.6,138a2.18,2.18,0,0,0,1.6.63c.53-.13.85-.77,1-1a7.75,7.75,0,0,0,.12-4.2l-.15-1.07a5.92,5.92,0,0,0-.41-1.79c-.07-.15-.5-.83-.82-1.28a1,1,0,0,0-.06.35.81.81,0,0,1,0,.16l-1,.08s0-.11,0-.16c-.1-.82-.94-1.47-1.83-2a4,4,0,0,0-1.31-.66,1,1,0,0,0-1,.26,1,1,0,0,0-.07,1,4.06,4.06,0,0,0,.73,1.12l1.27,1.54-1.85-.76a2.87,2.87,0,0,1-.93-.74C170.56,129,170.37,128.84,170.2,128.84Z"/><path class="cls-12" d="M177.91,132.39a1,1,0,0,0-.66,1.21,3.66,3.66,0,0,0-3.26-1.38,3,3,0,0,0-1.62.41,1.29,1.29,0,0,0-.54,1.46,1.47,1.47,0,0,0-1.93.68,2,2,0,0,0,.38,2.13,3.1,3.1,0,0,0,2,.93,1.47,1.47,0,0,0-.52,2.17,3.13,3.13,0,0,0,2.24,1.12,15.59,15.59,0,0,1,2.56.33c-.6.45-1.22.1-1.78.32a.49.49,0,0,0-.26.18c-.11.2.11.42.31.54a10.1,10.1,0,0,0,8.37,1,1.59,1.59,0,0,0,.9-.55,1.77,1.77,0,0,0,.23-.85c.23-2.41.36-5.11-1.5-7C181.83,134.09,179.44,131.93,177.91,132.39Z"/><path d="M180.16,144.48a10.61,10.61,0,0,1-5.56-1.56.93.93,0,0,1-.49-1.2l0-.08-.18,0a3.51,3.51,0,0,1-2.59-1.34,2.14,2.14,0,0,1-.24-1.86,1.36,1.36,0,0,1,.13-.3,3.25,3.25,0,0,1-1.37-.88,2.48,2.48,0,0,1-.46-2.69,2.07,2.07,0,0,1,1.22-1,2.21,2.21,0,0,1,.62-.09,1.89,1.89,0,0,1,.8-1.22,3.38,3.38,0,0,1,1.89-.5,4.73,4.73,0,0,1,3,.81,1.6,1.6,0,0,1,.83-.62c1.65-.5,3.88,1.28,5.46,2.86,2,2,1.9,4.73,1.65,7.37a2.26,2.26,0,0,1-.31,1.08,2.14,2.14,0,0,1-1.16.75A10.5,10.5,0,0,1,180.16,144.48Zm-4.83-2.29a9.63,9.63,0,0,0,7.76.83,1.27,1.27,0,0,0,.64-.36,1.44,1.44,0,0,0,.14-.61c.24-2.41.32-4.9-1.36-6.58-1.87-1.87-3.58-2.87-4.46-2.6h0a.58.58,0,0,0-.34.31.27.27,0,0,0,0,.2l-.87.49a3.27,3.27,0,0,0-2.83-1.15,2.33,2.33,0,0,0-1.34.32.8.8,0,0,0-.37.86l.54,1.33-1.24-.7a.76.76,0,0,0-.63,0,1,1,0,0,0-.61.5,1.5,1.5,0,0,0,.3,1.58,2.58,2.58,0,0,0,1.72.76l2.39.2-2.28.77a.66.66,0,0,0-.38.43,1.15,1.15,0,0,0,.12,1,2.65,2.65,0,0,0,1.89.91c.27,0,.55.06.83.08a8.09,8.09,0,0,1,1.8.27l.94.29-.78.59a2,2,0,0,1-1.37.34Z"/><path d="M178.5,128a.5.5,0,0,1-.5-.5v-7.38a.5.5,0,1,1,1,0v7.38A.5.5,0,0,1,178.5,128Z"/><path d="M180.38,130.4a.5.5,0,0,1-.5-.5v-5.37a.5.5,0,0,1,.5-.5.5.5,0,0,1,.5.5v5.37A.5.5,0,0,1,180.38,130.4Z"/><path d="M174.07,137c-.52,0-.89-.47-.92-1.18a2,2,0,0,1,.2-1.12,1.49,1.49,0,0,1,1.17-.7,3,3,0,0,1,1.12.13,1.92,1.92,0,0,1,.75.36,1,1,0,0,1,.3,1.12l-.92-.38a.05.05,0,0,0,0,.05.88.88,0,0,0-.39-.18,2.16,2.16,0,0,0-.75-.11.56.56,0,0,0-.41.21,1.2,1.2,0,0,0-.06.58,1,1,0,0,0,.06.29s-.1-.07-.15-.07l0,1Z"/><path d="M149.1,152.91a2.51,2.51,0,0,1-.8-.12.5.5,0,0,1-.32-.63.49.49,0,0,1,.63-.32,3.37,3.37,0,0,0,1.94-.24l4.79-1.52a.5.5,0,1,1,.3.95l-4.79,1.53A6,6,0,0,1,149.1,152.91Z"/><path d="M147,162.42a.5.5,0,0,1,0-1,21.71,21.71,0,0,0,7.3-1.41.5.5,0,1,1,.35.94,22.82,22.82,0,0,1-7.63,1.47Z"/><path d="M164.28,155.55a.46.46,0,0,1-.23-.06.5.5,0,0,1-.21-.68,3.25,3.25,0,0,1,2.33-1.35,16.24,16.24,0,0,0,5-2.19.49.49,0,0,1,.69.14.5.5,0,0,1-.14.69,17.08,17.08,0,0,1-5.28,2.32c-.75.18-1.47.36-1.74.86A.5.5,0,0,1,164.28,155.55Z"/><path class="cls-13" d="M217.85,144.44v8.4l1.76.88a.09.09,0,0,0,.12-.08v-8.32l-1.82-.91S217.85,144.41,217.85,144.44Z"/><path d="M219.65,154.08a.41.41,0,0,1-.19-.05l-2-1v-8.8l.35-.24.21.08,2,1v8.54a.42.42,0,0,1-.2.37A.39.39,0,0,1,219.65,154.08Zm-1.45-1.46,1.18.58v-7.66L218.2,145Z"/><path class="cls-13" d="M219.73,145.32l5.09-.92a.06.06,0,0,1,.08.06v8.38l-5,.91a.11.11,0,0,1-.13-.11Z"/><path d="M219.84,154.11a.44.44,0,0,1-.29-.11.46.46,0,0,1-.17-.36V145l5.38-1a.42.42,0,0,1,.34.09.44.44,0,0,1,.15.32v8.67l-5.33,1Zm0-.71h0Zm.28-7.79v7.74l4.47-.81V144.8Zm4.8-.87Z"/><path class="cls-13" d="M218,144.35l5.46-.91,1.29.82a.09.09,0,0,1-.05.15l-5,.91-1.74-.83A.08.08,0,0,1,218,144.35Z"/><path d="M219.68,145.69l-1.9-.92a.42.42,0,0,1-.16-.44A.44.44,0,0,1,218,144h0l5.59-.93L225,144a.45.45,0,0,1,.11.44.45.45,0,0,1-.34.31Zm-.73-1.13.83.39,4.22-.76-.59-.38Z"/><path class="cls-2" d="M220.85,146.44v8.4l1.76.88a.09.09,0,0,0,.12-.08v-8.32l-1.82-.91S220.85,146.41,220.85,146.44Z"/><path d="M222.65,156.08a.41.41,0,0,1-.19-.05l-2-1v-8.8l.35-.24.21.08,2,1v8.54a.42.42,0,0,1-.2.37A.39.39,0,0,1,222.65,156.08Zm-1.45-1.46,1.18.58v-7.66L221.2,147Z"/><path class="cls-2" d="M222.73,147.32l5.09-.92a.06.06,0,0,1,.08.06v8.38l-5,.91a.11.11,0,0,1-.13-.11Z"/><path d="M222.84,156.11a.44.44,0,0,1-.29-.11.46.46,0,0,1-.17-.36V147l5.38-1a.42.42,0,0,1,.34.09.44.44,0,0,1,.15.32v8.67l-5.33,1Zm0-.71h0Zm.28-7.79v7.74l4.47-.81V146.8Zm4.8-.87Z"/><path class="cls-2" d="M221,146.35l5.46-.91,1.29.82a.09.09,0,0,1-.05.15l-5,.91-1.74-.83A.08.08,0,0,1,221,146.35Z"/><path d="M222.68,147.69l-1.9-.92a.42.42,0,0,1-.16-.44A.44.44,0,0,1,221,146h0l5.59-.93L228,146a.45.45,0,0,1,.11.44.45.45,0,0,1-.34.31Zm-.73-1.13.83.39,4.22-.76-.59-.38Z"/><polygon class="cls-10" points="227.68 143.08 227.68 173.68 242.85 182.56 242.85 151.35 227.68 143.08"/><path class="cls-6" d="M243.13,183l-15.74-9.21V142.61l15.74,8.58ZM228,173.53l14.61,8.55V151.51l-14.61-8Z"/><path class="cls-6" d="M231.32,162.5a2.15,2.15,0,0,1-1.47-.89,3.46,3.46,0,0,1-.6-1.74,3.85,3.85,0,0,1,.53-2.4,1.79,1.79,0,0,1,1.55-.66.41.41,0,0,1,.34.44.34.34,0,0,1-.4.31,1.09,1.09,0,0,0-.85.38,3,3,0,0,0-.42,1.93,2.57,2.57,0,0,0,.45,1.32,1.25,1.25,0,0,0,1,.56.41.41,0,0,1,.42.37.34.34,0,0,1-.33.39Z"/><polygon class="cls-10" points="181.59 117.89 181.59 146.98 196.76 155.86 196.76 126.16 181.59 117.89"/><path class="cls-6" d="M197.05,156.34l-15.74-9.21v-29.7L197.05,126Zm-15.18-9.51,14.61,8.55V126.32l-14.61-8Z"/><path class="cls-6" d="M185.24,136.56a2.13,2.13,0,0,1-1.47-.9,3.42,3.42,0,0,1-.61-1.73,3.78,3.78,0,0,1,.54-2.4,1.73,1.73,0,0,1,1.54-.66.41.41,0,0,1,.35.43.35.35,0,0,1-.41.32,1.1,1.1,0,0,0-.85.38,3,3,0,0,0-.41,1.93,2.65,2.65,0,0,0,.44,1.32,1.28,1.28,0,0,0,1,.56.41.41,0,0,1,.42.36.33.33,0,0,1-.33.39Z"/><path class="cls-10" d="M212,134.6l9.23,12.26v29.47l-9.44-12.16V134.66A.11.11,0,0,1,212,134.6Z"/><path class="cls-6" d="M221.54,177.13l-10-12.89V134.63a.35.35,0,0,1,.26-.35.44.44,0,0,1,.45.16h0l9.3,12.35Zm-9.45-13L221,175.52V146.94l-8.88-11.79Z"/><path class="cls-6" d="M219.26,161.45a1.73,1.73,0,0,1-1.25-.91,3.91,3.91,0,0,1-.47-1.7,4.61,4.61,0,0,1,.41-2.37,1.43,1.43,0,0,1,1.33-.71.41.41,0,0,1,.34.44.34.34,0,0,1-.42.3.84.84,0,0,0-.57.37,3.81,3.81,0,0,0-.34,2,3,3,0,0,0,.36,1.33.86.86,0,0,0,.66.5.41.41,0,0,1,.43.36.34.34,0,0,1-.32.4Z"/><polygon class="cls-10" points="151.75 101.49 172.9 93.9 262.81 143.7 242.41 151.36 151.75 101.49"/><path class="cls-6" d="M242.41,151.56l-.08,0-91-50.07,21.61-7.76.08,0,90.28,50Zm-90.21-50,90.21,49.61,20-7.49L172.9,94.11Z"/><path class="cls-12" d="M181.85,103.33l-7.52,4.13a1.81,1.81,0,0,0,.19,3.16l12.6,7.12a1.8,1.8,0,0,0,1.81,0l7.24-4.42a1.82,1.82,0,0,0-.27-3.13l-12.32-6.83A1.8,1.8,0,0,0,181.85,103.33Z"/><path d="M187.9,118.17a2.22,2.22,0,0,1-.86-.27l-12.6-7.11a2.18,2.18,0,0,1-1.13-1.78,1.77,1.77,0,0,1,.92-1.72l7.52-4.12a2,2,0,0,1,1.91,0L196,110a2.2,2.2,0,0,1,1.14,1.74,1.8,1.8,0,0,1-.84,1.73L189,117.91A1.89,1.89,0,0,1,187.9,118.17Zm-6-14.67-7.52,4.13a1.45,1.45,0,0,0-.75,1.39,1.78,1.78,0,0,0,.92,1.44l12.6,7.11a1.59,1.59,0,0,0,1.62,0l7.24-4.41a1.46,1.46,0,0,0,.69-1.4,1.81,1.81,0,0,0-.93-1.41l-12.32-6.82a1.61,1.61,0,0,0-1.55,0Z"/><path class="cls-12" d="M177.44,111.3l4.95-2.77a.73.73,0,0,1,.69,0l9.47,5.58"/><path d="M192.55,114.32a.16.16,0,0,1-.09,0L183,108.71a.55.55,0,0,0-.5,0l-5,2.76a.19.19,0,0,1-.26-.08.18.18,0,0,1,.05-.25l5-2.76a.9.9,0,0,1,.87,0l9.47,5.58a.2.2,0,0,1,.08.26A.18.18,0,0,1,192.55,114.32Z"/><line class="cls-12" x1="182.75" y1="103.1" x2="182.75" y2="107.04"/><path d="M182.75,107.23a.21.21,0,0,1-.19-.21v-3.94a.17.17,0,0,1,.19-.17.21.21,0,0,1,.19.2v4A.17.17,0,0,1,182.75,107.23Z"/><path class="cls-14" d="M189.88,102.84a6,6,0,0,0-.67-2.6c-.48-.78-1.1-1.33-1.9-1s-.67,1.44-.7,2.37c0,.3-.43.62-.7.73s-.61-.14-.72-.44a1.63,1.63,0,0,1,0-.9l.3-1.37a2.75,2.75,0,0,1,.47-1.2,2.46,2.46,0,0,1,2-.93,2.91,2.91,0,0,1,1.65.7,6.13,6.13,0,0,1,1.19,1.87,18.52,18.52,0,0,1,.72,6.27,5.53,5.53,0,0,1-1.2-.15c-.24-.19-.21-.5-.24-.77C190,104.56,190,103.7,189.88,102.84Z"/><path d="M191.16,106.59a2.79,2.79,0,0,1-1-.2,1.06,1.06,0,0,1-.34-.83.71.71,0,0,1,0-.14c-.07-.57-.12-1.15-.17-1.72,0-.29-.06-.57-.08-.86a5.69,5.69,0,0,0-.63-2.47c-.66-1.07-1.19-1-1.53-.88-.51.2-.54.76-.54,1.66,0,.16,0,.33,0,.49,0,.47-.58.85-.85,1a.72.72,0,0,1-.59,0,1.08,1.08,0,0,1-.52-.59,1.89,1.89,0,0,1,0-1.06l.3-1.38a3.1,3.1,0,0,1,.52-1.3,2.75,2.75,0,0,1,2.26-1,3.18,3.18,0,0,1,1.83.78,6.81,6.81,0,0,1,1.27,2,18.92,18.92,0,0,1,.74,6.26v.28l-.16.06A1.79,1.79,0,0,1,191.16,106.59Zm-.65-.66a5.6,5.6,0,0,0,.78.11,17.72,17.72,0,0,0-.71-5.91,5.87,5.87,0,0,0-1.11-1.74,2.53,2.53,0,0,0-1.48-.62,2.23,2.23,0,0,0-1.78.84,2.52,2.52,0,0,0-.41,1.09l-.31,1.38a1.46,1.46,0,0,0,0,.74.38.38,0,0,0,.2.23.16.16,0,0,0,.13,0c.24-.1.53-.37.54-.5v-.47c0-.84,0-1.8.86-2.14.57-.22,1.43-.21,2.26,1.15a6.1,6.1,0,0,1,.71,2.73c0,.28.05.57.08.86,0,.57.1,1.14.17,1.7,0,.06,0,.11,0,.16A.73.73,0,0,0,190.51,105.93Z"/><path class="cls-8" d="M232.25,101.18a.43.43,0,0,1-.13.38.42.42,0,0,1-.25,0l-.8,0a11,11,0,0,0-.12-2.07V86a.38.38,0,0,1-.29-.1c.3-.26,1-.62,1.35-.25s.07,1.62.08,2c0,1.53.07,3.07.1,4.6C232.23,95.23,232.26,98.2,232.25,101.18Z"/><path d="M231.86,101.77l-1,0v-.17a11,11,0,0,0-.12-2.06V86.12a.44.44,0,0,1-.25-.15l-.1-.13.12-.11a1.83,1.83,0,0,1,1.16-.44.57.57,0,0,1,.43.22,2.85,2.85,0,0,1,.15,1.66c0,.2,0,.37,0,.47,0,1.54.07,3.07.1,4.61,0,3,.06,6,.06,8.93h0a.6.6,0,0,1-.2.52.52.52,0,0,1-.31.07Zm-.79-16h.05v13.7a11.41,11.41,0,0,1,.12,1.93l.63,0a.39.39,0,0,0,.16,0c.05,0,.05-.19.05-.24h0c0-3,0-6-.06-8.93l-.09-4.6a3.08,3.08,0,0,1,0-.5,3.53,3.53,0,0,0-.07-1.43.26.26,0,0,0-.2-.1h-.05A1.3,1.3,0,0,0,231.07,85.79Z"/><path class="cls-15" d="M205,87.34c0,.14,0,.31-.13.38a.45.45,0,0,1-.26,0h-.79a11.12,11.12,0,0,0-.12-2.08V72.13a.37.37,0,0,1-.29-.1c.3-.26,1-.63,1.35-.25s.07,1.62.08,2c0,1.53.07,3.06.1,4.6C205,81.39,205,84.37,205,87.34Z"/><path class="cls-6" d="M204.59,87.94l-1,0v-.17a11.15,11.15,0,0,0-.12-2.07V72.28a.44.44,0,0,1-.25-.15l-.1-.12.12-.11a1.84,1.84,0,0,1,1.15-.45.64.64,0,0,1,.44.22,2.84,2.84,0,0,1,.14,1.67c0,.19,0,.36,0,.47,0,1.54.07,3.07.09,4.61,0,3,.07,6,.07,8.93h0a.58.58,0,0,1-.2.51.53.53,0,0,1-.31.08Zm-.8-16h.06v13.7a11.34,11.34,0,0,1,.12,1.93h.63a.21.21,0,0,0,.16,0c.05,0,.05-.18.05-.24h0c0-3,0-6-.06-8.92,0-1.53-.06-3.07-.1-4.6,0-.12,0-.3,0-.51a3.49,3.49,0,0,0-.07-1.42.28.28,0,0,0-.21-.1h0A1.38,1.38,0,0,0,203.79,72Z"/><path class="cls-15" d="M229.91,104.16a7,7,0,0,1-3.73,2.16c-1.94.27-3.77-.84-5.43-1.88a185.2,185.2,0,0,0-18.83-10.37,15.58,15.58,0,0,1-4.54-2.81,1.29,1.29,0,0,1-.43-.72c-.08-.57.51-1,1-1.25l4.86-2.58a1.82,1.82,0,0,1,.84-.28,1.87,1.87,0,0,1,.94.37,99.64,99.64,0,0,0,9.23,4.8l12.06,5.74c1.75.83,4.61,1.57,6,2.87S230.94,103.16,229.91,104.16Z"/><path class="cls-6" d="M220.66,104.58a184.74,184.74,0,0,0-18.81-10.35l-.14-.07a15.44,15.44,0,0,1-4.45-2.78,1.51,1.51,0,0,1-.48-.81c-.1-.79.81-1.27,1.11-1.43l4.86-2.58a2.09,2.09,0,0,1,.92-.3,2.06,2.06,0,0,1,1,.39,97.28,97.28,0,0,0,9.22,4.8L226,97.18c.55.27,1.21.52,1.91.79a14,14,0,0,1,4.16,2.11,1.23,1.23,0,0,1,.45.94c0,1-1.17,2.06-2,2.84l-.44.42h0a7.19,7.19,0,0,1-3.83,2.21,4.17,4.17,0,0,1-.61,0C223.77,106.53,222.06,105.46,220.66,104.58Z"/><path class="cls-16" d="M229.91,103.14a7,7,0,0,1-3.73,2.17c-1.94.27-3.77-.84-5.43-1.89a187.09,187.09,0,0,0-18.83-10.36,15.4,15.4,0,0,1-4.54-2.82,1.26,1.26,0,0,1-.43-.71c-.08-.57.51-1,1-1.25l4.86-2.58a1.82,1.82,0,0,1,.84-.28,1.85,1.85,0,0,1,.94.36,97.35,97.35,0,0,0,9.23,4.81l12.06,5.73c1.75.84,4.61,1.58,6,2.87S230.94,102.15,229.91,103.14Z"/><path class="cls-13" d="M219.85,91.44v8.4l1.76.88a.09.09,0,0,0,.12-.08V92.32l-1.82-.91S219.85,91.41,219.85,91.44Z"/><path d="M221.65,101.08a.41.41,0,0,1-.19,0l-2-1v-8.8l.35-.24.21.08,2,1v8.54a.42.42,0,0,1-.2.37A.39.39,0,0,1,221.65,101.08Zm-1.45-1.46,1.18.58V92.54L220.2,92Z"/><path class="cls-13" d="M221.73,92.32l5.09-.92a.06.06,0,0,1,.08.06v8.38l-5,.91a.11.11,0,0,1-.13-.11Z"/><path d="M221.84,101.11a.44.44,0,0,1-.29-.11.46.46,0,0,1-.17-.36V92l5.38-1a.42.42,0,0,1,.34.09.44.44,0,0,1,.15.32v8.67l-5.33,1Zm0-.71h0Zm.28-7.79v7.74l4.47-.81V91.8Zm4.8-.87Z"/><path class="cls-13" d="M220,91.35l5.46-.91,1.29.82a.09.09,0,0,1-.05.15l-5,.91L220,91.49A.08.08,0,0,1,220,91.35Z"/><path d="M221.68,92.69l-1.9-.92a.42.42,0,0,1-.16-.44A.44.44,0,0,1,220,91h0l5.59-.93L227,91a.45.45,0,0,1,.11.44.45.45,0,0,1-.34.31ZM221,91.56l.83.39,4.22-.76-.59-.38Z"/><path class="cls-15" d="M229.57,89.31a7,7,0,0,1-3.73,2.17c-1.94.27-3.77-.85-5.43-1.89a187.09,187.09,0,0,0-18.83-10.36A15.74,15.74,0,0,1,197,76.41a1.32,1.32,0,0,1-.43-.71c-.07-.57.51-1,1-1.25l4.86-2.59a2,2,0,0,1,.84-.28,1.93,1.93,0,0,1,.95.37,97.25,97.25,0,0,0,9.23,4.81l12.05,5.73c1.75.83,4.61,1.58,6,2.87S230.6,88.31,229.57,89.31Z"/><path class="cls-8" d="M220.32,89.73a188.7,188.7,0,0,0-18.81-10.35l-.14-.07a15.36,15.36,0,0,1-4.45-2.78,1.54,1.54,0,0,1-.48-.81c-.1-.78.81-1.26,1.11-1.42l4.87-2.58a1.9,1.9,0,0,1,.91-.31,2,2,0,0,1,1,.4,98.41,98.41,0,0,0,9.22,4.79l12,5.74c.55.26,1.22.51,1.92.78a14,14,0,0,1,4.16,2.12,1.23,1.23,0,0,1,.44.93c0,1-1.16,2.06-2,2.85l-.44.41h0a7.15,7.15,0,0,1-3.82,2.22c-.21,0-.41,0-.62,0C223.43,91.69,221.72,90.61,220.32,89.73Z"/><path class="cls-16" d="M229.57,88.3a7,7,0,0,1-3.73,2.17c-1.94.27-3.77-.85-5.43-1.89a185.12,185.12,0,0,0-18.83-10.36A16,16,0,0,1,197,75.4a1.32,1.32,0,0,1-.43-.71c-.07-.57.51-1,1-1.26l4.86-2.58a1.86,1.86,0,0,1,.84-.28,1.93,1.93,0,0,1,.95.37,94.9,94.9,0,0,0,9.23,4.8l12.05,5.74c1.75.83,4.61,1.58,6,2.87S230.6,87.3,229.57,88.3Z"/><path class="cls-3" d="M118.45,139.44a2.94,2.94,0,0,0,.14,1.32,3.07,3.07,0,0,0,1.92,1.33c4.95,1.8,9.37,4.78,13.73,7.73-.5-9.83-1-19.69-.41-29.52l-9.12-3.36c-1.25-.46-4.11-1.85-5-.43-.47.71-.18,2.86-.23,3.73l-.19,3.77Z"/><path d="M134.62,150.5l-.57-.39c-4.29-2.9-8.73-5.9-13.66-7.7a3.32,3.32,0,0,1-2.12-1.51,3.23,3.23,0,0,1-.17-1.48l1-19.2c0-.24,0-.59,0-1a6.07,6.07,0,0,1,.3-2.93c1-1.48,3.44-.5,4.92.09l.53.21,9.36,3.44v.26c-.59,9.9-.08,19.86.4,29.49Zm-13.57-34.27a1.2,1.2,0,0,0-1.09.46,6.46,6.46,0,0,0-.19,2.53c0,.41,0,.77,0,1l-1,19.19a2.69,2.69,0,0,0,.11,1.17c.27.61,1,.89,1.73,1.14,4.79,1.75,9.08,4.59,13.23,7.39a267,267,0,0,1-.39-28.62l-8.88-3.26-.54-.22A9.64,9.64,0,0,0,121.05,116.23Z"/><path class="cls-17" d="M98.33,158.07a.38.38,0,0,1-.28-.07.34.34,0,0,1-.08-.23c-.21-1.77,6.92-14.08,7-15.87,0-.31.11-.72.42-.74.15,0,25.59-11.87,25.71-11.78a22.66,22.66,0,0,0,6.55,2.68.38.38,0,0,1,.2.1.44.44,0,0,1,.08.25c.08,1.24.7,5.4-.83,5.88-.81.26-20,11.93-20.75,11.66C115.34,149.58,99.39,158.06,98.33,158.07Z"/><path d="M98.3,158.42a.65.65,0,0,1-.49-.17.75.75,0,0,1-.19-.44c-.11-1,1.35-4,3.76-8.79,1.5-3,3.19-6.37,3.21-7.13,0-.61.28-1,.7-1.07s4.64-2.12,9.06-4.17c16.68-7.72,16.68-7.72,16.92-7.56a22.56,22.56,0,0,0,6.43,2.64.7.7,0,0,1,.38.2.77.77,0,0,1,.16.46c0,.15,0,.36,0,.59.23,2.48.36,5.17-1.12,5.64-.3.11-3.15,1.78-6.16,3.55-12.14,7.13-14.34,8.27-14.81,8.1h0c-.72,0-6.25,2.71-10.29,4.7-5,2.44-7.07,3.44-7.57,3.45h0ZM131,129.76c-1.25.51-10,4.54-16.38,7.52-9.14,4.23-9.15,4.23-9.27,4.23a.88.88,0,0,0-.09.4c0,.85-1.25,3.37-3.28,7.42-1.68,3.36-3.77,7.54-3.69,8.4h0c.49,0,4.09-1.82,7.27-3.38,7.31-3.59,10-4.85,10.77-4.74.93-.18,9.29-5.09,14.3-8,4.25-2.49,6-3.52,6.3-3.61,1.07-.35.76-3.67.64-4.92,0-.25,0-.45,0-.61v0h0A23,23,0,0,1,131,129.76Zm-14.58,19.87Zm0,0Zm0,0Zm-.1,0Z"/><path class="cls-13" d="M101.54,171.63c4.68-2.25,28.56-18.59,33-21.38a2,2,0,0,0,.67-.58,1.91,1.91,0,0,0,.18-.88,72.78,72.78,0,0,0-.22-8.74c0,.09-24.74,16.09-25.25,16.35a50.62,50.62,0,0,0-5.94,3.51c-1.51,1-2.58,1.59-2.68,3.45A73.65,73.65,0,0,0,101.54,171.63Z"/><path d="M101.23,172.16l0-.5a80.05,80.05,0,0,1-.29-8.32c.11-1.87,1.15-2.58,2.47-3.47l.36-.24a52.19,52.19,0,0,1,6-3.54c.67-.36,24.67-15.9,25.18-16.3l.21.26.36,0v0a74.74,74.74,0,0,1,.22,8.77,2.23,2.23,0,0,1-.24,1,2.1,2.1,0,0,1-.77.7c-1.27.81-4.16,2.74-7.81,5.19-8.7,5.81-21.84,14.6-25.18,16.21Zm33.6-31.5c-.54.38-1.55,1-3.39,2.23l-8.56,5.56c-4.3,2.78-12.52,8.09-12.85,8.25a52.45,52.45,0,0,0-5.91,3.5l-.36.25c-1.3.87-2.08,1.4-2.17,2.93a73.38,73.38,0,0,0,.25,7.71c3.92-2.07,16.32-10.37,24.64-15.94,3.66-2.44,6.55-4.38,7.83-5.19a1.54,1.54,0,0,0,.55-.47,1.8,1.8,0,0,0,.14-.72A77.9,77.9,0,0,0,134.83,140.66Z"/><path class="cls-17" d="M99.53,160.47a.38.38,0,0,1-.28-.07.38.38,0,0,1-.08-.23,60.38,60.38,0,0,1-.23-6.73c0-.31.11-.73.42-.74a.77.77,0,0,1,.4.18c1.74,1.23,4.09.94,6.15,1.48a.38.38,0,0,1,.21.1.39.39,0,0,1,.07.26c.08,1.23.7,6.77-.83,7.26-.81.26-2.07-.5-2.79-.77A8.28,8.28,0,0,0,99.53,160.47Z"/><path d="M105,162.38a5.39,5.39,0,0,1-2-.62l-.54-.23a8.3,8.3,0,0,0-2.9-.72h0a.7.7,0,0,1-.53-.16.69.69,0,0,1-.18-.44,58.45,58.45,0,0,1-.24-6.78c0-.64.31-1.06.76-1.07a1,1,0,0,1,.59.23,7.89,7.89,0,0,0,3.76,1.06,16.46,16.46,0,0,1,2.3.38.65.65,0,0,1,.37.2.73.73,0,0,1,.17.46c0,.12,0,.28,0,.47.27,3.28.35,6.69-1.1,7.15A1.51,1.51,0,0,1,105,162.38Zm-5.41-2.26a8.88,8.88,0,0,1,3.11.76l.58.25a3.55,3.55,0,0,0,2,.52c.51-.16,1-1.41.63-6.43,0-.2,0-.36,0-.48v0h0a14.42,14.42,0,0,0-2.2-.36,8.51,8.51,0,0,1-4.06-1.18.56.56,0,0,0-.19-.11.83.83,0,0,0-.09.4,58.74,58.74,0,0,0,.23,6.67h.07Z"/><path class="cls-13" d="M84.89,132.35l1.65.74,9.79,4.41a37.48,37.48,0,0,0,4.9,1.93c0,10.65-.12,21.24-.1,31.89a111.88,111.88,0,0,0-16.35-8.81C83.22,152.5,83.71,142.41,84.89,132.35Z"/><path d="M101.47,172l-.54-.37a112.85,112.85,0,0,0-16.3-8.78l-.16-.08,0-.18c-1.36-8.75-1.33-18.07.11-30.25l0-.47,11.87,5.34a38.2,38.2,0,0,0,4.85,1.92l.25.07v.26c0,5.33,0,10.73,0,15.95s0,10.61,0,15.94Zm-16.38-9.7a115.79,115.79,0,0,1,15.69,8.4c0-5.12,0-10.29,0-15.3s.06-10.44,0-15.68a41,41,0,0,1-4.69-1.88l-11-4.95C83.82,144.66,83.79,153.76,85.09,162.27Z"/><path class="cls-13" d="M105.69,162.75c4.68-2.26,27.18-17.21,31.57-20a2,2,0,0,0,.67-.58,1.91,1.91,0,0,0,.18-.88,72.78,72.78,0,0,0-.22-8.74c0,.09-23.36,14.71-23.87,15a50.62,50.62,0,0,0-5.94,3.51c-1.51,1-2.58,1.59-2.68,3.45A73.65,73.65,0,0,0,105.69,162.75Z"/><path d="M105.38,163.28l0-.5a80.05,80.05,0,0,1-.29-8.32c.11-1.87,1.15-2.58,2.47-3.47l.36-.24a51.48,51.48,0,0,1,6-3.54c.78-.41,23.25-14.5,23.8-14.92l.2.26.36,0a73.07,73.07,0,0,1,.23,8.79,2.23,2.23,0,0,1-.24,1,2,2,0,0,1-.77.7c-1,.67-3.12,2-5.75,3.74-8.33,5.45-22.28,14.55-25.86,16.28Zm32.22-30.13c-.52.35-1.47.95-3.18,2l-8.09,5.08c-4.53,2.84-11.84,7.4-12.15,7.56a51.58,51.58,0,0,0-5.91,3.5l-.36.24c-1.3.88-2.08,1.41-2.17,2.94a73.38,73.38,0,0,0,.25,7.71c4.16-2.17,17.33-10.78,25.33-16,2.63-1.72,4.71-3.08,5.76-3.75a1.69,1.69,0,0,0,.55-.47,1.8,1.8,0,0,0,.14-.72A78.09,78.09,0,0,0,137.6,133.15Z"/><path class="cls-13" d="M101.62,149.09c4.69-2.25,28.57-16.28,33-19.07a1.88,1.88,0,0,0,.66-.59,2,2,0,0,0,.19-.88,72.67,72.67,0,0,0-.22-8.73c0,.08-24.74,13.78-25.25,14a52.25,52.25,0,0,0-5.95,3.52c-1.5,1-2.58,1.59-2.68,3.45A75.92,75.92,0,0,0,101.62,149.09Z"/><path d="M101.32,149.62l0-.5a77.07,77.07,0,0,1-.29-8.31c.1-1.87,1.14-2.58,2.46-3.47l.37-.25a54.32,54.32,0,0,1,6-3.54c.18-.09,24.47-13.5,25.2-14l.19.28.36,0a73,73,0,0,1,.22,8.79,1.73,1.73,0,0,1-1,1.74c-4.16,2.65-28.14,16.77-33,19.1Zm33.59-29.24c-.55.33-1.56.9-3.41,1.93l-8.56,4.77c-6.08,3.37-12.55,7-12.83,7.09a52.24,52.24,0,0,0-5.9,3.49l-.37.25c-1.3.88-2.08,1.41-2.16,2.94a70.77,70.77,0,0,0,.25,7.71c5.71-2.89,28.42-16.27,32.46-18.83a1.6,1.6,0,0,0,.55-.47,1.52,1.52,0,0,0,.14-.72A73.53,73.53,0,0,0,134.91,120.38Z"/><path class="cls-13" d="M99.48,139a3.11,3.11,0,0,0,1.27.3,3.24,3.24,0,0,0,1.38-.52l31.8-18.15a7.2,7.2,0,0,0,1.33-.82c.79-.82-1-1.49-1.55-1.73-3.9-1.87-7.84-3.09-11.82-4.78a2.47,2.47,0,0,0-3,.28,189,189,0,0,1-18.76,10.61c-3.26,1.6-6.57,3.08-9.91,4.52-5.7,2.46-7.92,2.46-2.6,4.95C91.25,135.33,95.78,137.55,99.48,139Z"/><path d="M100.67,139.63a3.77,3.77,0,0,1-1.32-.32c-3-1.16-6.52-2.83-9.64-4.31L87.48,134c-2.45-1.15-3.24-1.74-3.22-2.42s1.14-1.24,3.37-2.14c.73-.29,1.55-.62,2.47-1,2.74-1.18,6.34-2.77,9.89-4.51a189.1,189.1,0,0,0,18.72-10.59A2.83,2.83,0,0,1,122,113c1.59.68,3.2,1.29,4.76,1.88,2.32.88,4.73,1.79,7.07,2.91l.2.1c.6.26,1.59.7,1.72,1.37a.88.88,0,0,1-.28.81,5.26,5.26,0,0,1-1.13.74l-.27.14-31.8,18.15a3.42,3.42,0,0,1-1.54.56Zm19.86-26.38h-.11a3,3,0,0,0-1.33.6,190.68,190.68,0,0,1-18.8,10.63c-3.56,1.75-7.17,3.34-9.92,4.52-.93.4-1.75.74-2.48,1-1.44.58-2.93,1.18-2.94,1.52s.94.9,2.83,1.78l2.23,1c3.11,1.47,6.63,3.14,9.59,4.28h0a3,3,0,0,0,1.13.28,3.16,3.16,0,0,0,1.23-.48l31.8-18.15.28-.15a5.26,5.26,0,0,0,1-.61c.11-.12.1-.17.09-.19-.06-.33-1-.75-1.32-.88l-.22-.1c-2.32-1.12-4.7-2-7-2.9-1.57-.59-3.19-1.2-4.79-1.88A3.26,3.26,0,0,0,120.53,113.25Z"/><path d="M117,135a3.32,3.32,0,0,0-.09.89,1.6,1.6,0,0,0,1.12-.32l3.43-2a2.75,2.75,0,0,0,0-1.07.37.37,0,0,0-.14-.25.37.37,0,0,0-.35,0,14.25,14.25,0,0,0-3.85,2.48"/><path d="M118.5,156.5a3.32,3.32,0,0,0-.09.89,1.64,1.64,0,0,0,1.13-.32l3.43-2a3,3,0,0,0,0-1.07.38.38,0,0,0-.14-.26.4.4,0,0,0-.35,0,14.25,14.25,0,0,0-3.85,2.48"/><path d="M121.64,147.25a3.44,3.44,0,0,0-.09.9,1.68,1.68,0,0,0,1.12-.33l3.43-2a2.7,2.7,0,0,0,0-1.06.29.29,0,0,0-.49-.23,14.74,14.74,0,0,0-3.85,2.48"/><path class="cls-18" d="M83.65,195.56l.43-58.69-25.32-18.2a.16.16,0,0,0-.25.13v58.38Z"/><path class="cls-6" d="M83.94,196.13l-25.72-18.8V118.8a.44.44,0,0,1,.24-.4.44.44,0,0,1,.47,0l25.44,18.29ZM58.81,177,83.36,195l.42-58-25-18Z"/><polygon class="cls-18" points="51.2 189.96 24.58 175.34 58.51 161.36 83.46 173.19 51.2 189.96"/><path class="cls-6" d="M51.2,190.3l-27.3-15L58.52,161l.12.06,25.49,12.08ZM25.26,175.38,51.2,189.63,82.8,173.2,58.5,161.68Z"/><polygon class="cls-18" points="51.63 173.19 25.01 158.56 58.94 144.58 83.89 156.41 51.63 173.19"/><path class="cls-6" d="M51.63,173.52l-27.3-15L59,144.26l.12.05L84.56,156.4ZM25.69,158.6l25.94,14.25,31.6-16.43L58.93,144.9Z"/><path class="cls-7" d="M51.38,214.06V154.93L24.77,135.45a.15.15,0,0,0-.24.12v60.11Z"/><path class="cls-6" d="M51.68,214.61,24.23,195.84V135.57a.46.46,0,0,1,.25-.4.47.47,0,0,1,.47,0l26.73,19.57ZM24.82,195.52l26.27,18V155.08L24.82,135.85Z"/><path class="cls-7" d="M58.45,118.18,24.61,135.1a.06.06,0,0,0,0,.1l26.78,19.73,32.51-18.37Z"/><path class="cls-6" d="M51.36,155.28,24.43,135.44a.37.37,0,0,1-.15-.32.36.36,0,0,1,.2-.28l34-17,26,18.75ZM25.09,135.19,51.4,154.58l31.95-18.05-24.93-18Z"/><path class="cls-6" d="M99,179.64s1.29,0,1.72-.43.43-3.87-.43-4.73.86-.43.86-.43a4.75,4.75,0,0,1,1.29,3c0,1.72.43,3.44-.43,3.87a17.53,17.53,0,0,1-3,.86Z"/><path class="cls-7" d="M96.94,158.93a2,2,0,0,0,2.88-1.31,3.64,3.64,0,0,0-.38-1.76,126.23,126.23,0,0,0-5.61-11.52c-1.43-2.7-3-5.52-5.56-7.13a5.7,5.7,0,0,0-4.43-.87c.28,3.7,1.74,7.44,2.62,11,1.2,4.89,1,10,1.17,15a128.1,128.1,0,0,0,2.91,24.06l1.75-.62-.73,12.48c-.14,2.28-.11,4.94,1.69,6.34.55,2.7,1.12,5.33,1.67,8a5,5,0,0,0,.68,1.93,1.7,1.7,0,0,0,1.78.74,2.38,2.38,0,0,0,1.27-1.55c1.51-4,1.4-8.38,1.31-12.64-.31-14.69-.64-29.38-.12-44.06"/><path class="cls-6" d="M97,215.75a2.16,2.16,0,0,1-1.65-.92,5.33,5.33,0,0,1-.73-2.05c-.27-1.35-.55-2.68-.83-4s-.55-2.6-.82-3.92c-1.76-1.45-1.87-4-1.72-6.52l.71-12-1.65.58-.07-.33a127.9,127.9,0,0,1-2.91-24.12c0-.88,0-1.77,0-2.66a55.86,55.86,0,0,0-1.11-12.31c-.28-1.13-.62-2.29-1-3.41a38.38,38.38,0,0,1-1.68-7.68l0-.25.23-.06a6,6,0,0,1,4.67.9c2.73,1.7,4.35,4.77,5.66,7.24a125.79,125.79,0,0,1,5.62,11.55,5.26,5.26,0,0,1,.41,1.41h0v.17a2.26,2.26,0,0,1,0,.26c-.49,14.26-.18,28.75.12,42.77l0,.93c.09,4.25.18,8.65-1.34,12.66a2.59,2.59,0,0,1-1.45,1.73A1.47,1.47,0,0,1,97,215.75Zm-4.4-30.31-.76,12.93c-.14,2.41,0,4.82,1.58,6.08l.09.07,0,.11c.27,1.35.55,2.68.83,4s.56,2.66.84,4a4.6,4.6,0,0,0,.63,1.81,1.42,1.42,0,0,0,1.45.64c.56-.18.87-.83,1.08-1.38,1.48-3.9,1.39-8.24,1.3-12.43l0-.93c-.29-13.62-.59-27.67-.16-41.53a2.62,2.62,0,0,1-.65.43,2.11,2.11,0,0,1-2.07-.1l.33-.49a1.67,1.67,0,0,0,2.43-1.11v-.26a4.35,4.35,0,0,0-.37-1.35c-1.61-3.95-3.64-7.79-5.6-11.5-1.34-2.53-2.86-5.4-5.45-7a5.57,5.57,0,0,0-4-.89,40.34,40.34,0,0,0,1.65,7.31c.33,1.13.67,2.3,1,3.44a56,56,0,0,1,1.13,12.44c0,.89,0,1.77,0,2.66a128.3,128.3,0,0,0,2.84,23.68Z"/><polygon class="cls-18" points="84.32 137.48 95.51 159.42 95.51 214.91 84.32 196.42 84.32 137.48"/><path class="cls-6" d="M95.8,216,84,196.5V136.25l11.77,23.1ZM84.62,196.34l10.59,17.52V159.49L84.62,138.71Z"/><polygon class="cls-7" points="51.38 190.18 51.2 214.06 83.89 195.56 83.84 173.19 51.38 190.18"/><path class="cls-6" d="M50.9,214.56,51.09,190l.16-.08L84.13,172.7l.06,23Zm.78-24.2-.18,23.19,32.1-18.17,0-21.71Z"/><polygon class="cls-19" points="72.28 186.95 63.67 191.69 63.67 188.67 72.28 183.94 72.28 186.95"/><path class="cls-6" d="M63.38,192.18V188.5l9.19-5.06v3.69Zm.59-3.33v2.34l8-4.41v-2.34Z"/><polygon class="cls-19" points="242.64 157.42 242.64 178.2 263.56 187.21 265.07 168.07 242.64 157.42"/><path class="cls-6" d="M263.82,187.61l-21.46-9.24V157l23,10.93ZM242.92,178l20.39,8.78,1.47-18.57-21.86-10.37Z"/><polygon class="cls-10" points="263.56 184.94 243.16 172.95 235.45 158.68 235.99 158.35 255.25 167.97 263.56 184.94"/><path class="cls-6" d="M264.21,185.63,243,173.15l-7.89-14.58L236,158l19.51,9.74Zm-20.84-12.87,19.55,11.48-7.87-16.07-19-9.5-.2.13Z"/><polygon class="cls-7" points="262.43 184.84 242.79 173.68 235.61 159.07 254.5 168.66 262.43 184.84"/><path class="cls-6" d="M263.07,185.51l-20.49-11.64L235,158.46l19.7,10,.05.1Zm-20.07-12,18.79,10.68-7.5-15.3-18.07-9.17Z"/><polygon class="cls-19" points="239.76 164.35 243.92 172.64 258.65 180.73 253.74 171.24 239.76 164.35"/><path class="cls-6" d="M259.31,181.4l-15.6-8.56-4.55-9.1L253.94,171Zm-15.18-9L258,180.06l-4.46-8.62L240.37,165Z"/><polygon class="cls-19" points="253.54 170.04 238.94 162.7 238.23 161.61 252.83 168.95 253.54 170.04"/><path class="cls-6" d="M239.07,162.56l14,7-.32-.47-13.95-7Z"/><path class="cls-7" d="M262.43,162.93l19.06-8.59a.43.43,0,0,1,.58.4v26.91l-19.54,11.44a.07.07,0,0,1-.1-.07Z"/><path class="cls-6" d="M262.5,193.38a.27.27,0,0,1-.17-.06.38.38,0,0,1-.18-.32V162.74l.15-.07,19.05-8.6a.7.7,0,0,1,.67.08.74.74,0,0,1,.34.61v27.06l-19.67,11.52A.31.31,0,0,1,262.5,193.38Zm.21-30.26v29.52l19.08-11.17V154.71a.12.12,0,0,0-.06-.1.1.1,0,0,0-.11,0Z"/><path class="cls-7" d="M242.64,173.66v8.69l19.72,10.76a0,0,0,0,0,.07,0v-7.85Z"/><path class="cls-6" d="M262.38,193.4a.33.33,0,0,1-.14,0l-19.89-10.85v-9.33l20.36,11.89v8a.28.28,0,0,1-.15.27A.3.3,0,0,1,262.38,193.4Zm-19.46-11.21,19.23,10.49v-7.31l-19.23-11.23Z"/><path class="cls-7" d="M263,162.87l18.64-8.41a.45.45,0,0,0,0-.81L263,143.42a.5.5,0,0,0-.38,0L242.89,151a.46.46,0,0,0,0,.82l19.71,11A.46.46,0,0,0,263,162.87Z"/><path class="cls-6" d="M262.79,163.19a.75.75,0,0,1-.31-.1l-19.71-11a.8.8,0,0,1-.42-.7.65.65,0,0,1,.42-.63l19.73-7.59a.72.72,0,0,1,.62.05l18.63,10.23a.83.83,0,0,1,.43.68.66.66,0,0,1-.39.63l-18.65,8.41A.7.7,0,0,1,262.79,163.19Zm0-19.54h-.07L243,151.26a.14.14,0,0,0-.1.14.18.18,0,0,0,.1.16l19.7,11a.16.16,0,0,0,.15,0l18.65-8.41a.15.15,0,0,0,.09-.14.17.17,0,0,0-.1-.16l-18.63-10.23Z"/><ellipse class="cls-19" cx="263" cy="147.3" rx="1.88" ry="3.42" transform="translate(83.99 389.83) rotate(-82.82)"/><path class="cls-6" d="M263,149.38c-2-.18-3.59-1.23-3.59-2.39s1.57-1.94,3.59-1.77,3.59,1.23,3.59,2.4S265,149.56,263,149.38Zm0-3.78c-1.74-.15-3.21.5-3.21,1.42s1.47,1.83,3.21,2,3.21-.5,3.21-1.42S264.74,145.75,263,145.6Z"/><ellipse class="cls-19" cx="253.74" cy="151.8" rx="2.61" ry="4.75" transform="translate(71.43 384.59) rotate(-82.82)"/><path class="cls-6" d="M253.74,154.61c-2.71-.23-4.91-1.69-4.91-3.24s2.2-2.62,4.91-2.38,4.91,1.69,4.91,3.24S256.45,154.85,253.74,154.61Zm0-5.24c-2.5-.22-4.53.69-4.53,2s2,2.61,4.53,2.83,4.53-.7,4.53-2S256.24,149.59,253.74,149.37Z"/><ellipse class="cls-19" cx="271.19" cy="152.95" rx="2.98" ry="5.43" transform="translate(85.56 402.91) rotate(-82.82)"/><path class="cls-6" d="M271.19,156.14c-3.08-.27-5.59-1.92-5.59-3.68s2.51-3,5.59-2.7,5.59,1.92,5.59,3.68S274.28,156.41,271.19,156.14Zm0-6c-2.87-.25-5.21.8-5.21,2.35s2.34,3,5.21,3.27,5.22-.8,5.22-2.35S274.07,150.39,271.19,150.14Z"/><ellipse class="cls-19" cx="262.62" cy="157.47" rx="1.88" ry="3.42" transform="translate(73.57 398.35) rotate(-82.82)"/><path class="cls-6" d="M262.62,159.55c-2-.18-3.59-1.23-3.59-2.4s1.58-1.94,3.59-1.76,3.59,1.23,3.59,2.39S264.63,159.72,262.62,159.55Zm0-3.78c-1.74-.15-3.21.5-3.21,1.42s1.47,1.83,3.21,2,3.21-.5,3.21-1.42S264.36,155.92,262.62,155.77Z"/><polygon class="cls-7" points="242.64 151.37 242.64 160.06 262.43 170.86 262.43 162.93 242.64 151.37"/><path class="cls-6" d="M262.71,171.33l-20.36-11.11v-9.33l20.36,11.89Zm-19.79-11.42,19.23,10.49v-7.32l-19.23-11.23Z"/><ellipse class="cls-6" cx="245.62" cy="157.21" rx="1.13" ry="1.43" transform="translate(-20.6 38.17) rotate(-8.53)"/><path class="cls-6" d="M245.62,158.81a1.64,1.64,0,0,1-1.32-1.72,1.34,1.34,0,0,1,1.32-1.49,1.66,1.66,0,0,1,1.32,1.72A1.33,1.33,0,0,1,245.62,158.81Zm0-2.83c-.52,0-.94.47-.94,1.15a1.25,1.25,0,0,0,.94,1.31c.52,0,.94-.47.94-1.15A1.24,1.24,0,0,0,245.62,156Z"/><ellipse class="cls-6" cx="249.78" cy="159.46" rx="1.13" ry="1.43" transform="translate(-20.89 38.81) rotate(-8.53)"/><path class="cls-6" d="M249.78,161.07a1.66,1.66,0,0,1-1.33-1.72,1.34,1.34,0,0,1,1.33-1.49,1.65,1.65,0,0,1,1.32,1.72A1.35,1.35,0,0,1,249.78,161.07Zm0-2.84c-.53,0-.95.47-.95,1.15a1.24,1.24,0,0,0,.95,1.31c.52,0,.94-.47.94-1.15A1.25,1.25,0,0,0,249.78,158.23Z"/><ellipse class="cls-6" cx="254.31" cy="162.12" rx="1.13" ry="1.43" transform="translate(-21.24 39.52) rotate(-8.53)"/><path class="cls-6" d="M254.31,163.73A1.65,1.65,0,0,1,253,162a1.34,1.34,0,0,1,1.32-1.49,1.64,1.64,0,0,1,1.32,1.72A1.34,1.34,0,0,1,254.31,163.73Zm0-2.83c-.52-.05-.95.46-.95,1.14a1.24,1.24,0,0,0,.95,1.31c.52.05.94-.47.94-1.14A1.23,1.23,0,0,0,254.31,160.9Z"/><ellipse class="cls-6" cx="258.84" cy="164.79" rx="1.13" ry="1.43" transform="translate(-21.58 40.22) rotate(-8.53)"/><path class="cls-6" d="M258.84,166.39a1.64,1.64,0,0,1-1.32-1.72,1.34,1.34,0,0,1,1.32-1.49,1.66,1.66,0,0,1,1.32,1.72A1.33,1.33,0,0,1,258.84,166.39Zm0-2.83c-.52-.05-.94.47-.94,1.14a1.25,1.25,0,0,0,.94,1.32c.52,0,1-.47,1-1.15A1.24,1.24,0,0,0,258.84,163.56Z"/><path class="cls-15" d="M133.28,207.18c.22.27.89,1.45,1.25,1.45,2.2,0,2.63-.16,4.35-.16h4.74a6.46,6.46,0,0,0,3-.43c.86-.52.64-.54,1.29-1.29s1.88-2.57,2.72-3.66a.12.12,0,0,1,.22.11,24.74,24.74,0,0,0-1.64,7,23,23,0,0,0,.82,5.4,13.87,13.87,0,0,0,.89,2.51,3.63,3.63,0,0,1,.19.52,1.24,1.24,0,0,1-1,1.6l-2.31.33-.29,0a1.38,1.38,0,0,1-1.52-1.08,23,23,0,0,0-1.06-3.72c-2.21-.78-7.61-.47-9.48,0-1.72.43-1.72,2.15-1.72,3s.2,2.19-.49,2.69a.56.56,0,0,1-.29.1,21.21,21.21,0,0,1-3.27.22,1.41,1.41,0,0,1-1.4-1.53c.2-2.29.86-5.22.68-7.46,0-.44,0-.89,0-1.33s-.6-1-.86-1.31-.54-.75-.86-.86a13.33,13.33,0,0,0-2.69-.76,3.4,3.4,0,0,1-2.41-1.65c-.68-1.15-1.12-1.83.36-2.33,1.29-.43,5.17-1.29,6-1.72a6.19,6.19,0,0,0,2.52-2.08.3.3,0,0,1,.55.18,9.31,9.31,0,0,0-.05,1.9,11.1,11.1,0,0,0,.86,2.58c.26.82,1.05,2.17.86,3s-1.35,1.38-2.15,1.72a7.31,7.31,0,0,1-2.44.53"/><path d="M128.39,221.59a1.75,1.75,0,0,1-.45-1.33c.07-.76.18-1.58.3-2.45a23.56,23.56,0,0,0,.38-4.95,7.35,7.35,0,0,1,0-.94c0-.14,0-.29,0-.43s-.36-.6-.55-.82-.18-.2-.24-.28l-.08-.1c-.16-.21-.45-.59-.64-.66a13,13,0,0,0-2.63-.75,3.65,3.65,0,0,1-2.64-1.79l0-.07c-.43-.74-.78-1.32-.57-1.87a1.63,1.63,0,0,1,1.15-.86c.53-.18,1.48-.43,2.49-.69a28.9,28.9,0,0,0,3.52-1,5.87,5.87,0,0,0,2.37-2,.64.64,0,0,1,.73-.25.62.62,0,0,1,.41.63l0,.25a8.51,8.51,0,0,0,0,1.59,6.77,6.77,0,0,0,.61,1.92c.1.24.18.44.24.61a7.35,7.35,0,0,0,.3.76c.1.24.21.49.3.74a.28.28,0,0,1,.2.12c.06.07.14.19.25.34a5.17,5.17,0,0,0,.75,1c1.15,0,1.81-.05,2.44-.09s1.09-.07,1.91-.07h5a5.55,5.55,0,0,0,2.6-.39,1.94,1.94,0,0,0,.78-.66,5.82,5.82,0,0,1,.44-.56c.36-.43,1-1.27,1.56-2.09.4-.56.8-1.12,1.14-1.56a.44.44,0,0,1,.57-.12.45.45,0,0,1,.21.54,25,25,0,0,0-1.62,6.88,22.44,22.44,0,0,0,.82,5.33,14.28,14.28,0,0,0,.87,2.45,3.93,3.93,0,0,1,.2.55,1.57,1.57,0,0,1-1.29,2l-2.31.33-.31,0a1.72,1.72,0,0,1-1.87-1.32l-.08-.37a22.19,22.19,0,0,0-.89-3.17c-2.19-.68-7.36-.4-9.17,0-1.36.35-1.48,1.58-1.48,2.71,0,.15,0,.31,0,.48,0,.88.07,2-.64,2.47a1,1,0,0,1-.42.16,21.83,21.83,0,0,1-3.33.22h0A1.71,1.71,0,0,1,128.39,221.59Zm16.63-6.1.12,0,.06.12a19.51,19.51,0,0,1,1,3.42l.08.37a1.07,1.07,0,0,0,1.17.83l.29,0,2.31-.33a.92.92,0,0,0,.66-.42,1,1,0,0,0,.1-.77,4.44,4.44,0,0,0-.17-.48,14,14,0,0,1-.91-2.56,23,23,0,0,1-.84-5.48,21.09,21.09,0,0,1,1.26-5.9l-.39.54c-.62.87-1.21,1.68-1.59,2.13a5.81,5.81,0,0,0-.41.52,2.5,2.5,0,0,1-1,.83,6,6,0,0,1-3,.48h-5c-.8,0-1.32,0-1.87.07s-1.31.09-2.48.09c-.3,0-.58-.27-.9-.7a.92.92,0,0,1,0,.29c-.24,1.07-1.35,1.53-2.16,1.87l-.18.08a7.2,7.2,0,0,1-2.09.52,1,1,0,0,1,.14.49c0,.15,0,.31,0,.46a4.84,4.84,0,0,0,0,.85,25.42,25.42,0,0,1-.39,5.09c-.12.86-.23,1.67-.3,2.42a1.14,1.14,0,0,0,.28.83,1.08,1.08,0,0,0,.79.34h0a22.92,22.92,0,0,0,3.22-.2.36.36,0,0,0,.15-.06c.43-.3.4-1.19.37-1.91,0-.18,0-.35,0-.51,0-.85,0-2.84,2-3.33a26.08,26.08,0,0,1,5.36-.48A14.43,14.43,0,0,1,145,215.49Zm-16.33-12.33a28.93,28.93,0,0,1-3.63,1.07c-1,.25-1.93.5-2.45.67s-.68.3-.75.47.19.76.53,1.32l0,.07a3,3,0,0,0,2.18,1.49,12.75,12.75,0,0,1,2.75.78,2.47,2.47,0,0,1,.93.86l.08.1a2.14,2.14,0,0,0,.21.25l.14.16a6.86,6.86,0,0,0,2.28-.51l.18-.07c.72-.3,1.61-.68,1.78-1.42a4.2,4.2,0,0,0-.52-2c-.13-.3-.25-.58-.33-.83a4.4,4.4,0,0,0-.22-.54,7.89,7.89,0,0,1-.65-2.1,8.35,8.35,0,0,1,0-1.73V201A6.45,6.45,0,0,1,128.69,203.16Z"/><circle cx="128.54" cy="205.02" r="0.43"/><path d="M127.9,205a.65.65,0,1,1,.64.65A.64.64,0,0,1,127.9,205Zm.43,0a.21.21,0,0,0,.21.22.22.22,0,0,0,.22-.22.21.21,0,0,0-.22-.21A.21.21,0,0,0,128.33,205Z"/><rect class="cls-20" x="175.77" y="219.34" width="5.11" height="8.52"/><path class="cls-6" d="M181.19,228.18h-5.74V219h5.74Zm-5.11-.64h4.48v-7.88h-4.48Z"/><polyline class="cls-21" points="178.32 221.47 162.99 229.99 160.86 226.15 175.76 216.78 175.76 192.51 180.88 192.51 180.88 216.78 195.78 226.15 193.65 229.99 178.32 221.47"/><path class="cls-6" d="M193.78,230.42l-15.46-8.58-15.45,8.58L160.43,226l15-9.43V192.19h5.74v24.42l15,9.43Zm-15.46-9.32.16.09,15.05,8.36,1.82-3.29L180.56,217V192.83h-4.48V217l-14.79,9.3,1.82,3.29Z"/><ellipse class="cls-20" cx="178.32" cy="189.74" rx="50.25" ry="24.91"/><path class="cls-6" d="M178.32,215c-27.88,0-50.57-11.32-50.57-25.24,0-11.59,4.75-18.61,14.93-22.1,9.15-3.13,22-3.13,35.64-3.13s26.49,0,35.64,3.13c10.19,3.49,14.93,10.51,14.93,22.1C228.89,203.66,206.2,215,178.32,215Zm0-49.83c-27.9,0-49.93,0-49.93,24.59,0,13.56,22.4,24.6,49.93,24.6s49.93-11,49.93-24.6C228.25,165.15,206.22,165.15,178.32,165.15Z"/><ellipse class="cls-21" cx="178.32" cy="184.63" rx="50.25" ry="24.91"/><path class="cls-6" d="M178.32,209.87c-27.88,0-50.57-11.32-50.57-25.24s22.69-25.23,50.57-25.23,50.57,11.32,50.57,25.23S206.2,209.87,178.32,209.87Zm0-49.83c-27.53,0-49.93,11-49.93,24.59s22.4,24.6,49.93,24.6,49.93-11,49.93-24.6S205.85,160,178.32,160Z"/><path class="cls-17" d="M234.09,229.6c1-2.9-3-3.87-7.25-3.87s-7.73.82-7.73,3.63,3.46,5.07,7.73,5.07S233.2,232.26,234.09,229.6Z"/><path d="M226.84,234.79c-4.46,0-8.09-2.44-8.09-5.43,0-2.65,2.72-4,8.09-4,2.18,0,6,.27,7.32,2a2.41,2.41,0,0,1,.27,2.29h0C233.66,232,231.71,234.79,226.84,234.79Zm0-8.7c-4.89,0-7.37,1.1-7.37,3.27,0,2.59,3.31,4.71,7.37,4.71,3.57,0,5.89-1.55,6.9-4.59a1.7,1.7,0,0,0-.16-1.64C232.78,226.73,230.32,226.09,226.84,226.09Z"/><polygon class="cls-1" points="225.39 199.64 222.97 193.84 230.22 193.84 228.77 199.64 225.39 199.64"/><path d="M229.06,200h-3.91l-2.72-6.52h8.26Zm-3.43-.72h2.86l1.27-5.08h-6.24Z"/><polygon class="cls-1" points="225.39 204.47 222.97 198.67 230.22 198.67 228.77 204.47 225.39 204.47"/><path d="M229.06,204.83h-3.91l-2.72-6.52h8.26Zm-3.43-.72h2.86l1.27-5.07h-6.24Z"/><polygon class="cls-1" points="225.39 209.3 222.97 203.51 230.22 203.51 228.77 209.3 225.39 209.3"/><path d="M229.06,209.67h-3.91l-2.72-6.53h8.26Zm-3.43-.73h2.86l1.27-5.07h-6.24Z"/><polygon class="cls-1" points="225.39 214.14 222.97 208.34 230.22 208.34 228.77 214.14 225.39 214.14"/><path d="M229.06,214.5h-3.91L222.43,208h8.26Zm-3.43-.73h2.86l1.27-5.07h-6.24Z"/><polygon class="cls-1" points="225.39 218.97 222.97 213.17 230.22 213.17 228.77 218.97 225.39 218.97"/><path d="M229.06,219.33h-3.91l-2.72-6.52h8.26Zm-3.43-.72h2.86l1.27-5.08h-6.24Z"/><polygon class="cls-1" points="225.39 223.8 222.97 218 230.22 218 228.77 223.8 225.39 223.8"/><path d="M229.06,224.16h-3.91l-2.72-6.52h8.26Zm-3.43-.72h2.86l1.27-5.08h-6.24Z"/><polygon class="cls-1" points="225.39 228.63 222.97 222.83 230.22 222.83 228.77 228.63 225.39 228.63"/><path d="M229.06,229h-3.91l-2.72-6.52h8.26Zm-3.43-.72h2.86l1.27-5.07h-6.24Z"/><polygon class="cls-1" points="225.39 232.98 222.97 227.18 230.22 227.18 228.77 232.98 225.39 232.98"/><path d="M229.06,233.34h-3.91l-2.72-6.52h8.26Zm-3.43-.72h2.86l1.27-5.08h-6.24Z"/><path class="cls-17" d="M219.05,229.78l2.31,11.55v0c.12.21,1.41,2.34,5.9,2.34s5.82-3.27,5.91-3.53v0l1.16-11.52a.13.13,0,0,0-.2-.12c-1,.7-4.81,3.39-6.87,3.39a21.49,21.49,0,0,1-8-2.26A.13.13,0,0,0,219.05,229.78Z"/><path d="M227.27,244.08c-4.68,0-6.07-2.28-6.21-2.54l-.06-.14-2.31-11.55a.51.51,0,0,1,.18-.48.48.48,0,0,1,.51-.05,21.71,21.71,0,0,0,7.89,2.21c1.53,0,4.44-1.71,6.66-3.31a.49.49,0,0,1,.52,0,.49.49,0,0,1,.25.48l-1.18,11.64C233.38,240.69,232,244.08,227.27,244.08Zm-5.56-2.86c.17.28,1.46,2.13,5.56,2.13s5.43-2.94,5.56-3.26l1.09-11c-1.46,1-4.73,3.15-6.65,3.15a21.38,21.38,0,0,1-7.77-2.09Z"/><path class="cls-17" d="M220.36,236.35s3.37,2.64,6.91,2.64,6.33-3,6.33-3"/><path d="M227.27,239.35c-3.63,0-7-2.6-7.13-2.72l.45-.57s3.31,2.56,6.68,2.56,6-2.81,6.06-2.84l.53.5C233.74,236.41,230.93,239.35,227.27,239.35Z"/><path class="cls-22" d="M253.82,171.3s-20.71,7.81-29.69,21.13l3.29,3.52S243.91,187.14,253.82,171.3Z"/><path d="M227.35,196.4l-3.68-3.93.16-.24C232.77,179,253.48,171,253.69,171l1-.38-.56.91c-9.85,15.74-26.37,24.69-26.54,24.78Zm-2.75-4,2.89,3.1c2-1.14,16.28-9.48,25.41-23.44C248.63,173.84,232.32,181.16,224.6,192.4Z"/><line class="cls-22" x1="238.97" y1="182.95" x2="230.35" y2="193.41"/><rect x="227.88" y="187.82" width="13.56" height="0.72" transform="translate(-59.84 249.38) rotate(-50.47)"/><path class="cls-22" d="M262.06,193.05s-20.34-4.09-34.1,2l.86,4.43S246.3,200.72,262.06,193.05Z"/><path d="M231.4,199.94c-1.62,0-2.56-.06-2.6-.06l-.28,0-1-5,.26-.12c13.71-6.1,34.12-2.1,34.32-2.06l1.05.22-1,.47C250.13,199.26,236.89,199.94,231.4,199.94Zm-2.27-.77c2.24.1,17.61.54,31.75-6-4.39-.73-20.85-3-32.51,2.09Z"/><line class="cls-22" x1="243.72" y1="195.15" x2="231.2" y2="197.35"/><rect x="231.1" y="195.89" width="12.71" height="0.72" transform="translate(-30.41 44.11) rotate(-9.98)"/><path class="cls-22" d="M250.09,208.3s-10.36-11.14-21.18-13.37l-1.38,3S237.43,206.13,250.09,208.3Z"/><path d="M251.09,208.84l-1.06-.18c-12.61-2.17-22.63-10.36-22.73-10.44l-.21-.18,1.62-3.52.28,0c10.8,2.24,21.26,13.37,21.37,13.49Zm-23.11-11c1.46,1.15,10.17,7.7,21,9.9-2.6-2.57-11.13-10.44-19.9-12.39Z"/><line class="cls-22" x1="236.29" y1="200" x2="224.41" y2="195.45"/><rect x="229.99" y="191.37" width="0.72" height="12.71" transform="translate(-36.71 342.06) rotate(-69.03)"/><path class="cls-22" d="M256.84,186.67s-20.73-.77-33.32,7.49l1.56,4.24S242.53,196.77,256.84,186.67Z"/><path d="M224.84,198.79,223.08,194l.24-.16c12.54-8.23,33.33-7.56,33.54-7.55l1.07,0-.88.62c-14.23,10-31.76,11.78-31.94,11.8Zm-.88-4.48,1.36,3.7c2.23-.26,17.47-2.3,30.38-11h-.13C250.93,187,234.54,187.52,224,194.31Z"/><line class="cls-22" x1="236.14" y1="192.05" x2="224.19" y2="196.39"/><rect x="223.81" y="193.86" width="12.71" height="0.72" transform="translate(-52.51 90.33) rotate(-19.98)"/><path class="cls-22" d="M203.05,212.52s14.08-5.77,20-15.09l-2.33-2.36S209.56,201.44,203.05,212.52Z"/><path d="M202.2,213.26l.54-.92c6.48-11,17.68-17.52,17.79-17.58l.25-.14,2.72,2.76-.15.24c-5.91,9.32-20,15.18-20.16,15.24Zm18.45-17.73c-1.59,1-10.79,6.79-16.69,16.19,3.32-1.52,13.7-6.72,18.62-14.24Z"/><path class="cls-22" d="M190,198.82s20.16,4.93,34.16-.63l-.68-4.46S206,191.81,190,198.82Z"/><path d="M207.82,201.18a86.07,86.07,0,0,1-17.95-2l-1-.26,1-.43c16-7,33.48-5.14,33.66-5.12l.28,0,.76,5-.27.11C219.18,200.54,213.28,201.18,207.82,201.18Zm-16.68-2.47c4.36.91,20.72,3.81,32.57-.75l-.6-3.9C220.88,193.87,205.54,192.79,191.14,198.71Z"/><line class="cls-22" x1="207.61" y1="197.67" x2="219.82" y2="194.14"/><rect x="207.36" y="195.54" width="12.71" height="0.72" transform="translate(-45.94 66.95) rotate(-16.1)"/><path class="cls-22" d="M191.08,176.94s17,16.48,33.94,19.09l1.91-4.77S210.91,179.32,191.08,176.94Z"/><path d="M225.25,196.44l-.29-.05c-16.88-2.6-34-19-34.13-19.19l-.77-.74,1.07.12c19.69,2.37,35.85,14.26,36,14.38l.22.17Zm-33.09-19c3.57,3.25,18.16,15.81,32.63,18.18l1.69-4.25C224.51,190,209.9,179.92,192.16,177.45Z"/><line class="cls-22" x1="209.96" y1="186.25" x2="223.31" y2="191.87"/><rect x="216.27" y="181.81" width="0.72" height="14.49" transform="translate(-41.63 315.43) rotate(-67.18)"/><path class="cls-22" d="M193.64,190.15s18.62,9.16,33.48,6.75l.3-4.5S210.83,186.77,193.64,190.15Z"/><path d="M221.89,197.66c-13.62,0-28.25-7.11-28.41-7.19l-1-.47,1-.21c17.09-3.36,33.8,2.21,34,2.27l.26.08-.33,5.08-.29,0A32.94,32.94,0,0,1,221.89,197.66Zm-27.07-7.36c4.06,1.82,19.4,8.18,32,6.29l.26-3.93C224.91,192,210.16,187.62,194.82,190.3Z"/><line class="cls-22" x1="214.74" y1="193.69" x2="227.42" y2="194.59"/><rect x="220.72" y="187.78" width="0.72" height="12.71" transform="translate(11.67 400.81) rotate(-85.91)"/><path class="cls-22" d="M204.7,168.14s7.16,17.23,18.63,24.42l2.88-2.87S218.33,176.05,204.7,168.14Z"/><path d="M223.38,193l-.24-.16c-11.44-7.16-18.7-24.41-18.77-24.58l-.42-1,.93.54c13.55,7.86,21.56,21.54,21.64,21.68l.14.24ZM205.5,169c1.73,3.78,8.28,17,17.78,23.05l2.47-2.46C224.65,187.83,217.32,176.29,205.5,169Z"/><path class="cls-22" d="M213.1,160.81s-.24,20.75,8.34,33.12l4.19-1.67S223.56,174.86,213.1,160.81Z"/><path d="M221.31,194.38l-.17-.24c-8.54-12.33-8.41-33.13-8.41-33.34l0-1.07.64.86c10.4,14,12.58,31.45,12.6,31.63l0,.28Zm-7.84-32.44c.11,4.45,1,21,8.11,31.55l3.66-1.46C224.92,189.81,222.5,174.62,213.47,161.94Z"/><line class="cls-22" x1="218.21" y1="177.74" x2="224.41" y2="188.84"/><rect x="220.95" y="176.94" width="0.72" height="12.71" transform="translate(-61.28 131.15) rotate(-29.18)"/><path class="cls-22" d="M229.64,158.53s-7.9,19.19-4.51,33.86h4.51S234.16,175.46,229.64,158.53Z"/><path d="M229.92,192.76h-5.08l-.06-.29c-3.38-14.61,4.45-33.88,4.53-34.08l.41-1,.27,1c4.49,16.83,0,33.88,0,34.05Zm-4.5-.73h3.94c.53-2.18,3.9-17.18.21-32.31C228,163.9,222.69,179.63,225.42,192Z"/><line class="cls-22" x1="228.2" y1="176.94" x2="227.97" y2="189.65"/><rect x="221.73" y="182.93" width="12.71" height="0.72" transform="matrix(0.02, -1, 1, 0.02, 40.67, 408)"/><path class="cls-22" d="M241.65,164.85S228.6,178.47,226.6,192l3.82,1.49S239.86,180.68,241.65,164.85Z"/><path d="M230.55,194l-4.35-1.7,0-.29c2-13.5,15-27.22,15.14-27.36l.75-.77-.12,1.06c-1.78,15.74-11.2,28.71-11.29,28.84ZM227,191.79l3.29,1.28c1.22-1.73,9-13.22,10.85-27.13C238.36,169.07,228.8,180.5,227,191.79Z"/><line class="cls-22" x1="232.35" y1="182.53" x2="227.57" y2="197.55"/><rect x="222.08" y="189.68" width="15.76" height="0.72" transform="translate(-20.88 351.52) rotate(-72.34)"/><path class="cls-22" d="M222.38,162.43s-4.71,21.74,1,36.73l4.46-.78S229.56,179.62,222.38,162.43Z"/><path d="M223.14,199.57l-.1-.28c-5.68-14.92-1.06-36.72-1-36.93l.24-1.13.45,1.06c7.13,17.08,5.49,35.93,5.47,36.12l0,.28Zm-.64-35.87c-.86,4.71-3.59,22.34,1.11,35.05l3.88-.68C227.66,195.74,228.59,179.17,222.5,163.7Z"/><line class="cls-22" x1="223.71" y1="185.4" x2="225.69" y2="198.9"/><rect x="224.34" y="185.33" width="0.72" height="13.65" transform="translate(-25.56 34.73) rotate(-8.36)"/><circle class="cls-9" cx="221.52" cy="199.64" r="4.83"/><path d="M221.52,204.83a5.19,5.19,0,1,1,5.2-5.19A5.2,5.2,0,0,1,221.52,204.83Zm0-9.66a4.47,4.47,0,1,0,4.47,4.47A4.47,4.47,0,0,0,221.52,195.17Z"/><circle cx="219.56" cy="197.07" r="0.75"/><path d="M219.56,198.19a1.12,1.12,0,1,1,1.12-1.12A1.12,1.12,0,0,1,219.56,198.19Zm0-1.51a.4.4,0,0,0,0,.79.4.4,0,0,0,0-.79Z"/><circle cx="222.58" cy="198.28" r="0.75"/><path d="M222.58,199.4a1.12,1.12,0,1,1,1.12-1.12A1.12,1.12,0,0,1,222.58,199.4Zm0-1.51a.4.4,0,0,0-.39.39.39.39,0,0,0,.39.39.38.38,0,0,0,.39-.39A.39.39,0,0,0,222.58,197.89Z"/><circle cx="219.86" cy="199.79" r="0.75"/><path d="M219.86,200.91a1.12,1.12,0,1,1,1.12-1.12A1.12,1.12,0,0,1,219.86,200.91Zm0-1.51a.39.39,0,1,0,.4.39A.39.39,0,0,0,219.86,199.4Z"/><circle class="cls-9" cx="227.81" cy="202.06" r="4.83"/><path d="M227.8,207.25a5.19,5.19,0,1,1,2.83-9.56,5.2,5.2,0,0,1-1.73,9.45A6,6,0,0,1,227.8,207.25Zm0-9.66a4.32,4.32,0,0,0-.95.1,4.48,4.48,0,1,0,.95-.1Z"/><circle cx="224.58" cy="202.31" r="0.75"/><path d="M224.58,203.43a1.08,1.08,0,0,1-.6-.18,1.12,1.12,0,0,1-.33-1.55,1.09,1.09,0,0,1,.7-.48,1.13,1.13,0,0,1,.84.15h0a1.12,1.12,0,0,1,.33,1.55,1.09,1.09,0,0,1-.7.48Zm0-1.51h-.09a.35.35,0,0,0-.24.17.39.39,0,0,0,.11.54.38.38,0,0,0,.54-.12.39.39,0,0,0-.11-.54h0A.42.42,0,0,0,224.59,201.92Z"/><circle cx="227.24" cy="200.43" r="0.75"/><path d="M227.24,201.55a1.11,1.11,0,0,1-.61-.18,1.09,1.09,0,0,1-.48-.7,1.1,1.1,0,0,1,.15-.85,1.09,1.09,0,0,1,.7-.48,1.15,1.15,0,0,1,.85.15h0a1.08,1.08,0,0,1,.48.71,1.13,1.13,0,0,1-.15.84,1.08,1.08,0,0,1-.71.48A.91.91,0,0,1,227.24,201.55Zm0-1.51h-.08a.37.37,0,0,0-.25.17.39.39,0,1,0,.66.42.37.37,0,0,0,.05-.29.39.39,0,0,0-.17-.25h0A.39.39,0,0,0,227.24,200Z"/><circle cx="227.03" cy="203.53" r="0.75"/><path d="M227,204.65a1.14,1.14,0,0,1-.61-.18,1.12,1.12,0,0,1-.33-1.54,1.1,1.1,0,0,1,.71-.49,1.12,1.12,0,0,1,.47,2.19Zm0-1.51H227a.39.39,0,0,0-.25.17.39.39,0,0,0,.66.43.4.4,0,0,0,.06-.3.45.45,0,0,0-.18-.25A.37.37,0,0,0,227,203.14Z"/><circle class="cls-9" cx="205.58" cy="247.96" r="4.83"/><path d="M205.59,253.15a6.81,6.81,0,0,1-.78-.05,5.35,5.35,0,1,1,.78.05Zm0-9.66a4.48,4.48,0,1,0,.67,0A3.78,3.78,0,0,0,205.57,243.49Z"/><circle cx="208.41" cy="246.4" r="0.75"/><path d="M208.41,247.52l-.17,0a1.12,1.12,0,0,1-.94-1.27,1.12,1.12,0,0,1,2-.5,1.08,1.08,0,0,1,.2.83,1.12,1.12,0,0,1-1.1,1Zm0-1.51a.37.37,0,0,0-.23.07.4.4,0,0,0-.16.26.42.42,0,0,0,.07.29.43.43,0,0,0,.26.16.42.42,0,0,0,.45-.33.41.41,0,0,0-.07-.29.43.43,0,0,0-.26-.16Z"/><circle cx="206.77" cy="249.21" r="0.75"/><path d="M206.77,250.32h-.17a1.12,1.12,0,0,1-.5-2,1.13,1.13,0,0,1,.83-.21,1.1,1.1,0,0,1,.74.44,1.12,1.12,0,0,1,.2.83,1.12,1.12,0,0,1-1.1.95Zm0-1.51a.41.41,0,0,0-.24.08.37.37,0,0,0-.15.26.38.38,0,0,0,.33.44.38.38,0,0,0,.29-.07.42.42,0,0,0,.16-.26.39.39,0,0,0-.08-.29.37.37,0,0,0-.25-.15Z"/><circle cx="205.68" cy="246.29" r="0.75"/><path d="M205.68,247.41h-.17a1.12,1.12,0,0,1-.94-1.27,1.1,1.1,0,0,1,.44-.73,1.13,1.13,0,0,1,.83-.21,1.12,1.12,0,0,1,.5,2A1.05,1.05,0,0,1,205.68,247.41Zm0-1.51a.41.41,0,0,0-.24.08.37.37,0,0,0-.15.26.38.38,0,0,0,.33.44h0a.38.38,0,0,0,.29-.07.42.42,0,0,0,.16-.26.38.38,0,0,0-.08-.29.37.37,0,0,0-.25-.15Z"/><path class="cls-23" d="M134.15,249.76a.51.51,0,0,1-.24-.24c0-.16.1-.3.23-.41a21.49,21.49,0,0,1,5.31-3.28,49.55,49.55,0,0,0,.91,5.69.53.53,0,0,1,0,.33.54.54,0,0,1-.34.26C137.48,253.2,136.34,251,134.15,249.76Z"/><path d="M138.73,252.91a5.18,5.18,0,0,1-3.18-1.54,12.46,12.46,0,0,0-1.64-1.18h0a.87.87,0,0,1-.47-.53.85.85,0,0,1,.37-.93,21.94,21.94,0,0,1,5.44-3.36l.63-.27.07.68a49,49,0,0,0,.9,5.64,1.05,1.05,0,0,1,0,.61,1,1,0,0,1-.61.54A3.71,3.71,0,0,1,138.73,252.91Zm-4.17-3.5a14.69,14.69,0,0,1,1.62,1.18c1.23,1,2.13,1.72,3.66,1.06h0c-.37-1.72-.65-3.4-.84-5.07A20.64,20.64,0,0,0,134.56,249.41Zm-.23-.13-.18.48.23-.41A.25.25,0,0,0,134.33,249.28Z"/><path class="cls-23" d="M142.3,262.68a20.94,20.94,0,0,0,2.51-2c.59-.44,1.27-.74,1.85-1.18a2.67,2.67,0,0,0,1.18-1.78.79.79,0,0,0-.08-.5,1.07,1.07,0,0,0-.34-.33,17.91,17.91,0,0,0-7-2.69C140.12,256.94,141.25,260.18,142.3,262.68Z"/><path d="M142,263.37l-.21-.49c-1-2.33-2.23-5.77-1.93-8.75l0-.53.53.09a18.72,18.72,0,0,1,7.23,2.77,1.56,1.56,0,0,1,.49.5,1.31,1.31,0,0,1,.14.79,3.12,3.12,0,0,1-1.38,2.13,9,9,0,0,1-1,.62,10.07,10.07,0,0,0-.88.56,9.56,9.56,0,0,0-.92.8,7.53,7.53,0,0,1-1.66,1.27Zm-1.18-8.59a18.81,18.81,0,0,0,1.68,7.17,11.65,11.65,0,0,0,1-.82,10.79,10.79,0,0,1,1-.88c.31-.22.64-.42,1-.61s.6-.35.89-.56a2.23,2.23,0,0,0,1-1.43.4.4,0,0,0,0-.2.67.67,0,0,0-.2-.17A16.75,16.75,0,0,0,140.86,254.78Z"/><path class="cls-15" d="M136.5,253.74c.36,1.49,2.05,2.29,3.58,2.33,2.37.06,3.28-4.24,1.45-5.53C139.49,249.1,135.9,251.22,136.5,253.74Z"/><path d="M140.13,256.57h-.06c-1.65,0-3.62-.91-4-2.72h0a3.33,3.33,0,0,1,1.57-3.51,3.79,3.79,0,0,1,4.23-.21c1.24.87,1.41,2.76.94,4.18A2.91,2.91,0,0,1,140.13,256.57ZM137,253.62c.29,1.24,1.78,1.92,3.1,1.95h0c1.08,0,1.56-1.2,1.68-1.57.34-1.05.26-2.47-.57-3.05a2.79,2.79,0,0,0-3.08.21,2.42,2.42,0,0,0-1.17,2.46Z"/><path class="cls-24" d="M120.09,241.45c-.42,0-1,.11-1.06.51a1,1,0,0,0,.18.73l1.71,3.1a1.39,1.39,0,0,0,.65.72c.51.2,1-.22,1.4-.62.67-.73,3.17-3.35,2.32-4.35C124.58,240.72,121.08,241.42,120.09,241.45Z"/><path d="M121.84,247.06a1.25,1.25,0,0,1-.45-.08,1.91,1.91,0,0,1-.91-.94l-1.7-3.11a1.44,1.44,0,0,1-.23-1.11c.11-.37.46-.83,1.52-.87h0c.22,0,.58,0,1-.1,2.12-.26,3.92-.4,4.59.37,1,1.13-.58,3.11-2.22,4.89l-.11.12A2.1,2.1,0,0,1,121.84,247.06ZM120.1,242c-.46,0-.58.12-.59.14s0,.12.14.36l1.71,3.1c.09.18.24.44.39.5s.5-.12.85-.5l.11-.12c2.59-2.81,2.29-3.46,2.2-3.56-.37-.43-2.8-.14-3.71,0-.46.06-.85.1-1.1.11Z"/><path class="cls-24" d="M130,235a.5.5,0,0,1,.27-.18c.22-.05.4.18.51.38,1.17,2,2.26,4,3.27,6.1a32.79,32.79,0,0,0-6.26.21A7.88,7.88,0,0,1,130,235Z"/><path d="M127.35,242.08l-.06-.5a8.37,8.37,0,0,1,2.34-6.91h0a1,1,0,0,1,.53-.33c.22-.05.67,0,1,.62,1.17,2,2.28,4,3.29,6.13l.38.77-.86-.05a32.5,32.5,0,0,0-6.16.2Zm3-6.68a7.43,7.43,0,0,0-2.08,5.56,33.22,33.22,0,0,1,5-.19c-.9-1.8-1.87-3.58-2.88-5.31ZM130,235l.33.31h0Z"/><path class="cls-11" d="M125.65,238.29a3.14,3.14,0,0,0-1.93,2.62,1.62,1.62,0,0,0,.5,1.49,1.94,1.94,0,0,0,.87.31,15.7,15.7,0,0,0,2.82.22,1.94,1.94,0,0,0,.86-.16c1-.57,1-3,.27-3.75A3.64,3.64,0,0,0,125.65,238.29Z"/><path d="M127.71,243.43a16.31,16.31,0,0,1-2.7-.23,2.38,2.38,0,0,1-1.09-.4,2.08,2.08,0,0,1-.7-1.94,3.64,3.64,0,0,1,2.25-3h0a4.13,4.13,0,0,1,3.95.87,3.87,3.87,0,0,1,.57,2.92,2.17,2.17,0,0,1-1,1.6,2.42,2.42,0,0,1-1.09.22Zm-1.89-4.67a2.64,2.64,0,0,0-1.61,2.19,1.23,1.23,0,0,0,.31,1.05,1.56,1.56,0,0,0,.66.21,14.68,14.68,0,0,0,2.72.22,1.49,1.49,0,0,0,.63-.1,1.26,1.26,0,0,0,.48-.9,2.93,2.93,0,0,0-.35-2.09,3.17,3.17,0,0,0-2.84-.58Z"/><path class="cls-13" d="M150,248.85s-7.18,13-4.4,16.58,9.83-14.87,9.83-14.87L150,248.85"/><path d="M146.42,266.34a1.47,1.47,0,0,1-1.19-.63c-2.88-3.68,3.62-15.72,4.37-17.08l.18-.33,6.24,2-.18.45c-.59,1.55-5.86,15.1-9.2,15.6Zm3.79-16.94c-2,3.79-6.33,13.11-4.26,15.75.22.28.4.3.55.27,2.07-.31,6.12-8.91,8.32-14.57Z"/><path class="cls-13" d="M170.12,253.81S170,267,175.37,268.94s-.6-16.24-.6-16.24Z"/><path d="M176.12,269.55a2.61,2.61,0,0,1-.91-.18c-5.62-2.08-5.56-15-5.55-15.56v-.36l5.41-1.29.13.4c.47,1.44,4.55,14.13,2.05,16.54A1.56,1.56,0,0,1,176.12,269.55Zm-5.55-15.38c0,2.08.4,12.67,5,14.35.66.24.94.08,1.09-.07,1.54-1.48-.46-9.94-2.16-15.21Z"/><path class="cls-13" d="M160,252.26s-1.53,11.17,1.66,12.74,3.13-11.17,3.13-11.17Z"/><path d="M162.23,265.59a1.66,1.66,0,0,1-.73-.18c-3.39-1.67-2.07-12-1.91-13.21l.07-.54,5.62,1.84v.32c0,1,0,10.12-2.3,11.55A1.36,1.36,0,0,1,162.23,265.59Zm-1.81-12.73c-.4,3.35-.76,10.63,1.49,11.73a.55.55,0,0,0,.59,0c1.36-.85,1.87-6.72,1.87-10.44Z"/><path class="cls-13" d="M148.7,249.92s15,7.88,19.65,6.77,7.38-3.4,7-4.95l-1.55-5.67L148,240.24Z"/><path d="M167.33,257.25c-5.6,0-18.27-6.63-18.84-6.93l-.23-.12-.73-10.53,26.64,6,1.63,5.93c.47,2-2.75,4.42-7.35,5.51A4.81,4.81,0,0,1,167.33,257.25Zm-18.2-7.62c1.88,1,15,7.61,19.11,6.62,4.71-1.13,6.93-3.32,6.67-4.41l-1.47-5.39-24.92-5.63Z"/><path class="cls-13" d="M164.86,238.68s-11.16-5.53-16.25.6a3.24,3.24,0,0,0-.85,2.25c.28,5.11,15,9.11,15,9.11s8.87,2.8,10.85-2.59S164.86,238.68,164.86,238.68Z"/><path d="M167.64,251.84a18.18,18.18,0,0,1-5-.76c-.6-.17-15.07-4.15-15.36-9.52a3.69,3.69,0,0,1,.95-2.57c5.2-6.26,16.07-1.08,16.78-.73a27.44,27.44,0,0,1,5.22,2.7c3.39,2.32,4.72,4.82,3.82,7.25C173,251.1,170.2,251.84,167.64,251.84Zm-12-15a8.21,8.21,0,0,0-6.62,2.71,2.75,2.75,0,0,0-.75,1.94c.21,3.92,10.68,7.6,14.7,8.69.1,0,8.49,2.61,10.31-2.31.74-2-.43-4.09-3.48-6.17a25.82,25.82,0,0,0-5.05-2.61l0,0A23.76,23.76,0,0,0,155.59,236.86Z"/><path class="cls-25" d="M201.85,88.48c0,.22,0,.44,0,.64s0,.39.18.5a3.08,3.08,0,0,0,2,.48c.58,0,1.95.09,2-.49a14.16,14.16,0,0,0,0-1.47c0-1.14-.11-1.69-.22-2.84a2.83,2.83,0,0,0-.14-.76,1.84,1.84,0,0,0-1.93-1c-.87.11-2.1.7-2.09,1.66C201.62,86.49,201.77,87.2,201.85,88.48Z"/><path d="M203.78,90.24a3.14,3.14,0,0,1-1.78-.52.7.7,0,0,1-.23-.54v0c0-.14,0-.28,0-.42a1.77,1.77,0,0,0,0-.23h0c0-.51-.07-.92-.11-1.32a16,16,0,0,1-.13-2c0-1,1.28-1.67,2.2-1.78a2,2,0,0,1,2.06,1.08,3.15,3.15,0,0,1,.15.79l0,.44c.08.88.13,1.41.18,2.41a14.21,14.21,0,0,1,0,1.47c0,.58-1,.6-1.65.61h-.69ZM202,88.47a1.93,1.93,0,0,0,0,.24c0,.14,0,.27,0,.39v.05a.52.52,0,0,0,.13.36A3,3,0,0,0,204,90l.45,0c.52,0,1.39,0,1.4-.36,0-.67,0-.87,0-1.45-.05-1-.1-1.52-.18-2.39l-.05-.44a2.54,2.54,0,0,0-.13-.73,1.7,1.7,0,0,0-1.79-.92c-.8.1-2,.65-2,1.53s.07,1.34.13,1.94c0,.4.08.82.12,1.33Z"/><ellipse class="cls-14" cx="203.69" cy="84.61" rx="1.89" ry="1.05" transform="translate(-7.85 22.17) rotate(-6.11)"/><path d="M203.44,85.76a2.74,2.74,0,0,1-1-.19,1,1,0,0,1-.68-.75c-.07-.63.74-1.22,1.84-1.34a3,3,0,0,1,1.4.17,1,1,0,0,1,.68.75,1,1,0,0,1-.51.88,3,3,0,0,1-1.33.46Zm.5-2.13-.35,0c-1,.11-1.75.63-1.69,1.15,0,.25.23.47.57.61a2.68,2.68,0,0,0,1.32.16,2.81,2.81,0,0,0,1.26-.43.83.83,0,0,0,.43-.72h0c0-.25-.23-.46-.58-.61A2.38,2.38,0,0,0,203.94,83.63Z"/><path class="cls-12" d="M203,89.48a1.66,1.66,0,0,1-.33,0,.73.73,0,0,1-.49-.27.42.42,0,0,1,0-.35.41.41,0,0,1,.23-.25l.07.15a.32.32,0,0,0-.14.16.23.23,0,0,0,0,.2.54.54,0,0,0,.37.19,1.07,1.07,0,0,0,.4,0,.4.4,0,0,0,.29-.18.29.29,0,0,0,0-.31l0,0a.31.31,0,0,1-.25,0,.46.46,0,0,1-.23-.44.3.3,0,0,1,.12-.24l0,0V88l.17,0h.06a.31.31,0,0,0-.14-.11l-.12,0v-.08l-.13,0,.13-.09h0l-.06-.05-.07-.07.08-.06.08,0a.92.92,0,0,1-.21-.13l-.44-.13-.23-.07.21-.09a.45.45,0,0,1,.45.07l.1.07h0l0-.33h0a.44.44,0,0,0-.08-.11l0,0a3,3,0,0,1-.45-.2l-.32-.17h.36a.76.76,0,0,1,.5.22,4.12,4.12,0,0,0,.47.13.64.64,0,0,0-.14-.22.62.62,0,0,1-.41-.24l-.12-.18.21,0a.91.91,0,0,1,.4.21h0a.44.44,0,0,0-.25-.34l.07-.15a.59.59,0,0,1,.35.57v.06h0a.84.84,0,0,1,.13.33l0,.12-.12,0a2.74,2.74,0,0,1-.39-.09l0,.06a.49.49,0,0,1,.22.08.32.32,0,0,1,.15.36.24.24,0,0,1-.11.13.17.17,0,0,1,0,0,.12.12,0,0,1,0,.13h0l.38.14-.4,0h0l.1,0,0,.13a.56.56,0,0,1,.07.18h0l.3.1-.26,0a.4.4,0,0,1,.05.38.31.31,0,0,1-.07.09h0a.46.46,0,0,1,.06.5.54.54,0,0,1-.42.26Zm.07-1.28a.05.05,0,0,0,0,0,.15.15,0,0,0,0,.11q0,.09.18.18l.05,0,.1,0a.17.17,0,0,0,.06-.06c0-.08,0-.19-.09-.25l-.13-.07Zm.12-.6h0Zm0-.33.07,0h0s.07,0,.08-.06a.17.17,0,0,0-.08-.17l-.08,0a.48.48,0,0,1,0,.17A.13.13,0,0,1,203.18,87.27Z"/><path class="cls-12" d="M204.44,89.48a.6.6,0,0,1-.35-.58v-.06h0a.79.79,0,0,1-.13-.33l0-.12.11,0a2.59,2.59,0,0,1,.4.09l0-.06a.57.57,0,0,1-.22-.07.34.34,0,0,1-.15-.37.24.24,0,0,1,.11-.13s0,0,0,0a.12.12,0,0,1,0-.13h0l-.38-.14.4,0h0l-.09,0,0-.13a.36.36,0,0,1-.07-.18h0l-.3-.1.26,0a.35.35,0,0,1,0-.47h0a.46.46,0,0,1-.05-.49.57.57,0,0,1,.41-.27,1.16,1.16,0,0,1,.46,0,.73.73,0,0,1,.49.27.42.42,0,0,1,0,.35.4.4,0,0,1-.24.25l-.06-.15a.28.28,0,0,0,.14-.16.23.23,0,0,0,0-.2.54.54,0,0,0-.37-.19.91.91,0,0,0-.4,0,.37.37,0,0,0-.29.18.3.3,0,0,0,0,.3l0,0a.36.36,0,0,1,.25,0,.46.46,0,0,1,.23.44.3.3,0,0,1-.12.24l0,0,0,.06-.16,0-.06,0a.26.26,0,0,0,.14.11l.12,0v.08l.13,0-.13.09h0l.06,0,.07.07-.08.06-.08,0a.69.69,0,0,1,.2.13l.45.14.23.06-.21.09a.47.47,0,0,1-.46-.07l-.09-.07h0v.32h0a.48.48,0,0,0,.09.11l0,0a3,3,0,0,1,.45.2l.32.17h-.36a.74.74,0,0,1-.51-.22,3.47,3.47,0,0,0-.46-.13.64.64,0,0,0,.14.22.62.62,0,0,1,.41.24l.12.18-.21,0a.86.86,0,0,1-.4-.21h0a.42.42,0,0,0,.25.34Zm-.1-1.5a.1.1,0,0,0-.08.07s0,.13.08.16a.2.2,0,0,0,.08,0,.48.48,0,0,1,0-.17.13.13,0,0,1,0-.06l-.07,0Zm0-.29h0Zm0-.61h.11l0,0a.15.15,0,0,0,0-.11.34.34,0,0,0-.18-.18l0,0-.1,0a.09.09,0,0,0-.06.06c0,.08,0,.19.09.25Z"/><path class="cls-25" d="M204.85,90.48c0,.22,0,.44,0,.64s0,.39.18.5a3.08,3.08,0,0,0,2,.48c.58,0,1.95.09,2-.49a14.16,14.16,0,0,0,0-1.47c0-1.14-.11-1.69-.22-2.84a2.83,2.83,0,0,0-.14-.76,1.84,1.84,0,0,0-1.93-1c-.87.11-2.1.7-2.09,1.66C204.62,88.49,204.77,89.2,204.85,90.48Z"/><path d="M206.78,92.24a3.14,3.14,0,0,1-1.78-.52.7.7,0,0,1-.23-.54v0c0-.14,0-.28,0-.42a1.77,1.77,0,0,0,0-.23h0c0-.51-.07-.92-.11-1.32a16,16,0,0,1-.13-2c0-1,1.28-1.67,2.2-1.78a2,2,0,0,1,2.06,1.08,3.15,3.15,0,0,1,.15.79l0,.44c.08.88.13,1.41.18,2.41a14.21,14.21,0,0,1,0,1.47c0,.58-1,.6-1.65.61h-.69ZM205,90.47a1.93,1.93,0,0,0,0,.24c0,.14,0,.27,0,.39v.05a.52.52,0,0,0,.13.36A3,3,0,0,0,207,92l.45,0c.52,0,1.39,0,1.4-.36,0-.67,0-.87,0-1.45-.05-1-.1-1.52-.18-2.39l-.05-.44a2.54,2.54,0,0,0-.13-.73,1.7,1.7,0,0,0-1.79-.92c-.8.1-2,.65-2,1.53s.07,1.34.13,1.94c0,.4.08.82.12,1.33Z"/><ellipse class="cls-14" cx="206.69" cy="86.61" rx="1.89" ry="1.05" transform="translate(-8.05 22.5) rotate(-6.11)"/><path d="M206.44,87.76a2.74,2.74,0,0,1-1-.19,1,1,0,0,1-.68-.75c-.07-.63.74-1.22,1.84-1.34a3,3,0,0,1,1.4.17,1,1,0,0,1,.68.75,1,1,0,0,1-.51.88,3,3,0,0,1-1.33.46Zm.5-2.13-.35,0c-1,.11-1.75.63-1.69,1.15,0,.25.23.47.57.61a2.68,2.68,0,0,0,1.32.16,2.81,2.81,0,0,0,1.26-.43.83.83,0,0,0,.43-.72h0c0-.25-.23-.46-.58-.61A2.38,2.38,0,0,0,206.94,85.63Z"/><path class="cls-12" d="M206,91.48a1.66,1.66,0,0,1-.33,0,.73.73,0,0,1-.49-.27.42.42,0,0,1,0-.35.41.41,0,0,1,.23-.25l.07.15a.32.32,0,0,0-.14.16.23.23,0,0,0,0,.2.54.54,0,0,0,.37.19,1.07,1.07,0,0,0,.4,0,.4.4,0,0,0,.29-.18.29.29,0,0,0,0-.31l0,0a.31.31,0,0,1-.25,0,.46.46,0,0,1-.23-.44.3.3,0,0,1,.12-.24l0,0V90l.17,0h.06a.31.31,0,0,0-.14-.11l-.12,0v-.08l-.13,0,.13-.09h0l-.06-.05-.07-.07.08-.06.08,0a.92.92,0,0,1-.21-.13l-.44-.13-.23-.07.21-.09a.45.45,0,0,1,.45.07l.1.07h0l0-.33h0a.44.44,0,0,0-.08-.11l0,0a3,3,0,0,1-.45-.2l-.32-.17h.36a.76.76,0,0,1,.5.22,4.12,4.12,0,0,0,.47.13.64.64,0,0,0-.14-.22.62.62,0,0,1-.41-.24l-.12-.18.21,0a.91.91,0,0,1,.4.21h0a.44.44,0,0,0-.25-.34l.07-.15a.59.59,0,0,1,.35.57v.06h0a.84.84,0,0,1,.13.33l0,.12-.12,0a2.74,2.74,0,0,1-.39-.09l0,.06a.49.49,0,0,1,.22.08.32.32,0,0,1,.15.36.24.24,0,0,1-.11.13.17.17,0,0,1,0,0,.12.12,0,0,1,0,.13h0l.38.14-.4,0h0l.1,0,0,.13a.56.56,0,0,1,.07.18h0l.3.1-.26,0a.4.4,0,0,1,.05.38.31.31,0,0,1-.07.09h0a.46.46,0,0,1,.06.5.54.54,0,0,1-.42.26Zm.07-1.28a.05.05,0,0,0,0,0,.15.15,0,0,0,0,.11q0,.09.18.18l.05,0,.1,0a.17.17,0,0,0,.06-.06c0-.08,0-.19-.09-.25l-.13-.07Zm.12-.6h0Zm0-.33.07,0h0s.07,0,.08-.06a.17.17,0,0,0-.08-.17l-.08,0a.48.48,0,0,1,0,.17A.13.13,0,0,1,206.18,89.27Z"/><path class="cls-12" d="M207.44,91.48a.6.6,0,0,1-.35-.58v-.06h0a.79.79,0,0,1-.13-.33l0-.12.11,0a2.59,2.59,0,0,1,.4.09l0-.06a.57.57,0,0,1-.22-.07.34.34,0,0,1-.15-.37.24.24,0,0,1,.11-.13s0,0,0,0a.12.12,0,0,1,0-.13h0l-.38-.14.4,0h0l-.09,0,0-.13a.36.36,0,0,1-.07-.18h0l-.3-.1.26,0a.35.35,0,0,1,0-.47h0a.46.46,0,0,1-.05-.49.57.57,0,0,1,.41-.27,1.16,1.16,0,0,1,.46,0,.73.73,0,0,1,.49.27.42.42,0,0,1,0,.35.4.4,0,0,1-.24.25l-.06-.15a.28.28,0,0,0,.14-.16.23.23,0,0,0,0-.2.54.54,0,0,0-.37-.19.91.91,0,0,0-.4,0,.37.37,0,0,0-.29.18.3.3,0,0,0,0,.3l0,0a.36.36,0,0,1,.25,0,.46.46,0,0,1,.23.44.3.3,0,0,1-.12.24l0,0,0,.06-.16,0-.06,0a.26.26,0,0,0,.14.11l.12,0v.08l.13,0-.13.09h0l.06,0,.07.07-.08.06-.08,0a.69.69,0,0,1,.2.13l.45.14.23.06-.21.09a.47.47,0,0,1-.46-.07l-.09-.07h0v.32h0a.48.48,0,0,0,.09.11l0,0a3,3,0,0,1,.45.2l.32.17h-.36a.74.74,0,0,1-.51-.22,3.47,3.47,0,0,0-.46-.13.64.64,0,0,0,.14.22.62.62,0,0,1,.41.24l.12.18-.21,0a.86.86,0,0,1-.4-.21h0a.42.42,0,0,0,.25.34Zm-.1-1.5a.1.1,0,0,0-.08.07s0,.13.08.16a.2.2,0,0,0,.08,0,.48.48,0,0,1,0-.17.13.13,0,0,1,0-.06l-.07,0Zm0-.29h0Zm0-.61h.11l0,0a.15.15,0,0,0,0-.11.34.34,0,0,0-.18-.18l0,0-.1,0a.09.09,0,0,0-.06.06c0,.08,0,.19.09.25Z"/><path class="cls-25" d="M207.85,91.48c0,.22,0,.44,0,.64s0,.39.18.5a3.08,3.08,0,0,0,2,.48c.58,0,1.95.09,2-.49a14.16,14.16,0,0,0,0-1.47c0-1.14-.11-1.69-.22-2.84a2.83,2.83,0,0,0-.14-.76,1.84,1.84,0,0,0-1.93-1c-.87.11-2.1.7-2.09,1.66C207.62,89.49,207.77,90.2,207.85,91.48Z"/><path d="M209.78,93.24a3.14,3.14,0,0,1-1.78-.52.7.7,0,0,1-.23-.54v0c0-.14,0-.28,0-.42a1.77,1.77,0,0,0,0-.23h0c0-.51-.07-.92-.11-1.32a16,16,0,0,1-.13-2c0-1,1.28-1.67,2.2-1.78a2,2,0,0,1,2.06,1.08,3.15,3.15,0,0,1,.15.79l0,.44c.08.88.13,1.41.18,2.41a14.21,14.21,0,0,1,0,1.47c0,.58-1,.6-1.65.61h-.69ZM208,91.47a1.93,1.93,0,0,0,0,.24c0,.14,0,.27,0,.39v.05a.52.52,0,0,0,.13.36A3,3,0,0,0,210,93l.45,0c.52,0,1.39,0,1.4-.36,0-.67,0-.87,0-1.45-.05-1-.1-1.52-.18-2.39l-.05-.44a2.54,2.54,0,0,0-.13-.73,1.7,1.7,0,0,0-1.79-.92c-.8.1-2,.65-2,1.53s.07,1.34.13,1.94c0,.4.08.82.12,1.33Z"/><ellipse class="cls-14" cx="209.69" cy="87.61" rx="1.89" ry="1.05" transform="translate(-8.14 22.83) rotate(-6.11)"/><path d="M209.44,88.76a2.74,2.74,0,0,1-1-.19,1,1,0,0,1-.68-.75c-.07-.63.74-1.22,1.84-1.34a3,3,0,0,1,1.4.17,1,1,0,0,1,.68.75,1,1,0,0,1-.51.88,3,3,0,0,1-1.33.46Zm.5-2.13-.35,0c-1,.11-1.75.63-1.69,1.15,0,.25.23.47.57.61a2.68,2.68,0,0,0,1.32.16,2.81,2.81,0,0,0,1.26-.43.83.83,0,0,0,.43-.72h0c0-.25-.23-.46-.58-.61A2.38,2.38,0,0,0,209.94,86.63Z"/><path class="cls-12" d="M209,92.48a1.66,1.66,0,0,1-.33,0,.73.73,0,0,1-.49-.27.42.42,0,0,1,0-.35.41.41,0,0,1,.23-.25l.07.15a.32.32,0,0,0-.14.16.23.23,0,0,0,0,.2.54.54,0,0,0,.37.19,1.07,1.07,0,0,0,.4,0,.4.4,0,0,0,.29-.18.29.29,0,0,0,0-.31l0,0a.31.31,0,0,1-.25,0,.46.46,0,0,1-.23-.44.3.3,0,0,1,.12-.24l0,0V91l.17,0h.06a.31.31,0,0,0-.14-.11l-.12,0v-.08l-.13,0,.13-.09h0l-.06-.05-.07-.07.08-.06.08,0a.92.92,0,0,1-.21-.13l-.44-.13-.23-.07.21-.09a.45.45,0,0,1,.45.07l.1.07h0l0-.33h0a.44.44,0,0,0-.08-.11l0,0a3,3,0,0,1-.45-.2l-.32-.17h.36a.76.76,0,0,1,.5.22,4.12,4.12,0,0,0,.47.13.64.64,0,0,0-.14-.22.62.62,0,0,1-.41-.24l-.12-.18.21,0a.91.91,0,0,1,.4.21h0a.44.44,0,0,0-.25-.34l.07-.15a.59.59,0,0,1,.35.57v.06h0a.84.84,0,0,1,.13.33l0,.12-.12,0a2.74,2.74,0,0,1-.39-.09l0,.06a.49.49,0,0,1,.22.08.32.32,0,0,1,.15.36.24.24,0,0,1-.11.13.17.17,0,0,1,0,0,.12.12,0,0,1,0,.13h0l.38.14-.4,0h0l.1,0,0,.13a.56.56,0,0,1,.07.18h0l.3.1-.26,0a.4.4,0,0,1,.05.38.31.31,0,0,1-.07.09h0a.46.46,0,0,1,.06.5.54.54,0,0,1-.42.26Zm.07-1.28a.05.05,0,0,0,0,0,.15.15,0,0,0,0,.11q0,.09.18.18l.05,0,.1,0a.17.17,0,0,0,.06-.06c0-.08,0-.19-.09-.25l-.13-.07Zm.12-.6h0Zm0-.33.07,0h0s.07,0,.08-.06a.17.17,0,0,0-.08-.17l-.08,0a.48.48,0,0,1,0,.17A.13.13,0,0,1,209.18,90.27Z"/><path class="cls-12" d="M210.44,92.48a.6.6,0,0,1-.35-.58v-.06h0a.79.79,0,0,1-.13-.33l0-.12.11,0a2.59,2.59,0,0,1,.4.09l0-.06a.57.57,0,0,1-.22-.07.34.34,0,0,1-.15-.37.24.24,0,0,1,.11-.13s0,0,0,0a.12.12,0,0,1,0-.13h0l-.38-.14.4,0h0l-.09,0,0-.13a.36.36,0,0,1-.07-.18h0l-.3-.1.26,0a.35.35,0,0,1,0-.47h0a.46.46,0,0,1-.05-.49.57.57,0,0,1,.41-.27,1.16,1.16,0,0,1,.46,0,.73.73,0,0,1,.49.27.42.42,0,0,1,0,.35.4.4,0,0,1-.24.25l-.06-.15a.28.28,0,0,0,.14-.16.23.23,0,0,0,0-.2.54.54,0,0,0-.37-.19.91.91,0,0,0-.4,0,.37.37,0,0,0-.29.18.3.3,0,0,0,0,.3l0,0a.36.36,0,0,1,.25,0,.46.46,0,0,1,.23.44.3.3,0,0,1-.12.24l0,0,0,.06-.16,0-.06,0a.26.26,0,0,0,.14.11l.12,0v.08l.13,0-.13.09h0l.06,0,.07.07-.08.06-.08,0a.69.69,0,0,1,.2.13l.45.14.23.06-.21.09a.47.47,0,0,1-.46-.07l-.09-.07h0v.32h0a.48.48,0,0,0,.09.11l0,0a3,3,0,0,1,.45.2l.32.17h-.36a.74.74,0,0,1-.51-.22,3.47,3.47,0,0,0-.46-.13.64.64,0,0,0,.14.22.62.62,0,0,1,.41.24l.12.18-.21,0a.86.86,0,0,1-.4-.21h0a.42.42,0,0,0,.25.34Zm-.1-1.5a.1.1,0,0,0-.08.07s0,.13.08.16a.2.2,0,0,0,.08,0,.48.48,0,0,1,0-.17.13.13,0,0,1,0-.06l-.07,0Zm0-.29h0Zm0-.61h.11l0,0a.15.15,0,0,0,0-.11.34.34,0,0,0-.18-.18l0,0-.1,0a.09.09,0,0,0-.06.06c0,.08,0,.19.09.25Z"/><path class="cls-25" d="M218.85,82.48c0,.22,0,.44,0,.64s0,.39.18.5a3.08,3.08,0,0,0,2,.48c.58,0,1.95.09,2-.49a14.16,14.16,0,0,0,0-1.47c0-1.14-.11-1.69-.22-2.84a2.83,2.83,0,0,0-.14-.76,1.84,1.84,0,0,0-1.93-1c-.87.11-2.1.7-2.09,1.66C218.62,80.49,218.77,81.2,218.85,82.48Z"/><path d="M220.78,84.24a3.14,3.14,0,0,1-1.78-.52.7.7,0,0,1-.23-.54v0c0-.14,0-.28,0-.42a1.77,1.77,0,0,0,0-.23h0c0-.51-.07-.92-.11-1.32a16,16,0,0,1-.13-2c0-1,1.28-1.67,2.2-1.78a2,2,0,0,1,2.06,1.08,3.15,3.15,0,0,1,.15.79l0,.44c.08.88.13,1.41.18,2.41a14.21,14.21,0,0,1,0,1.47c0,.58-1,.6-1.65.61h-.69ZM219,82.47a1.93,1.93,0,0,0,0,.24c0,.14,0,.27,0,.39v.05a.52.52,0,0,0,.13.36A3,3,0,0,0,221,84l.45,0c.52,0,1.39,0,1.4-.36,0-.67,0-.87,0-1.45-.05-1-.1-1.52-.18-2.39l-.05-.44a2.54,2.54,0,0,0-.13-.73,1.7,1.7,0,0,0-1.79-.92c-.8.1-2,.65-2,1.53s.07,1.34.13,1.94c0,.4.08.82.12,1.33Z"/><ellipse class="cls-14" cx="220.69" cy="78.61" rx="1.89" ry="1.05" transform="translate(-7.12 23.95) rotate(-6.11)"/><path d="M220.44,79.76a2.74,2.74,0,0,1-1-.19,1,1,0,0,1-.68-.75c-.07-.63.74-1.22,1.84-1.34a3,3,0,0,1,1.4.17,1,1,0,0,1,.68.75,1,1,0,0,1-.51.88,3,3,0,0,1-1.33.46Zm.5-2.13-.35,0c-1,.11-1.75.63-1.69,1.15,0,.25.23.47.57.61a2.68,2.68,0,0,0,1.32.16,2.81,2.81,0,0,0,1.26-.43.83.83,0,0,0,.43-.72h0c0-.25-.23-.46-.58-.61A2.38,2.38,0,0,0,220.94,77.63Z"/><path class="cls-12" d="M220,83.48a1.66,1.66,0,0,1-.33,0,.73.73,0,0,1-.49-.27.42.42,0,0,1,0-.35.41.41,0,0,1,.23-.25l.07.15a.32.32,0,0,0-.14.16.23.23,0,0,0,0,.2.54.54,0,0,0,.37.19,1.07,1.07,0,0,0,.4,0,.4.4,0,0,0,.29-.18.29.29,0,0,0,0-.31l0,0a.31.31,0,0,1-.25,0,.46.46,0,0,1-.23-.44.3.3,0,0,1,.12-.24l0,0V82l.17,0h.06a.31.31,0,0,0-.14-.11l-.12,0v-.08l-.13,0,.13-.09h0l-.06-.05-.07-.07.08-.06.08,0a.92.92,0,0,1-.21-.13l-.44-.13-.23-.07.21-.09a.45.45,0,0,1,.45.07l.1.07h0l0-.33h0a.44.44,0,0,0-.08-.11l0,0a3,3,0,0,1-.45-.2l-.32-.17h.36a.76.76,0,0,1,.5.22,4.12,4.12,0,0,0,.47.13.64.64,0,0,0-.14-.22.62.62,0,0,1-.41-.24l-.12-.18.21,0a.91.91,0,0,1,.4.21h0a.44.44,0,0,0-.25-.34l.07-.15a.59.59,0,0,1,.35.57v.06h0a.84.84,0,0,1,.13.33l0,.12-.12,0a2.74,2.74,0,0,1-.39-.09l0,.06a.49.49,0,0,1,.22.08.32.32,0,0,1,.15.36.24.24,0,0,1-.11.13.17.17,0,0,1,0,0,.12.12,0,0,1,0,.13h0l.38.14-.4,0h0l.1,0,0,.13a.56.56,0,0,1,.07.18h0l.3.1-.26,0a.4.4,0,0,1,.05.38.31.31,0,0,1-.07.09h0a.46.46,0,0,1,.06.5.54.54,0,0,1-.42.26Zm.07-1.28a.05.05,0,0,0,0,0,.15.15,0,0,0,0,.11q0,.09.18.18l.05,0,.1,0a.17.17,0,0,0,.06-.06c0-.08,0-.19-.09-.25l-.13-.07Zm.12-.6h0Zm0-.33.07,0h0s.07,0,.08-.06a.17.17,0,0,0-.08-.17l-.08,0a.48.48,0,0,1,0,.17A.13.13,0,0,1,220.18,81.27Z"/><path class="cls-12" d="M221.44,83.48a.6.6,0,0,1-.35-.58v-.06h0a.79.79,0,0,1-.13-.33l0-.12.11,0a2.59,2.59,0,0,1,.4.09l0-.06a.57.57,0,0,1-.22-.07.34.34,0,0,1-.15-.37.24.24,0,0,1,.11-.13s0,0,0,0a.12.12,0,0,1,0-.13h0l-.38-.14.4,0h0l-.09,0,0-.13a.36.36,0,0,1-.07-.18h0l-.3-.1.26,0a.35.35,0,0,1,0-.47h0a.46.46,0,0,1-.05-.49.57.57,0,0,1,.41-.27,1.16,1.16,0,0,1,.46,0,.73.73,0,0,1,.49.27.42.42,0,0,1,0,.35.4.4,0,0,1-.24.25l-.06-.15a.28.28,0,0,0,.14-.16.23.23,0,0,0,0-.2.54.54,0,0,0-.37-.19.91.91,0,0,0-.4,0,.37.37,0,0,0-.29.18.3.3,0,0,0,0,.3l0,0a.36.36,0,0,1,.25,0,.46.46,0,0,1,.23.44.3.3,0,0,1-.12.24l0,0,0,.06-.16,0-.06,0a.26.26,0,0,0,.14.11l.12,0v.08l.13,0-.13.09h0l.06,0,.07.07-.08.06-.08,0a.69.69,0,0,1,.2.13l.45.14.23.06-.21.09a.47.47,0,0,1-.46-.07l-.09-.07h0v.32h0a.48.48,0,0,0,.09.11l0,0a3,3,0,0,1,.45.2l.32.17h-.36a.74.74,0,0,1-.51-.22,3.47,3.47,0,0,0-.46-.13.64.64,0,0,0,.14.22.62.62,0,0,1,.41.24l.12.18-.21,0a.86.86,0,0,1-.4-.21h0a.42.42,0,0,0,.25.34Zm-.1-1.5a.1.1,0,0,0-.08.07s0,.13.08.16a.2.2,0,0,0,.08,0,.48.48,0,0,1,0-.17.13.13,0,0,1,0-.06l-.07,0Zm0-.29h0Zm0-.61h.11l0,0a.15.15,0,0,0,0-.11.34.34,0,0,0-.18-.18l0,0-.1,0a.09.09,0,0,0-.06.06c0,.08,0,.19.09.25Z"/></g></g></svg>