<svg xmlns="http://www.w3.org/2000/svg" viewBox="0 0 74.36 55.86"><defs><style>.cls-1{fill:#b8edd1;}.cls-2{fill:#846741;}</style></defs><title>Ресурс 20</title><g id="Слой_2" data-name="Слой 2"><g id="Слой_2-2" data-name="Слой 2"><path class="cls-1" d="M65,13.9S44.28,21.71,35.31,35l3.28,3.52S55.08,29.74,65,13.9Z"/><path d="M38.52,39l-3.67-3.93.16-.24c8.93-13.27,29.65-21.2,29.85-21.27l1-.38-.57.91C55.45,29.83,38.93,38.78,38.77,38.87Zm-2.75-4,2.9,3.11c2-1.15,16.27-9.48,25.41-23.45C59.8,16.43,43.5,23.76,35.77,35Z"/><line class="cls-1" x1="50.15" y1="25.55" x2="41.52" y2="36.01"/><rect x="39.05" y="30.42" width="13.56" height="0.72" transform="translate(-7.08 46.54) rotate(-50.47)"/><path class="cls-1" d="M73.24,35.65s-20.35-4.09-34.11,2L40,42.12S57.48,43.31,73.24,35.65Z"/><path d="M42.58,42.54c-1.62,0-2.57-.06-2.61-.06l-.28,0-1-5,.27-.12c13.7-6.1,34.11-2.1,34.32-2.06l1,.21-1,.47C61.3,41.86,48.06,42.54,42.58,42.54Zm-2.28-.77c2.24.1,17.61.54,31.75-6-4.39-.73-20.85-3-32.5,2.09Z"/><line class="cls-1" x1="54.89" y1="37.75" x2="42.37" y2="39.95"/><rect x="42.28" y="38.49" width="12.71" height="0.72" transform="translate(-6 9.01) rotate(-9.98)"/><path class="cls-1" d="M61.26,50.9S50.9,39.76,40.09,37.53l-1.38,3S48.6,48.73,61.26,50.9Z"/><path d="M62.26,51.44l-1.06-.18C48.59,49.09,38.57,40.9,38.47,40.81l-.21-.17,1.62-3.53.28.06C51,39.41,61.43,50.54,61.53,50.65Zm-23.11-11c1.47,1.15,10.17,7.7,21.05,9.9-2.6-2.57-11.13-10.44-19.9-12.39Z"/><line class="cls-1" x1="47.46" y1="42.6" x2="35.59" y2="38.05"/><rect x="41.16" y="33.97" width="0.72" height="12.71" transform="translate(-10.99 64.67) rotate(-69.03)"/><path class="cls-1" d="M68,29.27s-20.74-.77-33.33,7.49L36.25,41S53.7,39.37,68,29.27Z"/><path d="M36,41.38l-1.76-4.76.24-.16C47,28.23,67.82,28.89,68,28.9l1.07,0-.87.62C54,39.6,36.46,41.34,36.29,41.36Zm-.88-4.47,1.37,3.7c2.22-.26,17.47-2.3,30.38-11h-.13C62.11,29.61,45.72,30.12,35.13,36.91Z"/><line class="cls-1" x1="47.31" y1="34.65" x2="35.37" y2="38.99"/><rect x="34.98" y="36.46" width="12.71" height="0.72" transform="translate(-10.09 16.34) rotate(-19.98)"/><path class="cls-1" d="M14.23,55.12s14.08-5.77,20-15.09l-2.32-2.36S20.73,44,14.23,55.12Z"/><path d="M13.37,55.86l.54-.92c6.48-11,17.69-17.52,17.8-17.58l.24-.14L34.67,40l-.15.24c-5.9,9.32-20,15.18-20.16,15.23ZM31.83,38.13c-1.6,1-10.79,6.79-16.7,16.19,3.33-1.52,13.71-6.72,18.62-14.25Z"/><path class="cls-1" d="M1.13,41.42s20.16,4.92,34.15-.63l-.68-4.47S17.19,34.41,1.13,41.42Z"/><path d="M19,43.78A84.9,84.9,0,0,1,1,41.77l-1-.25,1-.43c16-7,33.49-5.15,33.66-5.13l.28,0,.77,5-.27.1C30.35,43.14,24.46,43.78,19,43.78ZM2.32,41.31c4.36.91,20.71,3.81,32.56-.75l-.59-3.9C32.06,36.46,16.71,35.39,2.32,41.31Z"/><line class="cls-1" x1="18.78" y1="40.27" x2="31" y2="36.74"/><rect x="18.53" y="38.14" width="12.71" height="0.72" transform="translate(-9.7 8.41) rotate(-16.1)"/><path class="cls-1" d="M2.26,19.54S19.23,36,36.19,38.63l1.91-4.78S22.09,21.92,2.26,19.54Z"/><path d="M36.42,39l-.28,0C19.25,36.39,2.18,20,2,19.8l-.77-.74,1.06.12c19.7,2.36,35.85,14.26,36,14.38l.22.17Zm-33.09-19C6.9,23.29,21.49,35.86,36,38.23L37.66,34C35.69,32.58,21.08,22.51,3.33,20.05Z"/><line class="cls-1" x1="21.13" y1="28.85" x2="34.49" y2="34.47"/><rect x="27.45" y="24.41" width="0.72" height="14.49" transform="translate(-12.15 45.01) rotate(-67.18)"/><path class="cls-1" d="M4.81,32.75S23.43,41.9,38.3,39.5l.3-4.5S22,29.37,4.81,32.75Z"/><path d="M33.07,40.26c-13.62,0-28.25-7.11-28.42-7.19l-1-.47,1.05-.21c17.09-3.36,33.81,2.21,34,2.26l.26.09-.34,5.07-.28,0A33,33,0,0,1,33.07,40.26ZM6,32.89c4.06,1.83,19.4,8.19,32,6.3l.26-3.93C36.08,34.58,21.33,30.22,6,32.89Z"/><line class="cls-1" x1="25.91" y1="36.28" x2="38.59" y2="37.19"/><rect x="31.89" y="30.38" width="0.72" height="12.71" transform="translate(-6.69 66.29) rotate(-85.91)"/><path class="cls-1" d="M15.87,10.74S23,28,34.51,35.15l2.87-2.86S29.5,18.65,15.87,10.74Z"/><path d="M34.56,35.61l-.25-.15C22.87,28.3,15.61,11.05,15.54,10.88l-.41-1,.93.54C29.61,18.29,37.61,32,37.69,32.11l.14.24Zm-17.89-24c1.74,3.79,8.29,17,17.79,23.06l2.46-2.46C35.83,30.43,28.5,18.88,16.67,11.63Z"/><path class="cls-1" d="M24.27,3.41S24,24.16,32.61,36.53l4.2-1.67S34.73,17.46,24.27,3.41Z"/><path d="M32.48,37l-.16-.24C23.77,24.41,23.91,3.61,23.91,3.4V2.33l.64.86c10.4,14,12.59,31.45,12.61,31.63l0,.27ZM24.65,4.54c.1,4.45,1,21,8.1,31.55l3.66-1.46C36.1,32.41,33.67,17.22,24.65,4.54Z"/><line class="cls-1" x1="29.39" y1="20.34" x2="35.59" y2="31.44"/><rect x="32.13" y="19.53" width="0.72" height="12.71" transform="translate(-8.5 19.12) rotate(-29.18)"/><path class="cls-1" d="M40.82,1.13S32.92,20.32,36.3,35h4.52S45.33,18.06,40.82,1.13Z"/><path d="M41.1,35.35H36L36,35.07C32.58,20.46,40.4,1.19,40.48,1l.41-1,.28,1c4.48,16.83,0,33.87,0,34Zm-4.51-.72h3.94c.53-2.18,3.9-17.19.22-32.31C39.2,6.49,33.86,22.23,36.59,34.63Z"/><line class="cls-1" x1="39.38" y1="19.54" x2="39.14" y2="32.25"/><rect x="32.9" y="25.53" width="12.71" height="0.72" transform="matrix(0.02, -1, 1, 0.02, 12.66, 64.67)"/><path class="cls-1" d="M52.82,7.45s-13,13.62-15,27.17l3.82,1.49S51,23.28,52.82,7.45Z"/><path d="M41.73,36.55l-4.35-1.7,0-.29c2-13.5,15-27.22,15.14-27.36l.74-.78-.12,1.07C51.4,23.23,42,36.2,41.89,36.33Zm-3.55-2.17,3.29,1.29c1.21-1.74,8.94-13.22,10.85-27.13C49.53,11.67,40,23.1,38.18,34.38Z"/><line class="cls-1" x1="43.52" y1="25.13" x2="38.74" y2="40.15"/><rect x="33.25" y="32.28" width="15.76" height="0.72" transform="translate(-2.44 61.93) rotate(-72.34)"/><path class="cls-1" d="M33.56,5s-4.71,21.74,1,36.73L39,41S40.74,22.22,33.56,5Z"/><path d="M34.32,42.16l-.11-.28C28.53,27,33.15,5.17,33.2,5l.25-1.12.44,1.06C41,22,39.38,40.82,39.37,41l0,.27ZM33.68,6.3c-.86,4.7-3.59,22.34,1.1,35.05l3.89-.68C38.83,38.34,39.77,21.77,33.68,6.3Z"/><line class="cls-1" x1="34.88" y1="28" x2="36.87" y2="41.5"/><rect x="35.51" y="27.92" width="0.72" height="13.65" transform="translate(-4.67 5.59) rotate(-8.36)"/><circle class="cls-2" cx="32.7" cy="42.24" r="4.83"/><path d="M32.7,47.43a5.2,5.2,0,1,1,5.19-5.19A5.2,5.2,0,0,1,32.7,47.43Zm0-9.66a4.47,4.47,0,1,0,4.47,4.47A4.47,4.47,0,0,0,32.7,37.77Z"/><circle cx="30.74" cy="39.67" r="0.75"/><path d="M30.74,40.79a1.12,1.12,0,1,1,1.11-1.12A1.12,1.12,0,0,1,30.74,40.79Zm0-1.51a.4.4,0,0,0-.4.39.4.4,0,0,0,.79,0A.4.4,0,0,0,30.74,39.28Z"/><circle cx="33.76" cy="40.88" r="0.75"/><path d="M33.76,42a1.12,1.12,0,1,1,1.11-1.12A1.12,1.12,0,0,1,33.76,42Zm0-1.51a.39.39,0,1,0,.39.39A.39.39,0,0,0,33.76,40.49Z"/><circle cx="31.04" cy="42.39" r="0.75"/><path d="M31,43.51a1.12,1.12,0,1,1,1.12-1.12A1.12,1.12,0,0,1,31,43.51ZM31,42a.39.39,0,0,0,0,.78A.39.39,0,1,0,31,42Z"/><circle class="cls-2" cx="38.98" cy="44.66" r="4.83"/><path d="M39,49.85a5.24,5.24,0,1,1,1.1-.12A5.15,5.15,0,0,1,39,49.85Zm0-9.67a4.4,4.4,0,0,0-1,.11,4.47,4.47,0,0,0-1.49,8.12,4.48,4.48,0,0,0,6.18-1.33A4.47,4.47,0,0,0,39,40.18Z"/><circle cx="35.76" cy="44.91" r="0.75"/><path d="M35.76,46a1.09,1.09,0,0,1-.61-.18,1.13,1.13,0,0,1-.33-1.55,1.09,1.09,0,0,1,.7-.48,1.15,1.15,0,0,1,.85.15h0A1.11,1.11,0,0,1,36,46Zm0-1.51h-.08a.37.37,0,0,0-.25.17.38.38,0,0,0,.12.54.39.39,0,1,0,.42-.66h0A.39.39,0,0,0,35.76,44.52Z"/><circle cx="38.41" cy="43.03" r="0.75"/><path d="M38.41,44.15a1.08,1.08,0,0,1-.6-.18,1.1,1.1,0,0,1-.49-.71,1.1,1.1,0,0,1,.86-1.32,1.08,1.08,0,0,1,.84.15h0a1.11,1.11,0,0,1,.33,1.55,1.09,1.09,0,0,1-.7.48A1,1,0,0,1,38.41,44.15Zm0-1.51h-.08a.39.39,0,0,0-.25.17.4.4,0,0,0,.12.54.39.39,0,0,0,.54-.12A.38.38,0,0,0,38.8,43a.45.45,0,0,0-.17-.25h0A.43.43,0,0,0,38.41,42.64Z"/><circle cx="38.2" cy="46.13" r="0.75"/><path d="M38.2,47.25a1.08,1.08,0,0,1-.6-.18,1.11,1.11,0,0,1-.33-1.54A1.07,1.07,0,0,1,38,45a1.11,1.11,0,0,1,1.17,1.7,1.09,1.09,0,0,1-.7.48A1,1,0,0,1,38.2,47.25Zm0-1.51h-.09a.35.35,0,0,0-.24.17.39.39,0,0,0,.11.54.38.38,0,0,0,.54-.12.37.37,0,0,0,.06-.29.39.39,0,0,0-.17-.25A.42.42,0,0,0,38.21,45.74Z"/></g></g></svg>