<svg xmlns="http://www.w3.org/2000/svg" viewBox="0 0 42.22 32.65"><defs><style>.cls-1{fill:#a6ebc8;}.cls-2{fill:#f1593a;}</style></defs><title>Ресурс 16</title><g id="Слой_2" data-name="Слой 2"><g id="Слой_2-2" data-name="Слой 2"><path class="cls-1" d="M39.09,19.44C38,17.25,36.56,15.09,34.35,14c-2-.95-4.34-.85-6.55-1.1a19.49,19.49,0,0,1-7.39-2.37C18,9.23,16,7.4,13.69,5.94c-1.54-1-3.37-1.81-5.15-1.39S5.39,7.18,6.41,8.69s3.61,1.08,5.5,1.63c2.5.73,3.87,3.41,6.07,4.8,3.79,2.41,9.31.58,12.88,3.3,3.22,2.46,3.2,7.24,5,10.89a4.61,4.61,0,0,0,2.92,2.76C44.73,33.33,40,21.35,39.09,19.44Z"/><path d="M39.56,32.65a4.45,4.45,0,0,1-.92-.1,5.11,5.11,0,0,1-3.26-3,24.28,24.28,0,0,1-1.44-4.18c-.73-2.59-1.41-5-3.38-6.53-1.73-1.32-4-1.5-6.35-1.69s-4.56-.36-6.49-1.58a14.55,14.55,0,0,1-2.5-2.2,8.36,8.36,0,0,0-3.44-2.55,10.67,10.67,0,0,0-1.93-.29C8.39,10.37,6.88,10.24,6,9A2.68,2.68,0,0,1,5.8,6.4,3.85,3.85,0,0,1,8.43,4.07c2.11-.49,4.16.6,5.52,1.46,1,.64,2,1.36,2.92,2.05a37.41,37.41,0,0,0,3.78,2.56,19.21,19.21,0,0,0,7.21,2.32c.54.06,1.1.1,1.65.14a13.94,13.94,0,0,1,5.05,1c2,.93,3.58,2.77,5,5.63,0,.09,4.33,9.53,2,12.54A2.34,2.34,0,0,1,39.56,32.65ZM9.52,4.92a4.14,4.14,0,0,0-.87.1A2.91,2.91,0,0,0,6.7,6.76a1.76,1.76,0,0,0,.12,1.65c.6.9,1.82,1,3.11,1.12a10.76,10.76,0,0,1,2.12.33,9.09,9.09,0,0,1,3.87,2.8,13.12,13.12,0,0,0,2.32,2.05C20,15.8,22.06,16,24.29,16.15c2.41.19,4.9.39,6.86,1.89,2.23,1.69,3,4.41,3.73,7a25.36,25.36,0,0,0,1.37,4,4.25,4.25,0,0,0,2.59,2.5,1.78,1.78,0,0,0,1.91-.43c1.52-2-.88-9-2.09-11.51h0c-1.29-2.66-2.77-4.35-4.52-5.18a13,13,0,0,0-4.7-.91c-.57,0-1.13-.08-1.69-.14A20.16,20.16,0,0,1,20.17,11a36.17,36.17,0,0,1-3.88-2.63c-.92-.68-1.88-1.39-2.86-2A7.59,7.59,0,0,0,9.52,4.92Z"/><path class="cls-2" d="M7.64,9.54Q8,5.9,8.75,2.29c.16-.8,1.3-1.16,2.12-1.19a10,10,0,0,1,1.81.07A30,30,0,0,0,15.87,2,7,7,0,0,0,19.51.9a4.87,4.87,0,0,1-3.58,3.86,4.28,4.28,0,0,1-1.33.11c-1.44-.13-2.74-1.15-4.18-1.07-.57,2.56-1.13,4.84-1.69,7.39a4.71,4.71,0,0,1-3.21,3.24,4.65,4.65,0,0,1-4.38-.95,1.78,1.78,0,0,1-.45-.54,1.83,1.83,0,0,1-.16-.65A4.71,4.71,0,0,1,1.26,9a2.81,2.81,0,0,1,3.05-1.1,6,6,0,0,1,1.56,1A2.71,2.71,0,0,0,7.64,9.54Z"/><path d="M4.22,15.11A5.19,5.19,0,0,1,.81,13.85a2.42,2.42,0,0,1-.56-.7A2.49,2.49,0,0,1,0,12.34,5.18,5.18,0,0,1,.86,8.68,3.29,3.29,0,0,1,4.47,7.41a4.87,4.87,0,0,1,1.39.84l.3.23a3.14,3.14,0,0,0,1,.55c.25-2.28.61-4.58,1.06-6.83.21-1,1.49-1.55,2.58-1.58a9.48,9.48,0,0,1,1.91.07,10.09,10.09,0,0,1,1.48.42,6.56,6.56,0,0,0,1.66.43A6.71,6.71,0,0,0,19.29.47l.9-.47L20,1A5.38,5.38,0,0,1,16,5.23a4.24,4.24,0,0,1-1.49.12,7.07,7.07,0,0,1-2-.56,6.26,6.26,0,0,0-1.74-.49l-.76,3.31c-.28,1.2-.56,2.41-.84,3.68A5.17,5.17,0,0,1,5.66,14.9,5,5,0,0,1,4.22,15.11ZM3.58,8.23a2.49,2.49,0,0,0-1.93,1,4.26,4.26,0,0,0-.64,3,1.69,1.69,0,0,0,.11.48,1.64,1.64,0,0,0,.34.4,4.22,4.22,0,0,0,6.8-2c.28-1.27.56-2.48.84-3.69S9.66,5,9.94,3.7L10,3.34l.37,0a5.87,5.87,0,0,1,2.5.56,6.72,6.72,0,0,0,1.75.5,3.46,3.46,0,0,0,1.18-.1A4.29,4.29,0,0,0,18.7,1.85a5.93,5.93,0,0,1-2.86.66A7.51,7.51,0,0,1,13.92,2a10.32,10.32,0,0,0-1.33-.38,8.73,8.73,0,0,0-1.71-.06c-.72,0-1.56.34-1.65.8-.48,2.38-.85,4.8-1.1,7.2l0,.39L7.7,10a3.08,3.08,0,0,1-2.12-.76L5.26,9a3.91,3.91,0,0,0-1.11-.69A1.56,1.56,0,0,0,3.58,8.23Z"/><path class="cls-1" d="M10.45,6.06a3.33,3.33,0,0,1,1.16,2.08.48.48,0,0,1-.07.29.52.52,0,0,1-.44.12C10,8.51,9,8.44,7.9,8.34c-.62-.06-1.34-.2-1.61-.77a1.83,1.83,0,0,1-.12-.71,2.41,2.41,0,0,1,.21-1.41A4.39,4.39,0,0,1,8.32,4.1C9.06,4.12,10,5.53,10.45,6.06Z"/><path d="M11.18,9h-.1C10,9,8.92,8.93,7.85,8.82a2.26,2.26,0,0,1-2-1,2.33,2.33,0,0,1-.17-.89A2.91,2.91,0,0,1,6,5.2,4.56,4.56,0,0,1,8.32,3.61h0c.78,0,1.46.88,2.06,1.63.15.19.29.36.4.48a3.74,3.74,0,0,1,1.3,2.42.89.89,0,0,1-.17.58A.9.9,0,0,1,11.18,9ZM8.3,4.58A4.91,4.91,0,0,0,6.8,5.7a2.1,2.1,0,0,0-.15,1.14,1.69,1.69,0,0,0,.08.53c.17.34.77.44,1.22.48,1,.11,2.12.18,3.17.22h0a3.17,3.17,0,0,0-1-1.68h0c-.13-.14-.28-.33-.45-.54C9.31,5.44,8.63,4.6,8.3,4.58Z"/></g></g></svg>