<svg xmlns="http://www.w3.org/2000/svg" viewBox="0 0 74.91 84.03"><defs><style>.cls-1{fill:#74c698;}.cls-2{fill:#b8edd1;}.cls-3{fill:#f1593a;}</style></defs><title>Ресурс 14</title><g id="Слой_2" data-name="Слой 2"><g id="Слой_2-2" data-name="Слой 2"><path class="cls-1" d="M1.25,33.66s15.59,22,34.05,28.44l3.13-5S23,40.44,1.25,33.66Z"/><path d="M35.51,62.7l-.37-.14C16.74,56.13,1,34.17.85,34L0,32.75l1.4.44C23,39.93,38.64,56.64,38.79,56.8l.26.28ZM2.58,34.61C6.17,39.3,19.67,55.91,35.09,61.5l2.71-4.3C35.73,55.07,21.65,41.05,2.58,34.61Z"/><path class="cls-1" d="M19.64,5.58s-.42,36.75,14.77,58.67l7.43-3S38.17,30.47,19.64,5.58Z"/><path d="M34.23,64.85,34,64.53C18.9,42.73,19.14,5.94,19.14,5.57l0-1.47L20,5.28C38.43,30,42.3,60.92,42.34,61.23l0,.38ZM20.15,7.12c.13,7.13,1.48,37.48,14.45,56.52L41.3,61C40.81,57.44,36.53,29.91,20.15,7.12Z"/><line class="cls-2" x1="28.7" y1="35.57" x2="39.68" y2="55.23"/><rect x="33.69" y="34.14" width="0.99" height="22.52" transform="translate(-17.8 22.43) rotate(-29.18)"/><path class="cls-1" d="M48.94,1.55s-14,34-8,60h8S56.94,31.53,48.94,1.55Z"/><path d="M49.32,62H40.55l-.09-.38c-6-25.84,7.88-59.93,8-60.27L49,0l.38,1.42c7.94,29.77.08,59.93,0,60.23Zm-8-1h7.22c.85-3.46,7.07-30.62.29-57.86C46.33,9.84,36.34,38.54,41.34,61Z"/><line class="cls-2" x1="46.39" y1="34.15" x2="45.98" y2="56.66"/><rect x="34.93" y="44.91" width="22.52" height="0.99" transform="translate(-0.05 90.75) rotate(-88.96)"/><path class="cls-1" d="M73.93,28S51.06,42.26,43.52,60.3l4.76,3.42S65.87,49.28,73.93,28Z"/><path d="M48.3,64.34l-5.39-3.87.15-.36c7.52-18,30.38-32.38,30.61-32.52l1.24-.78-.52,1.37C66.38,49.34,48.77,64,48.59,64.1Zm-4.17-4.21,4.12,3c2.26-1.94,17.09-15.16,24.65-33.81C68,32.58,50.62,45.07,44.13,60.13Z"/><line class="cls-2" x1="54.82" y1="49.2" x2="42.9" y2="68.3"/><rect x="37.6" y="58.25" width="22.52" height="0.99" transform="translate(-26.85 69.06) rotate(-58.01)"/><path class="cls-1" d="M36.08,8.46s-8.34,35.79,1.76,60.47l7.89-1.28S48.8,36.77,36.08,8.46Z"/><path d="M37.53,69.49l-.15-.37C27.34,44.58,35.52,8.7,35.6,8.35l.33-1.44.61,1.34c12.62,28.11,9.72,59.14,9.69,59.45l0,.38ZM36.25,10.07c-1.41,7-6.65,36.92,1.9,58.31l7.12-1.16C45.55,63.67,47.33,35.86,36.25,10.07Z"/><line class="cls-2" x1="38.43" y1="46.28" x2="41.95" y2="68.51"/><rect x="39.69" y="46.14" width="0.99" height="22.52" transform="matrix(0.99, -0.16, 0.16, 0.99, -8.47, 6.98)"/><path class="cls-3" d="M29.61,59.55l4,20s2,4,10,4,10-6,10-6l2-20s-8,6-12,6S33.61,61.55,29.61,59.55Z"/><path d="M43.61,84c-8.21,0-10.35-4.09-10.44-4.27l0-.12-4.2-21,.91.45c3.8,1.9,9.73,3.95,13.77,3.95,3.78,0,11.61-5.84,11.69-5.9l.91-.68L54.07,77.7C54.05,77.76,51.86,84,43.61,84Zm-9.53-4.67c.26.44,2.45,3.68,9.53,3.68,7.23,0,9.29-5,9.5-5.61L55,58.6C52.76,60.18,47,64,43.61,64c-3.89,0-9.42-1.8-13.31-3.61Z"/><path class="cls-3" d="M31.92,71.08s5.69,4.46,11.69,4.46,10.69-5,10.69-5"/><path d="M43.61,76c-6.1,0-11.76-4.38-12-4.57l.62-.78c.05,0,5.63,4.35,11.38,4.35s10.28-4.79,10.33-4.84l.72.68C54.47,71.09,49.75,76,43.61,76Z"/></g></g></svg>