<svg xmlns="http://www.w3.org/2000/svg" viewBox="0 0 23.36 93.65"><defs><style>.cls-1{fill:#846741;}.cls-2{fill:#fec251;}.cls-3{fill:#472c4d;}</style></defs><title>Ресурс 18</title><g id="Слой_2" data-name="Слой 2"><g id="Слой_2-2" data-name="Слой 2"><polygon class="cls-1" points="16.14 92.31 16.14 6.91 3.19 1.15 3.19 84.91 16.14 92.31"/><path d="M16.89,93.6,2.44,85.35V0L16.89,6.42ZM3.94,84.48,15.39,91V7.4L3.94,2.31Z"/><polygon class="cls-1" points="22.61 88.32 16.14 92.31 16.14 7.13 22.61 7.13 22.61 88.32"/><path d="M15.39,93.65V6.38h8V88.74Zm1.5-85.77V91l5-3.06v-80Z"/><path class="cls-2" d="M9.36,53.07a44.61,44.61,0,0,1-.06,5.3c0,.51-.36,4,.93,2.59l1.88-2.08a6.72,6.72,0,0,0,1.3-1.8,6.79,6.79,0,0,0,.43-1.79l.63-4.36c0-.1-8.68-.73-9.64-.8-2.19-.16.35,6.83.84,8.52a1.81,1.81,0,0,0,.2.5,1.82,1.82,0,0,0,.55.52c1,.69,1.92.72,2.88,1.41"/><path d="M9.71,62.05a1,1,0,0,1-.4-.09A1,1,0,0,1,9,61.78a.38.38,0,0,1-.15-.09,5.7,5.7,0,0,0-1.27-.61A6.73,6.73,0,0,1,6,60.28a2.83,2.83,0,0,1-.75-.73A2.86,2.86,0,0,1,5,58.86c-.06-.22-.16-.52-.28-.89-1.34-4.23-1.95-6.91-1-8.06a1.43,1.43,0,0,1,1.25-.53c9.87.71,9.9.74,10.17,1.08l.2.25-.67,4.69a7.51,7.51,0,0,1-.48,2,7.54,7.54,0,0,1-1.44,2l-1.88,2.08A1.46,1.46,0,0,1,9.71,62.05Zm-.35-9.73a.76.76,0,0,1,.75.73,46.28,46.28,0,0,1-.06,5.39A11.37,11.37,0,0,0,10,60.09l1.55-1.71a6.29,6.29,0,0,0,1.18-1.6,6.6,6.6,0,0,0,.36-1.59l.53-3.62c-1.54-.15-5.37-.44-8.85-.69-.23.3-.23,1.73,1.33,6.63.13.39.23.71.29.93a1.18,1.18,0,0,0,.12.31,1.22,1.22,0,0,0,.35.31,4.79,4.79,0,0,0,1.27.61l.36.14a12.12,12.12,0,0,1,.07-1.5,45.31,45.31,0,0,0,0-5.21.75.75,0,0,1,.72-.78Z"/><path class="cls-3" d="M6.23,41.87a.87.87,0,0,0-.35.52.94.94,0,0,0,.42.73A18.58,18.58,0,0,0,9.45,45.4a.34.34,0,0,0,.14.05.31.31,0,0,0,.18-.09l1.73-1.44a4.51,4.51,0,0,0,1.07-1.11.52.52,0,0,0,.1-.34c0-.21-.24-.34-.42-.43a12,12,0,0,0-3.17-1.19A3.54,3.54,0,0,0,6.23,41.87Z"/><path d="M9.59,46.2a1.06,1.06,0,0,1-.51-.15A19.14,19.14,0,0,1,5.8,43.68a1.62,1.62,0,0,1-.66-1.37,1.56,1.56,0,0,1,.6-1h0a4.17,4.17,0,0,1,3.47-1.2,12.33,12.33,0,0,1,3.36,1.26,1.36,1.36,0,0,1,.85,1,1.3,1.3,0,0,1-.21.83A5.3,5.3,0,0,1,12,44.5l-1.73,1.44A1.05,1.05,0,0,1,9.59,46.2Zm-2.9-3.74.11.1a17.61,17.61,0,0,0,2.74,2L11,43.35a6.38,6.38,0,0,0,.75-.71A11.39,11.39,0,0,0,9,41.58a2.91,2.91,0,0,0-2.23.86h0Z"/><path class="cls-3" d="M12,46.44A10.48,10.48,0,0,0,16.58,50,24.63,24.63,0,0,0,9.64,53.9a30.58,30.58,0,0,0-7.82-3.74,14.22,14.22,0,0,0,4.15-4C7.68,46.17,10.27,46.44,12,46.44Z"/><path d="M9.71,54.83l-.47-.3a29.47,29.47,0,0,0-7.63-3.65L0,50.42l1.42-.89a13.52,13.52,0,0,0,3.93-3.79l.22-.32H6c.88,0,2,.07,3.06.14s2.12.13,3,.13h.37l.23.31a9.83,9.83,0,0,0,4.27,3.29l1.71.69-1.71.69a23.86,23.86,0,0,0-6.73,3.8ZM3.48,49.91A32.76,32.76,0,0,1,9.58,53a23.37,23.37,0,0,1,5.19-3,11.28,11.28,0,0,1-3.15-2.74c-.81,0-1.77-.08-2.69-.14s-1.81-.11-2.58-.13A15.06,15.06,0,0,1,3.48,49.91Z"/><path class="cls-3" d="M6.13,42.23a30.75,30.75,0,0,1,3-2.2c1,.74,2.41,1.57,3.42,2.31,0,1.33,0,2.86,0,4.18-.91.62-1.93,1.36-2.85,2a28.25,28.25,0,0,1-4-2.33A12.32,12.32,0,0,1,6,42.4a29.69,29.69,0,0,1,3.66,1.91L13,42.58"/><path d="M9.84,49.35l-.38-.17a29.8,29.8,0,0,1-4.09-2.4L5,46.56v-.4c0-.3,0-.62,0-.95a8.19,8.19,0,0,1,.23-3.06l.24-.67.29.08a28.37,28.37,0,0,1,3-2.16l.44-.27.4.3c.5.36,1.09.74,1.68,1.13s1.23.8,1.74,1.18l.31.22v.38c0,.66,0,1.37,0,2.09s0,1.43,0,2.09v.4l-.33.23c-.46.3-.94.64-1.42,1s-1,.68-1.43,1Zm-3.31-3.6A27,27,0,0,0,9.7,47.63l1.05-.73,1.11-.77c0-.55,0-1.12,0-1.69V44L9.63,45.14,9.3,45a16.6,16.6,0,0,1-1.55-.86c-.43-.26-.84-.5-1.25-.7a12.22,12.22,0,0,0,0,1.71C6.52,45.35,6.53,45.55,6.53,45.75Zm.86-3.55c.39.2.76.42,1.13.65s.73.43,1.08.62l1.9-1-1-.68-1.32-.87C8.5,41.36,8,41.75,7.39,42.2Z"/><path d="M9.53,53.19a.75.75,0,0,1-.74-.6,11.41,11.41,0,0,1-.22-2.46c0-.4,0-.84-.05-1.43a.76.76,0,0,1,.7-.8.74.74,0,0,1,.8.69c0,.64.05,1.11.05,1.53a9.69,9.69,0,0,0,.2,2.18.75.75,0,0,1-.6.88Z"/><path d="M9.54,43.21a3.42,3.42,0,0,1-.45,0,3.34,3.34,0,0,1-2.22-1.69,3.13,3.13,0,0,1,.35-2.95A2.74,2.74,0,0,1,9,37.38a3.94,3.94,0,0,1,1.07-.16,2.71,2.71,0,0,1,2.52,2.26,3.35,3.35,0,0,1-1,2.83A2.9,2.9,0,0,1,9.54,43.21Zm.51-4.49a2.61,2.61,0,0,0-.64.11c-.34.09-.76.22-.89.45h0a1.74,1.74,0,0,0-.29,1.56,1.81,1.81,0,0,0,1.14.85,1.37,1.37,0,0,0,1.16-.45,1.87,1.87,0,0,0,.61-1.51,1.21,1.21,0,0,0-1.07-1Z"/></g></g></svg>