<svg xmlns="http://www.w3.org/2000/svg" viewBox="0 0 45.99 41.99"><title>Ресурс 17</title><g id="Слой_2" data-name="Слой 2"><g id="Слой_2-2" data-name="Слой 2"><path d="M12.34,20.08a.6.6,0,0,1-.57-.42.61.61,0,0,1,.31-.71L32.6,9l.44.9L14.86,18.72l31-4.41.14,1L12.43,20.08Z"/><path d="M12,19.81a.69.69,0,0,1-.24,0,.66.66,0,0,1-.44-.66l.84-17.92,1,.05-.79,16.91,10.27-13,.79.62L12.48,19.55A.65.65,0,0,1,12,19.81Z"/><path d="M11.4,19.82a.58.58,0,0,1-.39-.15L.66,10.57a.49.49,0,0,1-.05-.7.51.51,0,0,1,.71,0L10,17.45,1,.74A.5.5,0,0,1,1.2.06a.51.51,0,0,1,.68.2L11.93,18.94a.6.6,0,0,1-.15.75A.58.58,0,0,1,11.4,19.82Zm-.35-.41h0Zm.62-.49Z"/><path d="M1.23,37.61A.48.48,0,0,1,1,37.54a.5.5,0,0,1-.17-.69l10-16.6L.54,21.13a.5.5,0,1,1-.08-1l10.93-.94a.63.63,0,0,1,.62.31.66.66,0,0,1,0,.69L1.66,37.37A.5.5,0,0,1,1.23,37.61Z"/><path d="M9.91,23.22a.49.49,0,0,1-.46-.33l-1.1-3,.79-2.46.77-1.2,2-.09,1.7.11,2.53,1,1,1.35a.5.5,0,0,1-.79.61l-.87-1.14-2.2-.87-1.41-.07-1.4.07L10,18,9.41,19.9l1,2.64a.5.5,0,0,1-.29.65A.57.57,0,0,1,9.91,23.22Z"/><path d="M8.23,26a.49.49,0,0,1-.47-.34L6,20.16l.75-4.77L8.53,14,12,13.19l4.25.57,3.85,1.65,1.38,2.71a.49.49,0,0,1-.22.67.5.5,0,0,1-.67-.22l-1.22-2.39L15.93,14.7l-3.87-.49L9,14.88l-1.31,1L7,20.08l1.7,5.27a.51.51,0,0,1-.32.63A.44.44,0,0,1,8.23,26Z"/><path d="M2.9,34.85h0a.49.49,0,0,1-.49-.51l.19-14.08L5,13.37l2.19-2.28,5-.88,6.35.72L24,13.52l2.1,3.93a.49.49,0,0,1-.2.67.51.51,0,0,1-.68-.2l-1.95-3.64-5.13-2.41-6-.65L7.64,12l-1.9,2L3.56,20.5,3.4,34.36A.51.51,0,0,1,2.9,34.85Z"/><path d="M31.17,17.4a.48.48,0,0,1-.34-.13l-4.6-4.34L19.78,9.79,12.31,8.24,6.07,9.43a.5.5,0,0,1-.18-1l6.43-1.23,7.84,1.64,6.7,3.29,4.65,4.39a.49.49,0,0,1,0,.7A.46.46,0,0,1,31.17,17.4Z"/><path d="M38.07,16.42a.48.48,0,0,1-.26-.07l-8.22-4.84-8.24-3.8L12.44,4.52,4.22,6a.5.5,0,0,1-.58-.4A.49.49,0,0,1,4,5l8.49-1.52,9.2,3.3,8.32,3.83,8.27,4.87a.5.5,0,0,1-.25.93Z"/><line x1="29.08" y1="17.2" x2="28.18" y2="36.13"/><path d="M28.18,36.63h0a.5.5,0,0,1-.48-.52l.9-18.92a.51.51,0,0,1,.52-.48.5.5,0,0,1,.48.52l-.9,18.93A.5.5,0,0,1,28.18,36.63Z"/><circle cx="28.08" cy="38.36" r="2.24"/><path d="M28.08,41.1H28a2.71,2.71,0,0,1-1.9-.89,2.74,2.74,0,0,1-.71-2,2.74,2.74,0,1,1,4.58,2.15A2.74,2.74,0,0,1,28.08,41.1Zm0-4.48A1.74,1.74,0,0,0,28,40.1a1.84,1.84,0,0,0,1.25-.45,1.72,1.72,0,0,0,.56-1.21h0a1.66,1.66,0,0,0-.45-1.25,1.77,1.77,0,0,0-1.2-.57Z"/><path d="M32.55,39.07h0l-9-.42a.5.5,0,0,1-.48-.52.47.47,0,0,1,.52-.47l9,.41a.5.5,0,0,1,0,1Z"/><path d="M25,41.71a.51.51,0,0,1-.37-.17.49.49,0,0,1,0-.7l6.24-5.69a.5.5,0,0,1,.71,0,.51.51,0,0,1,0,.71l-6.25,5.69A.55.55,0,0,1,25,41.71Z"/><path d="M30.92,42a.5.5,0,0,1-.37-.17l-5.69-6.24a.5.5,0,1,1,.74-.68l5.69,6.25a.5.5,0,0,1,0,.71A.55.55,0,0,1,30.92,42Z"/></g></g></svg>