<svg xmlns="http://www.w3.org/2000/svg" viewBox="0 0 79.43 99.32"><defs><style>.cls-1{fill:#c1d1dd;}.cls-1,.cls-2,.cls-3,.cls-4{stroke:#000;stroke-miterlimit:10;stroke-width:0.5px;}.cls-3{fill:#fff;}.cls-4{fill:#472c4d;}</style></defs><title>Ресурс 12</title><g id="Слой_2" data-name="Слой 2"><g id="Слой_2-2" data-name="Слой 2"><path class="cls-1" d="M60.33,78l.43-58.69L35.44,1.12a.16.16,0,0,0-.25.13V59.63Z"/><path class="cls-2" d="M60.62,78.59,34.9,59.78V1.25a.43.43,0,0,1,.25-.4.45.45,0,0,1,.47,0L61.06,19.17ZM35.49,59.48,60,77.43l.42-58-25-17.95Z"/><polygon class="cls-1" points="27.88 72.42 1.26 57.79 35.19 43.81 60.15 55.64 27.88 72.42"/><path class="cls-2" d="M27.88,72.75l-27.3-15L35.2,43.49l.12,0L60.81,55.63ZM1.94,57.83,27.88,72.08l31.6-16.43L35.19,44.13Z"/><polygon class="cls-1" points="28.31 55.64 1.69 41.01 35.63 27.03 60.58 38.86 28.31 55.64"/><path class="cls-2" d="M28.31,56,1,41,35.63,26.71l.12.05L61.24,38.85ZM2.37,41.05l26,14.25L59.91,38.87,35.62,27.35Z"/><path class="cls-3" d="M28.07,96.51V37.39L1.46,17.9a.16.16,0,0,0-.25.13v60.1Z"/><path class="cls-2" d="M28.36,97.07.91,78.29V18a.47.47,0,0,1,.25-.41.47.47,0,0,1,.47,0L28.36,37.24ZM1.5,78,27.77,96V37.54L1.5,18.3Z"/><path class="cls-3" d="M35.13.64,1.29,17.56s0,.07,0,.09L28.07,37.39,60.58,19Z"/><path class="cls-2" d="M28,37.74,1.11,17.89A.34.34,0,0,1,1,17.58a.35.35,0,0,1,.19-.29l34-17L61.12,19ZM1.77,17.65,28.09,37,60,19,35.11,1Z"/><path class="cls-2" d="M75.63,62.09s1.29,0,1.72-.43.43-3.87-.43-4.73.86-.43.86-.43a4.75,4.75,0,0,1,1.29,3c0,1.72.43,3.44-.43,3.87a17.53,17.53,0,0,1-3,.86Z"/><path class="cls-3" d="M73.62,41.38a2,2,0,0,0,2.88-1.31,3.64,3.64,0,0,0-.38-1.76,127.52,127.52,0,0,0-5.61-11.52c-1.43-2.7-3-5.52-5.55-7.13a5.68,5.68,0,0,0-4.44-.86c.29,3.7,1.74,7.43,2.62,11,1.21,4.89,1,10,1.17,15a128.1,128.1,0,0,0,2.91,24.06L69,68.32,68.24,80.8c-.14,2.28-.11,4.94,1.69,6.34.55,2.7,1.12,5.33,1.67,8a5.18,5.18,0,0,0,.68,1.93,1.69,1.69,0,0,0,1.78.74,2.33,2.33,0,0,0,1.27-1.55c1.51-4,1.4-8.38,1.31-12.64C76.33,69,76,54.28,76.52,39.6"/><path class="cls-2" d="M73.69,98.2A2.15,2.15,0,0,1,72,97.28a5.34,5.34,0,0,1-.73-2c-.27-1.35-.55-2.69-.83-4s-.55-2.6-.82-3.92c-1.76-1.45-1.87-4-1.72-6.51l.72-12L67,69.33,66.94,69A127.2,127.2,0,0,1,64,44.89c0-.89,0-1.78,0-2.67a55.32,55.32,0,0,0-1.11-12.31c-.28-1.12-.62-2.29-1-3.41a38.93,38.93,0,0,1-1.68-7.68l0-.24.23-.07a6,6,0,0,1,4.67.9c2.73,1.7,4.35,4.77,5.66,7.24A125.79,125.79,0,0,1,76.39,38.2a4.92,4.92,0,0,1,.41,1.41h0v.17a2.44,2.44,0,0,1,0,.27c-.48,14.25-.18,28.74.12,42.77l0,.93c.09,4.25.18,8.64-1.33,12.65a2.6,2.6,0,0,1-1.46,1.73A1.47,1.47,0,0,1,73.69,98.2ZM69.3,67.9l-.77,12.92c-.14,2.41,0,4.82,1.58,6.09l.09.06,0,.11c.27,1.35.55,2.68.83,4s.57,2.67.84,4a4.87,4.87,0,0,0,.63,1.82,1.42,1.42,0,0,0,1.46.63c.55-.17.87-.83,1.07-1.38,1.48-3.9,1.39-8.24,1.3-12.43l0-.93c-.29-13.61-.59-27.67-.16-41.53a2.3,2.3,0,0,1-.65.43,2.11,2.11,0,0,1-2.07-.1l.34-.49A1.66,1.66,0,0,0,76.21,40v-.27a4.09,4.09,0,0,0-.37-1.35,127.1,127.1,0,0,0-5.6-11.49c-1.34-2.54-2.86-5.41-5.45-7a5.56,5.56,0,0,0-4-.89,39.48,39.48,0,0,0,1.64,7.31c.33,1.13.67,2.3,1,3.44a56.06,56.06,0,0,1,1.13,12.44c0,.89,0,1.78,0,2.66a127.44,127.44,0,0,0,2.83,23.68Z"/><polygon class="cls-1" points="61.01 19.93 72.19 41.87 72.19 97.37 61.01 78.87 61.01 19.93"/><path class="cls-2" d="M72.49,98.43,60.71,79V18.7L72.49,41.8ZM61.3,78.79,71.9,96.31V41.94L61.3,21.16Z"/><polygon class="cls-3" points="28.07 72.63 27.88 96.51 60.58 78.01 60.52 55.64 28.07 72.63"/><path class="cls-2" d="M27.58,97l.19-24.57.16-.08L60.82,55.15l0,23Zm.78-24.21L28.18,96l32.1-18.16-.05-21.71Z"/><polygon class="cls-4" points="48.96 69.41 40.36 74.14 40.36 71.13 48.96 66.39 48.96 69.41"/><path class="cls-2" d="M40.06,74.64V71l9.2-5.06v3.69Zm.59-3.34v2.34l8-4.41V66.89Z"/></g></g></svg>