<svg xmlns="http://www.w3.org/2000/svg" viewBox="0 0 60.81 65.35"><defs><style>.cls-1{fill:#f4afd0;}.cls-1,.cls-2,.cls-3,.cls-4,.cls-5{stroke:#000;stroke-miterlimit:10;stroke-width:0.5px;}.cls-3{fill:#90452d;}.cls-4{fill:#f1593a;}.cls-5{fill:#c1d1dd;}</style></defs><title>Ресурс 15</title><g id="Слой_2" data-name="Слой 2"><g id="Слой_2-2" data-name="Слой 2"><path class="cls-1" d="M49.65,46.15c3.31-.12,6.71-.23,9.84.87-1.9,2.31-4.86,3.42-7.68,4.41C45,53.82,38.15,56.14,31,57.18s-14.57.76-21.25-1.93C7,54.13,3.94,52.43,2.22,49.87c-1.46-2.18-.32-2,1.84-2.1l6.38-.23,25.08-.89Z"/><path class="cls-2" d="M23.56,58.25a37.07,37.07,0,0,1-14-2.54c-3.69-1.48-6.31-3.35-7.79-5.56-.52-.77-.95-1.56-.64-2.17s1.2-.67,2.41-.7H4l4.46-.16,41.13-1.46c3.18-.11,6.77-.24,10,.9l.67.23-.45.56C58,49.66,55.17,50.78,52,51.9c-7,2.45-13.8,4.74-20.86,5.77A51.11,51.11,0,0,1,23.56,58.25ZM2.05,48.45a3,3,0,0,0,.59,1.14c1.37,2,3.83,3.79,7.33,5.2,6,2.42,13.08,3.05,21,1.89,7-1,13.76-3.29,20.68-5.72,2.77-1,5.23-1.94,7-3.7a28.43,28.43,0,0,0-8.93-.61L8.53,48.11l-4.46.16H3.61a5,5,0,0,0-1.56.17Z"/><path class="cls-3" d="M23.32,10.9a29.36,29.36,0,0,1,2-9.25c.72,0,.63,1.14,1.35,1.17-1.14,15.93-2.23,29.75-1.48,45.69.09,2,.22,4.06.34,6.09.11,1.66-1.87,1.46-2.53.75s-.67-2.08-.69-3.26c-.06-4.55.23-9.17.34-13.72Z"/><path class="cls-2" d="M24.35,56.38a2.46,2.46,0,0,1-1.72-.69,4.82,4.82,0,0,1-.81-3.29v-.31c-.05-3,.07-6.15.18-9.16.06-1.53.11-3,.15-4.57l.67-27.48a28.83,28.83,0,0,1,1.94-9.12l.2-.63.38,0A1.29,1.29,0,0,1,26.43,2c.15.26.2.32.26.33l.52,0L27,5.09c-1.09,15.16-2,28.24-1.32,43.39.09,2,.22,4.06.34,6.09a1.57,1.57,0,0,1-.91,1.66A2.07,2.07,0,0,1,24.35,56.38ZM25.57,2.49a27.28,27.28,0,0,0-1.75,8.42h0l-.67,27.47c0,1.52-.09,3-.15,4.58-.11,3-.23,6.1-.18,9.12v.31A4,4,0,0,0,23.37,55a1.41,1.41,0,0,0,1.35.3c.1,0,.35-.15.32-.67-.13-2-.26-4.07-.35-6.11C24,33.32,24.92,20.21,26,5l.14-1.85A1.67,1.67,0,0,1,25.57,2.49Z"/><path class="cls-4" d="M5.9,64.19a39.37,39.37,0,0,1-4.81-3.92c.37-3.66-.64-7.5-.25-11.15a.42.42,0,0,1,.67-.29,28.3,28.3,0,0,1,4,3.63A8,8,0,0,1,7.43,58,18.66,18.66,0,0,1,5.9,64.19Z"/><path class="cls-2" d="M6.14,65l-.53-.36a39.51,39.51,0,0,1-4.86-4l-.18-.17,0-.24a30.27,30.27,0,0,0-.14-5.46,31,31,0,0,1-.12-5.7.89.89,0,0,1,.55-.73.9.9,0,0,1,.92.1,29.81,29.81,0,0,1,4,3.69,8.36,8.36,0,0,1,2.08,5.93,18.94,18.94,0,0,1-1.57,6.32ZM1.61,60.07a38.21,38.21,0,0,0,4.05,3.34A17,17,0,0,0,6.93,58,7.54,7.54,0,0,0,5.12,52.8a29.65,29.65,0,0,0-3.8-3.49,31.17,31.17,0,0,0,.14,5.37A32.31,32.31,0,0,1,1.61,60.07Z"/><path class="cls-1" d="M59.25,47.43c-1.37,6.34-6.71,11.24-12.69,13.72S34,64.06,27.48,64.25c-7.26.21-14.39.16-21.65-.15l-.6-11.85C23.49,52.53,41.52,51.78,59.25,47.43Z"/><path class="cls-2" d="M18.71,64.88c-4.26,0-8.53-.09-12.9-.28l-.45,0L4.7,51.74h.54c16,.25,34.86-.14,53.9-4.8l.77-.19-.17.78c-1.3,6-6.15,11.24-13,14.07-6.16,2.56-12.89,3-19.26,3.14C24.55,64.84,21.63,64.88,18.71,64.88ZM6.31,63.62c7.16.3,14.09.34,21.15.13,6.27-.18,12.9-.57,18.91-3.06,6.23-2.58,10.73-7.24,12.2-12.58C39.91,52.57,21.45,53,5.76,52.76Z"/><path class="cls-5" d="M59.88,47.11c-1.44-7-5.52-13.26-9.78-19.06a82.32,82.32,0,0,0-9.18-10.88c-1.16-1.11-2.37-2.16-3.47-3.32C35.7,12,34.24,9.92,32.65,8a58.65,58.65,0,0,0-5.4-5.85.56.56,0,0,0-.92.57,64.7,64.7,0,0,1,1,40.24A47.38,47.38,0,0,0,25,51.35C35.9,46.9,48.1,46.49,59.88,47.11Z"/><path class="cls-2" d="M24.39,52.13l.1-.84a32.54,32.54,0,0,1,1.7-6.59c.22-.65.43-1.29.64-1.94a64,64,0,0,0-1-39.93,1,1,0,0,1,.42-1.22,1.06,1.06,0,0,1,1.31.12A59.61,59.61,0,0,1,33,7.63l1.43,1.84a51,51,0,0,0,3.34,4c.71.76,1.5,1.48,2.25,2.18.4.37.81.75,1.2,1.13a82.61,82.61,0,0,1,9.25,10.94c4,5.42,8.35,11.83,9.86,19.26l.13.63-.65,0c-10-.53-23.05-.54-34.68,4.2ZM26.81,2.5a65.08,65.08,0,0,1,1,40.56c-.2.66-.42,1.3-.64,1.95a38.16,38.16,0,0,0-1.54,5.56c11.34-4.4,23.83-4.48,33.65-4-1.59-7-5.75-13.06-9.55-18.24a81.56,81.56,0,0,0-9.13-10.81c-.39-.38-.79-.75-1.19-1.12-.77-.71-1.56-1.44-2.3-2.22a50.39,50.39,0,0,1-3.4-4.11c-.47-.61-.94-1.22-1.42-1.82a56.48,56.48,0,0,0-5.36-5.8l-.57.21Z"/><path class="cls-5" d="M25.1,1.59a.74.74,0,0,0-1.37-.48C18.87,9.12,13.24,19.54,9.16,28,5.91,34.72,2.85,41.84,2.81,49.32a53.55,53.55,0,0,1,9.38.43,90,90,0,0,1,10.08,1.46c-1.09-9.87-3.1-19.66-1.4-29.44.53-3.08,1.21-6.13,1.88-9.19C23.38,9.72,24.73,4.54,25.1,1.59Z"/><path class="cls-2" d="M22.85,51.87l-.7-.18a91.67,91.67,0,0,0-10-1.45,54,54,0,0,0-9.29-.42l-.53,0v-.53c0-7.75,3.33-15.19,6.4-21.55,4.18-8.65,9.77-19,14.6-26.92a1.24,1.24,0,0,1,2.29.8h0c-.27,2.16-1.07,5.53-1.71,8.24-.25,1-.48,2-.65,2.8-.66,3-1.34,6.09-1.88,9.17C20,29.61,21,37.57,22,45.26c.26,2,.51,3.93.73,5.89ZM5,48.75a66.54,66.54,0,0,1,7.23.5c2.22.23,6.66.7,9.46,1.31-.2-1.73-.43-3.45-.65-5.17-1-7.77-2.05-15.8-.67-23.71.53-3.09,1.22-6.2,1.88-9.21.18-.79.41-1.76.65-2.81.64-2.68,1.43-6,1.7-8.13a.23.23,0,0,0-.17-.26.22.22,0,0,0-.28.1C19.35,9.3,13.78,19.58,9.61,28.2,6.66,34.32,3.5,41.44,3.32,48.79,3.89,48.76,4.45,48.75,5,48.75Z"/></g></g></svg>