<svg xmlns="http://www.w3.org/2000/svg" viewBox="0 0 13.24 30.01"><defs><style>.cls-1{fill:#f4afd0;}.cls-2{fill:#c1d1dd;}</style></defs><title>Ресурс 9</title><g id="Слой_2" data-name="Слой 2"><g id="Слой_2-2" data-name="Слой 2"><path class="cls-1" d="M2.75,15.3C1.22,13.83.94,11.52.81,9.4.67,7.09.67,4.57,2.08,2.74A5.67,5.67,0,0,1,8.91,1.33a6.82,6.82,0,0,1,3.57,6.21c-.07,3.15-2.07,5.88-4,8.38C5.85,19.38,5.23,17.68,2.75,15.3Z"/><path d="M6,18.63c-1,0-1.83-.81-2.82-1.82-.28-.3-.6-.63-1-1h0C.49,14.17.2,11.66.06,9.45-.08,7.06-.11,4.34,1.49,2.28A6.42,6.42,0,0,1,9.25.66a7.55,7.55,0,0,1,4,6.9c-.08,3.51-2.42,6.58-4.14,8.82-1.16,1.52-2,2.2-3,2.25ZM6.41,1.5A4.77,4.77,0,0,0,2.67,3.2c-1.27,1.65-1.24,4-1.11,6.15.12,1.94.36,4.11,1.71,5.41h0c.37.35.7.69,1,1C5,16.54,5.62,17.17,6,17.13s.83-.32,1.86-1.66c2.06-2.69,3.77-5.15,3.83-8A6.1,6.1,0,0,0,8.58,2,4.8,4.8,0,0,0,6.41,1.5Z"/><path class="cls-2" d="M8,3.71l-.1,0a.27.27,0,0,0-.1.15c0,.14-.73.22-.69.37s0,.51.28.65c.72.35-.28,1.35.72,2.35.14.14,1,0,1,0s.46,0,.65-.19a1,1,0,0,0,.16-.66,4.13,4.13,0,0,0-.12-1.95A1.82,1.82,0,0,0,8,3.71Z"/><path d="M8.41,8.06a1.08,1.08,0,0,1-.87-.28,2.4,2.4,0,0,1-.67-2.13c0-.05,0-.11,0-.16a1.22,1.22,0,0,1-.51-.92.89.89,0,0,0,0-.14c-.12-.5.16-.87.84-1.09h0a.87.87,0,0,1,.26-.24A1,1,0,0,1,7.88,3a2.61,2.61,0,0,1,2.54,1.12A3.36,3.36,0,0,1,10.66,6c0,.16,0,.3,0,.43a1.67,1.67,0,0,1-.35,1.16A1.49,1.49,0,0,1,9.12,8,5.33,5.33,0,0,1,8.41,8.06Zm-.29-3.5a1.67,1.67,0,0,1,.24,1.23,1.06,1.06,0,0,0,.11.77l.49,0h.18a.38.38,0,0,1,0-.1c0-.16,0-.34,0-.53a2.74,2.74,0,0,0-.05-1.06,1.06,1.06,0,0,0-.84-.37A.79.79,0,0,1,8.12,4.56ZM8,3.75H8v0Z"/><path class="cls-1" d="M4.32,19.26a1.36,1.36,0,0,0,.7,1,2.47,2.47,0,0,0,1.19.3,1.57,1.57,0,0,0,1.29-.46,1.22,1.22,0,0,0,0-1.37,2.62,2.62,0,0,0-1.15-.87C5.14,17.31,4.11,17.68,4.32,19.26Z"/><path d="M6.29,21.28h-.1a3.26,3.26,0,0,1-1.55-.4,2.31,2.31,0,0,1-.37-3.67,2.33,2.33,0,0,1,2.36-.06A3.14,3.14,0,0,1,8.1,18.29a2,2,0,0,1,0,2.24A2.17,2.17,0,0,1,6.29,21.28Zm-.9-2.92a.4.4,0,0,0-.22.05c-.09.07-.17.3-.11.75h0a.63.63,0,0,0,.33.42,1.79,1.79,0,0,0,.84.2,1,1,0,0,0,.68-.17.5.5,0,0,0-.06-.5A1.86,1.86,0,0,0,6,18.52,1.6,1.6,0,0,0,5.39,18.36Z"/><path d="M11.14,30a.75.75,0,0,1-.59-.29A17.6,17.6,0,0,1,6.81,18.5v-.09a.74.74,0,0,1-.15-.87.75.75,0,0,1,1-.34,1.31,1.31,0,0,1,.65,1.33A16.38,16.38,0,0,0,11.73,28.8a.75.75,0,0,1-.13,1.05A.74.74,0,0,1,11.14,30ZM7,18.55H7Z"/></g></g></svg>