<svg xmlns="http://www.w3.org/2000/svg" viewBox="0 0 20.46 20.44"><defs><style>.cls-1{fill:#fff;}.cls-2{fill:#f1593a;}</style></defs><title>Ресурс 7</title><g id="Слой_2" data-name="Слой 2"><g id="Слой_2-2" data-name="Слой 2"><path class="cls-1" d="M9.85,1c-2.64.22-5.4,1.15-7,3.3A10.45,10.45,0,0,0,1.5,7.4c-.82,2.69-1.21,5.73.15,8.18a8.27,8.27,0,0,0,4.93,3.67,11.52,11.52,0,0,0,11-2.67A6.62,6.62,0,0,0,19,14.66a9.38,9.38,0,0,0,.63-3.41c.1-1.72.15-3.6-.9-5a23.78,23.78,0,0,0-3.27-3.58A7.27,7.27,0,0,0,9.85,1Z"/><path d="M9.71,20.44A11.43,11.43,0,0,1,6.37,20,8.84,8.84,0,0,1,1,16C-.26,13.7-.33,10.83.78,7.19a11,11,0,0,1,1.5-3.31C3.77,1.83,6.43.55,9.79.28h0A8,8,0,0,1,16,2.14a24,24,0,0,1,3.37,3.69c1.27,1.65,1.14,3.95,1.06,5.46a9.92,9.92,0,0,1-.7,3.68,7.4,7.4,0,0,1-1.61,2.15A12.21,12.21,0,0,1,9.71,20.44Zm.2-18.67c-1.69.14-4.76.71-6.41,3A9.87,9.87,0,0,0,2.21,7.62c-1,3.19-.93,5.75.1,7.6a7.53,7.53,0,0,0,4.48,3.31A10.69,10.69,0,0,0,17.06,16a5.83,5.83,0,0,0,1.29-1.7,8.52,8.52,0,0,0,.56-3.13c.1-1.72.11-3.35-.75-4.47A23.07,23.07,0,0,0,15,3.28a6.56,6.56,0,0,0-5.1-1.51ZM9.85,1h0Z"/><path class="cls-2" d="M1.07,13.75A7.41,7.41,0,0,0,5.2,18.48c.06-1.09-.61-2.11-.62-3.21a3.77,3.77,0,0,1,2-3A11.94,11.94,0,0,1,10.17,11c.79,2.62,1.85,5.45,1.15,8.09l4.07-1.88c1.35-.63,2.85-1.43,3.18-2.83s-1.78-2.9-3.19-3.5a10.31,10.31,0,0,0-4.53-.5c.48-1.43.84-3.54,2.38-3.77a8.38,8.38,0,0,0,3.88-1.69c-.55-1-1.09-1-1.64-2C14.23.61,11.92.18,9.53,1.46c-3.92,2.1,1.79,7.19.38,8.87S4.53,7.86,2.87,9A4.68,4.68,0,0,0,1.07,13.75Z"/><path d="M10.2,20.41l.4-1.54c.56-2.16-.18-4.54-.89-6.85l-.05-.16a9.2,9.2,0,0,0-2.73,1,3.07,3.07,0,0,0-1.6,2.4,4.81,4.81,0,0,0,.28,1.32A5.33,5.33,0,0,1,6,18.52l0,1.15-1-.51A8.06,8.06,0,0,1,.34,13.91h0A5.38,5.38,0,0,1,2.45,8.36c1.16-.78,2.72,0,4.24.72.93.46,2.34,1.15,2.65.77S9,8.26,8.58,7.4c-1-2-2.38-5,.6-6.6C12-.72,14.73,0,16.13,2.53a2.76,2.76,0,0,0,.67.81,4.23,4.23,0,0,1,1,1.19l.29.54-.47.4a9.11,9.11,0,0,1-4.25,1.85c-.71.11-1.09,1-1.47,2.25a9,9,0,0,1,3.81.59c1.57.67,4.11,2.35,3.62,4.37s-2.49,2.82-3.59,3.33ZM11,11.1l.15.48a17.85,17.85,0,0,1,1.14,6.21l2.8-1.29c1.2-.56,2.5-1.25,2.76-2.32.19-.78-1.3-2-2.75-2.65A9.58,9.58,0,0,0,11,11.1ZM3.59,9.53a.53.53,0,0,0-.3.07,3.9,3.9,0,0,0-1.48,4h0A6,6,0,0,0,4.16,17a5.45,5.45,0,0,1-.33-1.68,4.52,4.52,0,0,1,2.31-3.69A8.78,8.78,0,0,1,7.29,11c-.42-.18-.85-.39-1.26-.59A7.76,7.76,0,0,0,3.59,9.53Zm8.48-8a4.6,4.6,0,0,0-2.18.62c-1.49.79-1.2,2,0,4.64a14.88,14.88,0,0,1,.73,1.69c.42-1.19,1.08-2.41,2.46-2.61a8,8,0,0,0,3-1.12,3.9,3.9,0,0,0-.29-.28,4.13,4.13,0,0,1-1-1.2A3,3,0,0,0,12.07,1.5Z"/></g></g></svg>