<svg xmlns="http://www.w3.org/2000/svg" viewBox="0 0 21.23 31.03"><defs><style>.cls-1{fill:#fff;}.cls-2{fill:#f1593a;}</style></defs><title>Ресурс 8</title><g id="Слой_2" data-name="Слой 2"><g id="Слой_2-2" data-name="Слой 2"><path class="cls-1" d="M4.14,13.09a3.22,3.22,0,0,0-3.08,1.57,3.54,3.54,0,0,0,0,2.8,10.49,10.49,0,0,0,1.49,2.46L4.35,22.4a7.89,7.89,0,0,0,1.86,2,2.75,2.75,0,0,0,2.6.37,2,2,0,0,0,.36-3.47c-.43-.31.05.56-.46.41C8,21.5,6.34,20.25,5.68,20a3.68,3.68,0,0,1-1.68-3,1.58,1.58,0,0,1,1.45-1.19c.66-.08,1.32,1.14,2,1.37,1.73.61,2.45-1,1.17-2A9.78,9.78,0,0,0,4.14,13.09Z"/><path d="M7.92,25.71A3.87,3.87,0,0,1,5.79,25a8.91,8.91,0,0,1-2-2.17L1.91,20.37A11.3,11.3,0,0,1,.32,17.73a4.23,4.23,0,0,1,.07-3.41,4,4,0,0,1,3.8-2h0a10.61,10.61,0,0,1,4.86,2.19,2,2,0,0,1,.73,2.56,2,2,0,0,1-2.62.71A3.06,3.06,0,0,1,6.05,17a2.94,2.94,0,0,0-.58-.5.85.85,0,0,0-.73.57A3.08,3.08,0,0,0,6,19.27a11.24,11.24,0,0,1,1.33.79l1.12.69a.84.84,0,0,1,.23-.18.87.87,0,0,1,.95.12,2.78,2.78,0,0,1-.49,4.77A3,3,0,0,1,7.92,25.71Zm-4-11.88A2.48,2.48,0,0,0,1.72,15a2.75,2.75,0,0,0,0,2.2,9.49,9.49,0,0,0,1.39,2.28L5,22a7.71,7.71,0,0,0,1.68,1.82,2,2,0,0,0,1.87.31,1.25,1.25,0,0,0,.63-1.67,1,1,0,0,1-.63,0,9,9,0,0,1-2-1.1,10.38,10.38,0,0,0-1.13-.68A4.36,4.36,0,0,1,3.26,16.8,2.31,2.31,0,0,1,5.36,15a2.3,2.3,0,0,1,1.76.93,2.69,2.69,0,0,0,.54.48c.43.15.73.1.8,0s0-.37-.34-.66a9.17,9.17,0,0,0-4-1.86Z"/><path class="cls-1" d="M6.92,22.64A9.26,9.26,0,0,0,7,26.46a5.63,5.63,0,0,0,4.55,3.66,11.66,11.66,0,0,0,5.83-.5,4.82,4.82,0,0,0,2.73-2.85,5.64,5.64,0,0,0,.31-2.24v-8.9c0-.32-1-.67-1.21-.93a1.53,1.53,0,0,0-.89-.43c-1.7-.37-3.42-.71-5.13-1-.88-.16-4.28-1.24-5-.74C6.88,13.42,7.1,20.93,6.92,22.64Z"/><path d="M13.63,31a14.68,14.68,0,0,1-2.15-.17,6.4,6.4,0,0,1-5.16-4.17,10.17,10.17,0,0,1-.15-4.13c0-.38.06-1.15.09-2,.14-5.13.41-7.87,1.54-8.63.71-.48,2.05-.26,4.61.39.41.11.75.19.95.23,1.72.3,3.46.65,5.16,1a2.19,2.19,0,0,1,1.33.71l.28.14c.51.29,1.08.61,1.08,1.24v8.9a6.16,6.16,0,0,1-.37,2.53,5.5,5.5,0,0,1-3.17,3.26A11.85,11.85,0,0,1,13.63,31ZM8.86,13.13a1,1,0,0,0-.27,0c-.65.59-.78,5.54-.83,7.41,0,.95,0,1.71-.1,2.15h0a9,9,0,0,0,.09,3.52,4.87,4.87,0,0,0,3.95,3.13,10.86,10.86,0,0,0,5.47-.46,4.12,4.12,0,0,0,2.3-2.44,5.13,5.13,0,0,0,.24-1.94V15.88l-.31-.18a2.25,2.25,0,0,1-.74-.54A1.24,1.24,0,0,0,18.2,15c-1.68-.37-3.4-.71-5.1-1-.23,0-.6-.13-1-.24A18.94,18.94,0,0,0,8.86,13.13Z"/><path class="cls-1" d="M13.92,7.8a6.06,6.06,0,0,0-4.13.93,4.57,4.57,0,0,0-2,3.64A5.32,5.32,0,0,0,11,16.9a13.51,13.51,0,0,0,5.79.91,4.11,4.11,0,0,0,2.12-.4,3.19,3.19,0,0,0,1.34-2.06C21.37,11,17.8,8.27,13.92,7.8Z"/><path d="M16.5,18.56a13.44,13.44,0,0,1-5.77-1A6,6,0,0,1,7,12.36,5.33,5.33,0,0,1,9.37,8.11a6.73,6.73,0,0,1,4.64-1h0a8.72,8.72,0,0,1,6.17,3.34A6.21,6.21,0,0,1,21,15.53a4,4,0,0,1-1.68,2.52,4.81,4.81,0,0,1-2.51.51ZM13.12,8.5a5.13,5.13,0,0,0-2.9.85,3.78,3.78,0,0,0-1.7,3,4.61,4.61,0,0,0,2.84,3.85,12.78,12.78,0,0,0,5.46.84,3.53,3.53,0,0,0,1.75-.3,2.58,2.58,0,0,0,1-1.59A4.66,4.66,0,0,0,19,11.26a7.19,7.19,0,0,0-5.12-2.71h0A5.52,5.52,0,0,0,13.12,8.5Z"/><path class="cls-2" d="M8.83,10.81a3.9,3.9,0,0,1,1.76-.69,7.69,7.69,0,0,1,2.61.3l1.94.46c.28.07.56.13.84.22a12.64,12.64,0,0,1,3.52,2,2,2,0,0,1,.75.77,2,2,0,0,1,.12.58,3.25,3.25,0,0,1-.23,1.83,2.53,2.53,0,0,1-1.85,1.17,19.07,19.07,0,0,1-2.27.11c-.39,0-.78.07-1.16.09a8.54,8.54,0,0,1-5.3-1.51A4.19,4.19,0,0,1,8.41,15,3.92,3.92,0,0,1,8,12.68,2,2,0,0,1,8.83,10.81Z"/><path d="M16.5,18.56a13.44,13.44,0,0,1-5.77-1A6,6,0,0,1,7,12.36,5.33,5.33,0,0,1,9.37,8.11a6.73,6.73,0,0,1,4.64-1h0a8.72,8.72,0,0,1,6.17,3.34A6.21,6.21,0,0,1,21,15.53a4,4,0,0,1-1.68,2.52,4.81,4.81,0,0,1-2.51.51ZM13.12,8.5a5.13,5.13,0,0,0-2.9.85,3.78,3.78,0,0,0-1.7,3,4.61,4.61,0,0,0,2.84,3.85,12.78,12.78,0,0,0,5.46.84,3.53,3.53,0,0,0,1.75-.3,2.58,2.58,0,0,0,1-1.59A4.66,4.66,0,0,0,19,11.26a7.19,7.19,0,0,0-5.12-2.71h0A5.52,5.52,0,0,0,13.12,8.5Z"/><path d="M12.61,7.05a.73.73,0,0,1-.25,0,3.17,3.17,0,0,1-1.85-2,5.43,5.43,0,0,1-.14-2.46A5.34,5.34,0,0,1,11.06.35a.75.75,0,0,1,1-.24.76.76,0,0,1,.24,1,4,4,0,0,0-.48,1.57,4,4,0,0,0,.09,1.8,1.67,1.67,0,0,0,.93,1.08.75.75,0,0,1-.26,1.45Z"/><path d="M16.72,6.63h0A.74.74,0,0,1,16,5.86a12.42,12.42,0,0,0-.42-3.64A.75.75,0,1,1,17,1.83a14,14,0,0,1,.48,4.08A.75.75,0,0,1,16.72,6.63Z"/></g></g></svg>