<svg xmlns="http://www.w3.org/2000/svg" viewBox="0 0 25.15 20.99"><defs><style>.cls-1{fill:#f8ebc0;}</style></defs><title>Ресурс 6</title><g id="Слой_2" data-name="Слой 2"><g id="Слой_2-2" data-name="Слой 2"><polygon class="cls-1" points="8.1 1.01 1.1 11.01 18.1 20.01 24.1 11.01 8.1 1.01"/><path d="M18.35,21,0,11.28,7.9,0,25.15,10.79ZM2.2,10.75,17.85,19l5.2-7.79L8.31,2Z"/><polyline class="cls-1" points="7.1 3.01 11.1 13.01 23.1 12.01"/><path d="M10.61,13.81,6.41,3.29a.74.74,0,0,1,.41-1,.75.75,0,0,1,1,.41l3.79,9.49,11.45-1a.75.75,0,1,1,.12,1.49Z"/></g></g></svg>