<svg xmlns="http://www.w3.org/2000/svg" viewBox="0 0 25.56 24.48"><defs><style>.cls-1{fill:#fff;}</style></defs><title>Ресурс 3</title><g id="Слой_2" data-name="Слой 2"><g id="Слой_2-2" data-name="Слой 2"><path class="cls-1" d="M9.77,23.43a10.58,10.58,0,0,0,3.13-2.66,16,16,0,0,1,1.77-2.57c1.71-1.35,2-3.2,3.15-5L23.91,4c.58-.88,1.19-2,.76-2.94A160.15,160.15,0,0,0,10.58,9.45c-1.84,1.23-4.31,3.11-4.31,5.6S8.56,21.22,9.77,23.43Z"/><path d="M9.49,24.48l-.38-.69c-.18-.33-.39-.7-.61-1.08-1.26-2.23-3-5.27-3-7.66,0-2.77,2.48-4.78,4.64-6.23,4.56-3,9.32-5.88,14.16-8.44L25,0l.32.74C26,2.18,25,3.68,24.53,4.39l-6.08,9.2a13.78,13.78,0,0,0-1,1.89,8.33,8.33,0,0,1-2.31,3.31,7.22,7.22,0,0,0-1.06,1.51c-.21.35-.41.68-.58.91a10.91,10.91,0,0,1-3.34,2.85ZM24,2.26c-4.43,2.4-8.79,5-13,7.81-1.85,1.24-4,2.92-4,5S8.63,19.89,9.81,22l.23.4a8.42,8.42,0,0,0,2.25-2.05,8.64,8.64,0,0,0,.5-.79,7.25,7.25,0,0,1,1.42-1.91,7,7,0,0,0,1.88-2.77,15.13,15.13,0,0,1,1.1-2.09l6.09-9.2A5.64,5.64,0,0,0,24,2.26Z"/><path class="cls-1" d="M24.09,1.36s0-.08-.05-.06L12.46,6.4,9.7,7.62C7,8.82,4.32,10.26,1.59,11.46l5.05,3.19c2.61-1.77,5.11-3.41,7.73-5.18,2.07-1.39,4.14-2.78,6.14-4.28A12.81,12.81,0,0,0,24.09,1.36Z"/><path d="M6.65,15.54,0,11.35l1.29-.57c1.35-.6,2.71-1.26,4-1.91S8,7.54,9.39,6.94L24.24.39l.77.85-.29.52a13.57,13.57,0,0,1-3.76,4c-2,1.51-4.13,2.93-6.18,4.31l-3.85,2.58c-1.28.85-2.56,1.7-3.87,2.59Zm-3.48-4,3.45,2.18,3.47-2.32L14,8.85c2-1.36,4.12-2.77,6.11-4.26A15.2,15.2,0,0,0,21.8,3.1L10,8.31c-1.35.59-2.71,1.26-4,1.91C5.06,10.67,4.12,11.13,3.17,11.57Z"/><path class="cls-1" d="M24.81,1.27a.16.16,0,0,0-.3-.06c-1.57,3.13-4.12,5.67-6.45,8.31A71.09,71.09,0,0,0,12,17a.15.15,0,0,0,.08.23,35.64,35.64,0,0,1,5.32,2.9c2.53-3.62,3.41-8.32,5.32-12.3C23.74,5.66,24.78,3.61,24.81,1.27Z"/><path d="M17.62,21.11,17,20.78c-.55-.3-1.1-.64-1.65-1a18.34,18.34,0,0,0-3.56-1.86.9.9,0,0,1-.45-1.36A65.64,65.64,0,0,1,17,9.64L17.5,9c.4-.46.82-.91,1.23-1.37A32,32,0,0,0,23.84.87a.92.92,0,0,1,1-.48.91.91,0,0,1,.69.89h0c0,2.41-1,4.45-2,6.61l-.13.26a49.94,49.94,0,0,0-1.88,4.78A31.75,31.75,0,0,1,18,20.56ZM13,16.8a24.92,24.92,0,0,1,3.13,1.72l1,.61a33.22,33.22,0,0,0,2.92-6.7A52,52,0,0,1,22,7.5l.13-.26c.46-1,.9-1.89,1.25-2.83a50.31,50.31,0,0,1-3.57,4.24L18.63,10l-.55.63A69.48,69.48,0,0,0,13,16.8Z"/><path d="M9.87,23.92a.75.75,0,0,1-.72-1c.22-.7.57-1.62.91-2.51a18,18,0,0,0,1.06-3.27.75.75,0,0,1,1.5,0A14.5,14.5,0,0,1,11.46,21c-.33.87-.67,1.76-.87,2.41A.76.76,0,0,1,9.87,23.92Z"/></g></g></svg>