<svg xmlns="http://www.w3.org/2000/svg" viewBox="0 0 25.06 25.92"><defs><style>.cls-1{fill:#fff;}.cls-2{fill:#f8ebc0;}</style></defs><title>Ресурс 5</title><g id="Слой_2" data-name="Слой 2"><g id="Слой_2-2" data-name="Слой 2"><path class="cls-1" d="M16.34,24.84c3.71-4.95,7.64-10.58,8-16.76a70.77,70.77,0,0,1-12.49-7A59.44,59.44,0,0,1,1.24,14.9,104.12,104.12,0,0,1,16.34,24.84Z"/><path d="M16.47,25.92l-.6-.5a105.12,105.12,0,0,0-15-9.87L0,15.06l.72-.7A58.5,58.5,0,0,0,11.14.73L11.55,0l.68.48A70.53,70.53,0,0,0,24.58,7.39l.48.21,0,.52c-.32,6.3-4.17,11.94-8.1,17.17Zm-14-11.18a104.13,104.13,0,0,1,13.74,9C19.72,19,23.05,14,23.5,8.56A72.85,72.85,0,0,1,12.05,2.18,60.44,60.44,0,0,1,2.47,14.74Z"/><polygon class="cls-2" points="7.25 12.16 13.25 4.16 22.25 10.16 17.25 19.16 7.25 12.16"/><path d="M17.5,20.25,6.19,12.33l6.89-9.19L23.24,9.92ZM8.32,12,17,18.07l4.26-7.67L13.43,5.18Z"/></g></g></svg>